{
  "accessors": [
    {
      "bufferView": 2,
      "componentType": 5126,
      "count": 65532,
      "max": [
        0.01090999972075224,
        0.05170999839901924,
        7.492290019989014
      ],
      "min": [
        -0.09482000023126602,
        -0.03985000029206276,
        2.253880023956299
      ],
      "type": "VEC3"
    },
    {
      "bufferView": 2,
      "byteOffset": 786384,
      "componentType": 5126,
      "count": 65532,
      "max": [
        0.9999896287918091,
        0.9999881982803345,
        0.090459905564785
      ],
      "min": [
        -0.9999840259552002,
        -0.999998927116394,
        -0.11608966439962387
      ],
      "type": "VEC3"
    },
    {
      "bufferView": 1,
      "componentType": 5126,
      "count": 65532,
      "max": [
        0.9836300015449524,
        1.0
      ],
      "min": [
        0.0,
        0.3000999987125397
      ],
      "type": "VEC2"
    },
    {
      "bufferView": 0,
      "componentType": 5125,
      "count": 98298,
      "type": "SCALAR"
    },
    {
      "bufferView": 2,
      "byteOffset": 1572768,
      "componentType": 5126,
      "count": 65532,
      "max": [
        0.23792999982833862,
        0.22596000134944916,
        2.3163599967956543
      ],
      "min": [
        -0.2690800130367279,
        -0.1446399986743927,
        -0.019950000569224358
      ],
      "type": "VEC3"
    },
    {
      "bufferView": 2,
      "byteOffset": 2359152,
      "componentType": 5126,
      "count": 65532,
      "max": [
        0.999996542930603,
        0.9997974038124084,
        0.9999973773956299
      ],
      "min": [
        -0.9999955892562866,
        -0.9999179840087891,
        -0.9998972415924072
      ],
      "type": "VEC3"
    },
    {
      "bufferView": 1,
      "byteOffset": 524256,
      "componentType": 5126,
      "count": 65532,
      "max": [
        0.9918199777603149,
        0.3091599941253662
      ],
      "min": [
        0.0,
        0.0
      ],
      "type": "VEC2"
    },
    {
      "bufferView": 0,
      "byteOffset": 393192,
      "componentType": 5125,
      "count": 98298,
      "type": "SCALAR"
    },
    {
      "bufferView": 2,
      "byteOffset": 3145536,
      "componentType": 5126,
      "count": 65532,
      "max": [
        0.2022700011730194,
        0.19136999547481537,
        4.022329807281494
      ],
      "min": [
        -0.2304600030183792,
        -0.11806999891996384,
        0.004559999797493219
      ],
      "type": "VEC3"
    },
    {
      "bufferView": 2,
      "byteOffset": 3931920,
      "componentType": 5126,
      "count": 65532,
      "max": [
        0.9999998807907104,
        0.9999996423721313,
        0.9974541664123535
      ],
      "min": [
        -0.9999998807907104,
        -0.9999998807907104,
        -0.9940292835235596
      ],
      "type": "VEC3"
    },
    {
      "bufferView": 1,
      "byteOffset": 1048512,
      "componentType": 5126,
      "count": 65532,
      "max": [
        0.9836300015449524,
        0.537090003490448
      ],
      "min": [
        0.0,
        0.0022100000642240047
      ],
      "type": "VEC2"
    },
    {
      "bufferView": 0,
      "byteOffset": 786384,
      "componentType": 5125,
      "count": 98298,
      "type": "SCALAR"
    },
    {
      "bufferView": 2,
      "byteOffset": 4718304,
      "componentType": 5126,
      "count": 65532,
      "max": [
        0.004980000201612711,
        0.037300001829862595,
        5.639949798583984
      ],
      "min": [
        -0.08314000070095062,
        -0.030910000205039978,
        3.93900990486145
      ],
      "type": "VEC3"
    },
    {
      "bufferView": 2,
      "byteOffset": 5504688,
      "componentType": 5126,
      "count": 65532,
      "max": [
        0.9999884366989136,
        0.9999998807907104,
        0.08829981088638306
      ],
      "min": [
        -0.9999871253967285,
        -0.9999904632568359,
        -0.13053031265735626
      ],
      "type": "VEC3"
    },
    {
      "bufferView": 1,
      "byteOffset": 1572768,
      "componentType": 5126,
      "count": 65532,
      "max": [
        0.9836300015449524,
        0.7531200051307678
      ],
      "min": [
        0.0,
        0.5259699821472168
      ],
      "type": "VEC2"
    },
    {
      "bufferView": 0,
      "byteOffset": 1179576,
      "componentType": 5125,
      "count": 98298,
      "type": "SCALAR"
    },
    {
      "bufferView": 2,
      "byteOffset": 6291072,
      "componentType": 5126,
      "count": 26784,
      "max": [
        -0.005280000157654285,
        0.031209999695420265,
        6.353640079498291
      ],
      "min": [
        -0.08079999685287476,
        -0.026359999552369118,
        5.563320159912109
      ],
      "type": "VEC3"
    },
    {
      "bufferView": 2,
      "byteOffset": 6612480,
      "componentType": 5126,
      "count": 26784,
      "max": [
        0.9999790191650391,
        0.9999996423721313,
        0.08997014909982681
      ],
      "min": [
        -0.9999502301216125,
        -0.9999924898147583,
        -0.10375046730041504
      ],
      "type": "VEC3"
    },
    {
      "bufferView": 1,
      "byteOffset": 2097024,
      "componentType": 5126,
      "count": 26784,
      "max": [
        0.9836300015449524,
        0.848110020160675
      ],
      "min": [
        0.0,
        0.7423999905586243
      ],
      "type": "VEC2"
    },
    {
      "bufferView": 0,
      "byteOffset": 1572768,
      "componentType": 5125,
      "count": 40176,
      "type": "SCALAR"
    },
    {
      "bufferView": 2,
      "byteOffset": 6933888,
      "componentType": 5126,
      "count": 65532,
      "max": [
        0.5035300254821777,
        0.728380024433136,
        8.175209999084473
      ],
      "min": [
        -0.8032799959182739,
        -0.7408400177955627,
        5.590270042419434
      ],
      "type": "VEC3"
    },
    {
      "bufferView": 2,
      "byteOffset": 7720272,
      "componentType": 5126,
      "count": 65532,
      "max": [
        0.9999786615371704,
        0.9998437166213989,
        0.9371484518051147
      ],
      "min": [
        -0.9999471306800842,
        -0.9999860525131226,
        -0.956405520439148
      ],
      "type": "VEC3"
    },
    {
      "bufferView": 1,
      "byteOffset": 2311296,
      "componentType": 5126,
      "count": 65532,
      "max": [
        0.875,
        1.0
      ],
      "min": [
        0.0,
        0.0
      ],
      "type": "VEC2"
    },
    {
      "bufferView": 0,
      "byteOffset": 1733472,
      "componentType": 5125,
      "count": 98298,
      "type": "SCALAR"
    },
    {
      "bufferView": 2,
      "byteOffset": 8506656,
      "componentType": 5126,
      "count": 65532,
      "max": [
        0.8363000154495239,
        0.8537399768829346,
        6.1225199699401855
      ],
      "min": [
        -0.7754799723625183,
        -0.7845100164413452,
        1.8331400156021118
      ],
      "type": "VEC3"
    },
    {
      "bufferView": 2,
      "byteOffset": 9293040,
      "componentType": 5126,
      "count": 65532,
      "max": [
        0.9971446394920349,
        0.9849602580070496,
        0.9630607962608337
      ],
      "min": [
        -0.9994075894355774,
        -0.9945245385169983,
        -0.9854356646537781
      ],
      "type": "VEC3"
    },
    {
      "bufferView": 1,
      "byteOffset": 2835552,
      "componentType": 5126,
      "count": 65532,
      "max": [
        0.8999999761581421,
        1.0
      ],
      "min": [
        0.0,
        0.0
      ],
      "type": "VEC2"
    },
    {
      "bufferView": 0,
      "byteOffset": 2126664,
      "componentType": 5125,
      "count": 98298,
      "type": "SCALAR"
    },
    {
      "bufferView": 2,
      "byteOffset": 10079424,
      "componentType": 5126,
      "count": 65208,
      "max": [
        1.0002000331878662,
        0.9839800000190735,
        5.953239917755127
      ],
      "min": [
        -1.0498299598693848,
        -0.9853000044822693,
        2.8404500484466553
      ],
      "type": "VEC3"
    },
    {
      "bufferView": 2,
      "byteOffset": 10861920,
      "componentType": 5126,
      "count": 65208,
      "max": [
        0.9990922808647156,
        0.9998506903648376,
        0.9923785924911499
      ],
      "min": [
        -0.9999393820762634,
        -0.9998208284378052,
        -0.997742235660553
      ],
      "type": "VEC3"
    },
    {
      "bufferView": 1,
      "byteOffset": 3359808,
      "componentType": 5126,
      "count": 65208,
      "max": [
        0.800000011920929,
        1.0
      ],
      "min": [
        0.0,
        0.0
      ],
      "type": "VEC2"
    },
    {
      "bufferView": 0,
      "byteOffset": 2519856,
      "componentType": 5125,
      "count": 97812,
      "type": "SCALAR"
    },
    {
      "bufferView": 2,
      "byteOffset": 11644416,
      "componentType": 5126,
      "count": 65532,
      "max": [
        0.9196500182151794,
        1.1040500402450562,
        8.464619636535645
      ],
      "min": [
        -1.3441100120544434,
        -1.1588000059127808,
        6.256649971008301
      ],
      "type": "VEC3"
    },
    {
      "bufferView": 2,
      "byteOffset": 12430800,
      "componentType": 5126,
      "count": 65532,
      "max": [
        0.9999979734420776,
        0.9995982050895691,
        0.9994397759437561
      ],
      "min": [
        -0.9999769926071167,
        -0.9995431900024414,
        -0.9992905855178833
      ],
      "type": "VEC3"
    },
    {
      "bufferView": 1,
      "byteOffset": 3881472,
      "componentType": 5126,
      "count": 65532,
      "max": [
        0.666670024394989,
        1.0
      ],
      "min": [
        0.0,
        0.0
      ],
      "type": "VEC2"
    },
    {
      "bufferView": 0,
      "byteOffset": 2911104,
      "componentType": 5125,
      "count": 98298,
      "type": "SCALAR"
    },
    {
      "bufferView": 2,
      "byteOffset": 13217184,
      "componentType": 5126,
      "count": 65532,
      "max": [
        1.3781800270080566,
        1.2870899438858032,
        6.843070030212402
      ],
      "min": [
        -1.5167100429534912,
        -1.345810055732727,
        3.1648499965667725
      ],
      "type": "VEC3"
    },
    {
      "bufferView": 2,
      "byteOffset": 14003568,
      "componentType": 5126,
      "count": 65532,
      "max": [
        0.9974308609962463,
        0.9997738003730774,
        0.9999682307243347
      ],
      "min": [
        -0.9987940788269043,
        -0.9994678497314453,
        -0.9996911883354187
      ],
      "type": "VEC3"
    },
    {
      "bufferView": 1,
      "byteOffset": 4405728,
      "componentType": 5126,
      "count": 65532,
      "max": [
        0.666670024394989,
        1.0
      ],
      "min": [
        0.0,
        0.0
      ],
      "type": "VEC2"
    },
    {
      "bufferView": 0,
      "byteOffset": 3304296,
      "componentType": 5125,
      "count": 98298,
      "type": "SCALAR"
    },
    {
      "bufferView": 2,
      "byteOffset": 14789952,
      "componentType": 5126,
      "count": 65532,
      "max": [
        1.0729199647903442,
        1.5199300050735474,
        4.953579902648926
      ],
      "min": [
        -1.3709299564361572,
        -1.1159900426864624,
        2.1043100357055664
      ],
      "type": "VEC3"
    },
    {
      "bufferView": 2,
      "byteOffset": 15576336,
      "componentType": 5126,
      "count": 65532,
      "max": [
        0.9998593926429749,
        0.9997326135635376,
        0.999940812587738
      ],
      "min": [
        -0.9988078474998474,
        -0.9981337189674377,
        -0.9998779892921448
      ],
      "type": "VEC3"
    },
    {
      "bufferView": 1,
      "byteOffset": 4929984,
      "componentType": 5126,
      "count": 65532,
      "max": [
        0.666670024394989,
        1.0
      ],
      "min": [
        0.0,
        0.0
      ],
      "type": "VEC2"
    },
    {
      "bufferView": 0,
      "byteOffset": 3697488,
      "componentType": 5125,
      "count": 98298,
      "type": "SCALAR"
    },
    {
      "bufferView": 2,
      "byteOffset": 16362720,
      "componentType": 5126,
      "count": 32076,
      "max": [
        1.5191199779510498,
        1.659890055656433,
        5.535669803619385
      ],
      "min": [
        -1.4763100147247314,
        -1.4899300336837769,
        4.581429958343506
      ],
      "type": "VEC3"
    },
    {
      "bufferView": 2,
      "byteOffset": 16747632,
      "componentType": 5126,
      "count": 32076,
      "max": [
        0.9999042749404907,
        0.9970502257347107,
        0.9997684359550476
      ],
      "min": [
        -0.9996108412742615,
        -0.9961364269256592,
        -0.9992309808731079
      ],
      "type": "VEC3"
    },
    {
      "bufferView": 1,
      "byteOffset": 5454240,
      "componentType": 5126,
      "count": 32076,
      "max": [
        0.666670024394989,
        1.0
      ],
      "min": [
        0.0,
        0.0
      ],
      "type": "VEC2"
    },
    {
      "bufferView": 0,
      "byteOffset": 4090680,
      "componentType": 5125,
      "count": 48114,
      "type": "SCALAR"
    },
    {
      "bufferView": 2,
      "byteOffset": 17132544,
      "componentType": 5126,
      "count": 65532,
      "max": [
        0.9074400067329407,
        1.2428499460220337,
        8.591910362243652
      ],
      "min": [
        -1.113319993019104,
        -1.403980016708374,
        6.918019771575928
      ],
      "type": "VEC3"
    },
    {
      "bufferView": 2,
      "byteOffset": 17918928,
      "componentType": 5126,
      "count": 65532,
      "max": [
        0.9999291896820068,
        0.9999096393585205,
        0.9991020560264587
      ],
      "min": [
        -0.9999891519546509,
        -0.9999232292175293,
        -0.999973475933075
      ],
      "type": "VEC3"
    },
    {
      "bufferView": 1,
      "byteOffset": 5710848,
      "componentType": 5126,
      "count": 65532,
      "max": [
        0.666670024394989,
        1.0
      ],
      "min": [
        0.0,
        0.0
      ],
      "type": "VEC2"
    },
    {
      "bufferView": 0,
      "byteOffset": 4283136,
      "componentType": 5125,
      "count": 98298,
      "type": "SCALAR"
    },
    {
      "bufferView": 2,
      "byteOffset": 18705312,
      "componentType": 5126,
      "count": 65532,
      "max": [
        1.188439965248108,
        1.3288999795913696,
        7.484799861907959
      ],
      "min": [
        -1.5598299503326416,
        -1.1888999938964844,
        6.448910236358643
      ],
      "type": "VEC3"
    },
    {
      "bufferView": 2,
      "byteOffset": 19491696,
      "componentType": 5126,
      "count": 65532,
      "max": [
        0.9998209476470947,
        0.9989771246910095,
        0.9999752044677734
      ],
      "min": [
        -0.9999709725379944,
        -0.9999349117279053,
        -0.9999416470527649
      ],
      "type": "VEC3"
    },
    {
      "bufferView": 1,
      "byteOffset": 6235104,
      "componentType": 5126,
      "count": 65532,
      "max": [
        0.666670024394989,
        1.0
      ],
      "min": [
        0.0,
        0.0
      ],
      "type": "VEC2"
    },
    {
      "bufferView": 0,
      "byteOffset": 4676328,
      "componentType": 5125,
      "count": 98298,
      "type": "SCALAR"
    },
    {
      "bufferView": 2,
      "byteOffset": 20278080,
      "componentType": 5126,
      "count": 65532,
      "max": [
        1.685670018196106,
        0.9955000281333923,
        7.0028300285339355
      ],
      "min": [
        -1.387910008430481,
        -1.7029600143432617,
        5.54718017578125
      ],
      "type": "VEC3"
    },
    {
      "bufferView": 2,
      "byteOffset": 21064464,
      "componentType": 5126,
      "count": 65532,
      "max": [
        0.9978796243667603,
        0.9999663233757019,
        0.9999749064445496
      ],
      "min": [
        -0.9991753697395325,
        -0.9999262094497681,
        -0.9994112849235535
      ],
      "type": "VEC3"
    },
    {
      "bufferView": 1,
      "byteOffset": 6759360,
      "componentType": 5126,
      "count": 65532,
      "max": [
        0.666670024394989,
        1.0
      ],
      "min": [
        0.0,
        0.0
      ],
      "type": "VEC2"
    },
    {
      "bufferView": 0,
      "byteOffset": 5069520,
      "componentType": 5125,
      "count": 98298,
      "type": "SCALAR"
    },
    {
      "bufferView": 2,
      "byteOffset": 21850848,
      "componentType": 5126,
      "count": 65532,
      "max": [
        1.3558499813079834,
        1.6341899633407593,
        6.467169761657715
      ],
      "min": [
        -1.7183599472045898,
        -1.741919994354248,
        3.6084799766540527
      ],
      "type": "VEC3"
    },
    {
      "bufferView": 2,
      "byteOffset": 22637232,
      "componentType": 5126,
      "count": 65532,
      "max": [
        0.9998244047164917,
        0.9990054965019226,
        0.9996743202209473
      ],
      "min": [
        -0.999963104724884,
        -0.9999808073043823,
        -0.9993253350257874
      ],
      "type": "VEC3"
    },
    {
      "bufferView": 1,
      "byteOffset": 7283616,
      "componentType": 5126,
      "count": 65532,
      "max": [
        0.666670024394989,
        1.0
      ],
      "min": [
        0.0,
        0.0
      ],
      "type": "VEC2"
    },
    {
      "bufferView": 0,
      "byteOffset": 5462712,
      "componentType": 5125,
      "count": 98298,
      "type": "SCALAR"
    },
    {
      "bufferView": 2,
      "byteOffset": 23423616,
      "componentType": 5126,
      "count": 65532,
      "max": [
        1.3727099895477295,
        1.3561999797821045,
        3.95917010307312
      ],
      "min": [
        -1.3884999752044678,
        -1.3535900115966797,
        2.221250057220459
      ],
      "type": "VEC3"
    },
    {
      "bufferView": 2,
      "byteOffset": 24210000,
      "componentType": 5126,
      "count": 65532,
      "max": [
        0.9999910593032837,
        0.998065710067749,
        0.999995231628418
      ],
      "min": [
        -0.9998511672019958,
        -0.9998445510864258,
        -0.9999054670333862
      ],
      "type": "VEC3"
    },
    {
      "bufferView": 1,
      "byteOffset": 7807872,
      "componentType": 5126,
      "count": 65532,
      "max": [
        0.666670024394989,
        1.0
      ],
      "min": [
        0.0,
        0.0
      ],
      "type": "VEC2"
    },
    {
      "bufferView": 0,
      "byteOffset": 5855904,
      "componentType": 5125,
      "count": 98298,
      "type": "SCALAR"
    },
    {
      "bufferView": 2,
      "byteOffset": 24996384,
      "componentType": 5126,
      "count": 65532,
      "max": [
        1.166700005531311,
        1.6879700422286987,
        4.442699909210205
      ],
      "min": [
        -1.3701200485229492,
        -1.050510048866272,
        1.9287099838256836
      ],
      "type": "VEC3"
    },
    {
      "bufferView": 2,
      "byteOffset": 25782768,
      "componentType": 5126,
      "count": 65532,
      "max": [
        0.9999934434890747,
        0.9997471570968628,
        0.9997672438621521
      ],
      "min": [
        -0.9999091625213623,
        -0.9995579719543457,
        -0.9999350309371948
      ],
      "type": "VEC3"
    },
    {
      "bufferView": 1,
      "byteOffset": 8332128,
      "componentType": 5126,
      "count": 65532,
      "max": [
        0.666670024394989,
        1.0
      ],
      "min": [
        0.0,
        0.0
      ],
      "type": "VEC2"
    },
    {
      "bufferView": 0,
      "byteOffset": 6249096,
      "componentType": 5125,
      "count": 98298,
      "type": "SCALAR"
    },
    {
      "bufferView": 2,
      "byteOffset": 26569152,
      "componentType": 5126,
      "count": 65532,
      "max": [
        1.3889700174331665,
        1.8118900060653687,
        5.266660213470459
      ],
      "min": [
        -1.6159000396728516,
        -1.3350900411605835,
        3.7988100051879883
      ],
      "type": "VEC3"
    },
    {
      "bufferView": 2,
      "byteOffset": 27355536,
      "componentType": 5126,
      "count": 65532,
      "max": [
        0.9990482330322266,
        0.9998723864555359,
        0.9999194145202637
      ],
      "min": [
        -0.9998315572738647,
        -0.9989434480667114,
        -0.9998142719268799
      ],
      "type": "VEC3"
    },
    {
      "bufferView": 1,
      "byteOffset": 8856384,
      "componentType": 5126,
      "count": 65532,
      "max": [
        0.666670024394989,
        1.0
      ],
      "min": [
        0.0,
        0.0
      ],
      "type": "VEC2"
    },
    {
      "bufferView": 0,
      "byteOffset": 6642288,
      "componentType": 5125,
      "count": 98298,
      "type": "SCALAR"
    },
    {
      "bufferView": 2,
      "byteOffset": 28141920,
      "componentType": 5126,
      "count": 42108,
      "max": [
        1.7802499532699585,
        2.0463099479675293,
        5.359570026397705
      ],
      "min": [
        -1.3488500118255615,
        -1.8447500467300415,
        4.529489994049072
      ],
      "type": "VEC3"
    },
    {
      "bufferView": 2,
      "byteOffset": 28647216,
      "componentType": 5126,
      "count": 42108,
      "max": [
        0.9999172687530518,
        0.9999571442604065,
        0.9999739527702332
      ],
      "min": [
        -0.9995347857475281,
        -0.9998771548271179,
        -0.9993612170219421
      ],
      "type": "VEC3"
    },
    {
      "bufferView": 1,
      "byteOffset": 9380640,
      "componentType": 5126,
      "count": 42108,
      "max": [
        0.666670024394989,
        1.0
      ],
      "min": [
        0.0,
        0.0
      ],
      "type": "VEC2"
    },
    {
      "bufferView": 0,
      "byteOffset": 7035480,
      "componentType": 5125,
      "count": 63162,
      "type": "SCALAR"
    },
    {
      "bufferView": 2,
      "byteOffset": 29152512,
      "componentType": 5126,
      "count": 65532,
      "max": [
        0.9840599894523621,
        1.3733199834823608,
        8.706350326538086
      ],
      "min": [
        -1.1421600580215454,
        -1.0132999420166016,
        7.155869960784912
      ],
      "type": "VEC3"
    },
    {
      "bufferView": 2,
      "byteOffset": 29938896,
      "componentType": 5126,
      "count": 65532,
      "max": [
        0.9999160766601563,
        0.9999804496765137,
        0.9999099969863892
      ],
      "min": [
        -0.9999451041221619,
        -0.9999260902404785,
        -0.9997206926345825
      ],
      "type": "VEC3"
    },
    {
      "bufferView": 1,
      "byteOffset": 9717504,
      "componentType": 5126,
      "count": 65532,
      "max": [
        0.666670024394989,
        1.0
      ],
      "min": [
        0.0,
        0.0
      ],
      "type": "VEC2"
    },
    {
      "bufferView": 0,
      "byteOffset": 7288128,
      "componentType": 5125,
      "count": 98298,
      "type": "SCALAR"
    },
    {
      "bufferView": 2,
      "byteOffset": 30725280,
      "componentType": 5126,
      "count": 65532,
      "max": [
        0.9761599898338318,
        1.2642699480056763,
        7.796810150146484
      ],
      "min": [
        -1.3027199506759644,
        -1.5075099468231201,
        6.828330039978027
      ],
      "type": "VEC3"
    },
    {
      "bufferView": 2,
      "byteOffset": 31511664,
      "componentType": 5126,
      "count": 65532,
      "max": [
        0.999955952167511,
        0.9999929666519165,
        0.9999852180480957
      ],
      "min": [
        -0.9995522499084473,
        -0.9997977614402771,
        -0.9999922513961792
      ],
      "type": "VEC3"
    },
    {
      "bufferView": 1,
      "byteOffset": 10241760,
      "componentType": 5126,
      "count": 65532,
      "max": [
        0.666670024394989,
        1.0
      ],
      "min": [
        0.0,
        0.0
      ],
      "type": "VEC2"
    },
    {
      "bufferView": 0,
      "byteOffset": 7681320,
      "componentType": 5125,
      "count": 98298,
      "type": "SCALAR"
    },
    {
      "bufferView": 2,
      "byteOffset": 32298048,
      "componentType": 5126,
      "count": 65532,
      "max": [
        1.3323400020599365,
        1.4439500570297241,
        7.381700038909912
      ],
      "min": [
        -1.6647000312805176,
        -1.260450005531311,
        6.419419765472412
      ],
      "type": "VEC3"
    },
    {
      "bufferView": 2,
      "byteOffset": 33084432,
      "componentType": 5126,
      "count": 65532,
      "max": [
        0.9999328851699829,
        0.9999369978904724,
        0.9996153712272644
      ],
      "min": [
        -0.9996033310890198,
        -0.9995911717414856,
        -0.9998837113380432
      ],
      "type": "VEC3"
    },
    {
      "bufferView": 1,
      "byteOffset": 10766016,
      "componentType": 5126,
      "count": 65532,
      "max": [
        0.666670024394989,
        1.0
      ],
      "min": [
        0.0,
        0.0
      ],
      "type": "VEC2"
    },
    {
      "bufferView": 0,
      "byteOffset": 8074512,
      "componentType": 5125,
      "count": 98298,
      "type": "SCALAR"
    },
    {
      "bufferView": 2,
      "byteOffset": 33870816,
      "componentType": 5126,
      "count": 65532,
      "max": [
        1.2406500577926636,
        1.169700026512146,
        7.076129913330078
      ],
      "min": [
        -1.5143400430679321,
        -1.9161499738693237,
        3.9026401042938232
      ],
      "type": "VEC3"
    },
    {
      "bufferView": 2,
      "byteOffset": 34657200,
      "componentType": 5126,
      "count": 65532,
      "max": [
        0.9997629523277283,
        0.999860942363739,
        0.9999995231628418
      ],
      "min": [
        -0.9998467564582825,
        -0.9999885559082031,
        -0.9998221397399902
      ],
      "type": "VEC3"
    },
    {
      "bufferView": 1,
      "byteOffset": 11290272,
      "componentType": 5126,
      "count": 65532,
      "max": [
        0.666670024394989,
        1.0
      ],
      "min": [
        0.0,
        0.0
      ],
      "type": "VEC2"
    },
    {
      "bufferView": 0,
      "byteOffset": 8467704,
      "componentType": 5125,
      "count": 98298,
      "type": "SCALAR"
    },
    {
      "bufferView": 2,
      "byteOffset": 35443584,
      "componentType": 5126,
      "count": 65532,
      "max": [
        1.2364399433135986,
        2.009700059890747,
        4.753129959106445
      ],
      "min": [
        -1.4508399963378906,
        -1.433650016784668,
        3.4161500930786133
      ],
      "type": "VEC3"
    },
    {
      "bufferView": 2,
      "byteOffset": 36229968,
      "componentType": 5126,
      "count": 65532,
      "max": [
        0.9999310970306396,
        0.9998135566711426,
        0.9997245073318481
      ],
      "min": [
        -0.999923825263977,
        -0.9999970197677612,
        -0.9998757243156433
      ],
      "type": "VEC3"
    },
    {
      "bufferView": 1,
      "byteOffset": 11814528,
      "componentType": 5126,
      "count": 65532,
      "max": [
        0.666670024394989,
        1.0
      ],
      "min": [
        0.0,
        0.0
      ],
      "type": "VEC2"
    },
    {
      "bufferView": 0,
      "byteOffset": 8860896,
      "componentType": 5125,
      "count": 98298,
      "type": "SCALAR"
    },
    {
      "bufferView": 2,
      "byteOffset": 37016352,
      "componentType": 5126,
      "count": 65532,
      "max": [
        1.0980199575424194,
        1.4988199472427368,
        4.355189800262451
      ],
      "min": [
        -1.50285005569458,
        -1.4695199728012085,
        2.3308000564575195
      ],
      "type": "VEC3"
    },
    {
      "bufferView": 2,
      "byteOffset": 37802736,
      "componentType": 5126,
      "count": 65532,
      "max": [
        0.9998603463172913,
        0.9994296431541443,
        0.9999479651451111
      ],
      "min": [
        -0.999941885471344,
        -0.9998385906219482,
        -0.9997727274894714
      ],
      "type": "VEC3"
    },
    {
      "bufferView": 1,
      "byteOffset": 12338784,
      "componentType": 5126,
      "count": 65532,
      "max": [
        0.666670024394989,
        1.0
      ],
      "min": [
        0.0,
        0.0
      ],
      "type": "VEC2"
    },
    {
      "bufferView": 0,
      "byteOffset": 9254088,
      "componentType": 5125,
      "count": 98298,
      "type": "SCALAR"
    },
    {
      "bufferView": 2,
      "byteOffset": 38589120,
      "componentType": 5126,
      "count": 65532,
      "max": [
        1.1094900369644165,
        1.4432200193405151,
        3.5810000896453857
      ],
      "min": [
        -1.2444900274276733,
        -1.1868799924850464,
        1.8158799409866333
      ],
      "type": "VEC3"
    },
    {
      "bufferView": 2,
      "byteOffset": 39375504,
      "componentType": 5126,
      "count": 65532,
      "max": [
        0.9999611973762512,
        0.9998043179512024,
        0.999762237071991
      ],
      "min": [
        -0.9998996257781982,
        -0.99985271692276,
        -0.9999229907989502
      ],
      "type": "VEC3"
    },
    {
      "bufferView": 1,
      "byteOffset": 12863040,
      "componentType": 5126,
      "count": 65532,
      "max": [
        0.666670024394989,
        1.0
      ],
      "min": [
        0.0,
        0.0
      ],
      "type": "VEC2"
    },
    {
      "bufferView": 0,
      "byteOffset": 9647280,
      "componentType": 5125,
      "count": 98298,
      "type": "SCALAR"
    },
    {
      "bufferView": 2,
      "byteOffset": 40161888,
      "componentType": 5126,
      "count": 65532,
      "max": [
        1.5423099994659424,
        1.080049991607666,
        5.43435001373291
      ],
      "min": [
        -1.738860011100769,
        -1.3505699634552002,
        3.004689931869507
      ],
      "type": "VEC3"
    },
    {
      "bufferView": 2,
      "byteOffset": 40948272,
      "componentType": 5126,
      "count": 65532,
      "max": [
        0.9999597668647766,
        0.9998903870582581,
        1.0
      ],
      "min": [
        -0.9998524785041809,
        -0.9997398853302002,
        -0.9999771118164063
      ],
      "type": "VEC3"
    },
    {
      "bufferView": 1,
      "byteOffset": 13387296,
      "componentType": 5126,
      "count": 65532,
      "max": [
        0.666670024394989,
        1.0
      ],
      "min": [
        0.0,
        0.0
      ],
      "type": "VEC2"
    },
    {
      "bufferView": 0,
      "byteOffset": 10040472,
      "componentType": 5125,
      "count": 98298,
      "type": "SCALAR"
    },
    {
      "bufferView": 2,
      "byteOffset": 41734656,
      "componentType": 5126,
      "count": 65532,
      "max": [
        0.25321999192237854,
        2.250849962234497,
        5.426300048828125
      ],
      "min": [
        -1.4931600093841553,
        -2.0631000995635986,
        4.263420104980469
      ],
      "type": "VEC3"
    },
    {
      "bufferView": 2,
      "byteOffset": 42521040,
      "componentType": 5126,
      "count": 65532,
      "max": [
        0.9999485611915588,
        0.9980888366699219,
        0.9997979998588562
      ],
      "min": [
        -0.9995253682136536,
        -0.9989205002784729,
        -0.9999833106994629
      ],
      "type": "VEC3"
    },
    {
      "bufferView": 1,
      "byteOffset": 13911552,
      "componentType": 5126,
      "count": 65532,
      "max": [
        0.666670024394989,
        1.0
      ],
      "min": [
        0.0,
        0.0
      ],
      "type": "VEC2"
    },
    {
      "bufferView": 0,
      "byteOffset": 10433664,
      "componentType": 5125,
      "count": 98298,
      "type": "SCALAR"
    },
    {
      "bufferView": 2,
      "byteOffset": 43307424,
      "componentType": 5126,
      "count": 65532,
      "max": [
        1.9360500574111938,
        1.7399699687957764,
        5.82427978515625
      ],
      "min": [
        -1.8532999753952026,
        -1.8740500211715698,
        4.444910049438477
      ],
      "type": "VEC3"
    },
    {
      "bufferView": 2,
      "byteOffset": 44093808,
      "componentType": 5126,
      "count": 65532,
      "max": [
        0.9983896613121033,
        0.9997175931930542,
        0.9999953508377075
      ],
      "min": [
        -0.9999366402626038,
        -0.999821662902832,
        -0.9999969005584717
      ],
      "type": "VEC3"
    },
    {
      "bufferView": 1,
      "byteOffset": 14435808,
      "componentType": 5126,
      "count": 65532,
      "max": [
        0.666670024394989,
        1.0
      ],
      "min": [
        0.0,
        0.0
      ],
      "type": "VEC2"
    },
    {
      "bufferView": 0,
      "byteOffset": 10826856,
      "componentType": 5125,
      "count": 98298,
      "type": "SCALAR"
    },
    {
      "bufferView": 2,
      "byteOffset": 44880192,
      "componentType": 5126,
      "count": 65532,
      "max": [
        1.4797199964523315,
        1.5731300115585327,
        6.65093994140625
      ],
      "min": [
        -1.8157999515533447,
        -1.4482200145721436,
        5.1219000816345215
      ],
      "type": "VEC3"
    },
    {
      "bufferView": 2,
      "byteOffset": 45666576,
      "componentType": 5126,
      "count": 65532,
      "max": [
        0.9999971389770508,
        0.9999334812164307,
        0.9998208284378052
      ],
      "min": [
        -0.9997126460075378,
        -0.9997827410697937,
        -0.9999487996101379
      ],
      "type": "VEC3"
    },
    {
      "bufferView": 1,
      "byteOffset": 14960064,
      "componentType": 5126,
      "count": 65532,
      "max": [
        0.666670024394989,
        1.0
      ],
      "min": [
        0.0,
        0.0
      ],
      "type": "VEC2"
    },
    {
      "bufferView": 0,
      "byteOffset": 11220048,
      "componentType": 5125,
      "count": 98298,
      "type": "SCALAR"
    },
    {
      "bufferView": 2,
      "byteOffset": 46452960,
      "componentType": 5126,
      "count": 35724,
      "max": [
        1.8331700563430786,
        0.7590000033378601,
        6.790510177612305
      ],
      "min": [
        -1.4566099643707275,
        0.14967000484466553,
        5.421520233154297
      ],
      "type": "VEC3"
    },
    {
      "bufferView": 2,
      "byteOffset": 46881648,
      "componentType": 5126,
      "count": 35724,
      "max": [
        0.9993324875831604,
        0.9995951056480408,
        0.9998851418495178
      ],
      "min": [
        -0.9996507167816162,
        -0.9996898770332336,
        -0.9999914169311523
      ],
      "type": "VEC3"
    },
    {
      "bufferView": 1,
      "byteOffset": 15484320,
      "componentType": 5126,
      "count": 35724,
      "max": [
        0.666670024394989,
        1.0
      ],
      "min": [
        0.0,
        0.0
      ],
      "type": "VEC2"
    },
    {
      "bufferView": 0,
      "byteOffset": 11613240,
      "componentType": 5125,
      "count": 53586,
      "type": "SCALAR"
    },
    {
      "bufferView": 2,
      "byteOffset": 47310336,
      "componentType": 5126,
      "count": 65532,
      "max": [
        2.2299699783325195,
        2.0321500301361084,
        8.960650444030762
      ],
      "min": [
        -1.941480040550232,
        -2.2823901176452637,
        4.668580055236816
      ],
      "type": "VEC3"
    },
    {
      "bufferView": 2,
      "byteOffset": 48096720,
      "componentType": 5126,
      "count": 65532,
      "max": [
        0.9987516403198242,
        0.9968145489692688,
        0.9999260902404785
      ],
      "min": [
        -0.9955325126647949,
        -0.9997572302818298,
        -0.030600011348724365
      ],
      "type": "VEC3"
    },
    {
      "bufferView": 1,
      "byteOffset": 15770112,
      "componentType": 5126,
      "count": 65532,
      "max": [
        1.0,
        1.0
      ],
      "min": [
        0.0,
        0.0
      ],
      "type": "VEC2"
    },
    {
      "bufferView": 0,
      "byteOffset": 11827584,
      "componentType": 5125,
      "count": 65532,
      "type": "SCALAR"
    },
    {
      "bufferView": 2,
      "byteOffset": 48883104,
      "componentType": 5126,
      "count": 50685,
      "max": [
        2.282900094985962,
        1.9519000053405762,
        7.995339870452881
      ],
      "min": [
        -2.042020082473755,
        -1.955970048904419,
        5.470049858093262
      ],
      "type": "VEC3"
    },
    {
      "bufferView": 2,
      "byteOffset": 49491324,
      "componentType": 5126,
      "count": 50685,
      "max": [
        0.998334527015686,
        0.9992791414260864,
        0.9998916983604431
      ],
      "min": [
        -0.9949716925621033,
        -0.9996970295906067,
        -0.030600134283304214
      ],
      "type": "VEC3"
    },
    {
      "bufferView": 1,
      "byteOffset": 16294368,
      "componentType": 5126,
      "count": 50685,
      "max": [
        1.0,
        1.0
      ],
      "min": [
        0.0,
        0.0
      ],
      "type": "VEC2"
    },
    {
      "bufferView": 0,
      "byteOffset": 12089712,
      "componentType": 5125,
      "count": 50685,
      "type": "SCALAR"
    },
    {
      "bufferView": 2,
      "byteOffset": 50099544,
      "componentType": 5126,
      "count": 65532,
      "max": [
        2.360680103302002,
        2.6803600788116455,
        6.644909858703613
      ],
      "min": [
        -2.2276499271392822,
        -2.515739917755127,
        3.8378100395202637
      ],
      "type": "VEC3"
    },
    {
      "bufferView": 2,
      "byteOffset": 50885928,
      "componentType": 5126,
      "count": 65532,
      "max": [
        0.9998433589935303,
        0.9987977147102356,
        0.9999546408653259
      ],
      "min": [
        -0.9979276061058044,
        -0.999489426612854,
        -0.03060009516775608
      ],
      "type": "VEC3"
    },
    {
      "bufferView": 1,
      "byteOffset": 16699848,
      "componentType": 5126,
      "count": 65532,
      "max": [
        0.92044997215271,
        0.8990600109100342
      ],
      "min": [
        0.04774999991059303,
        0.16572000086307526
      ],
      "type": "VEC2"
    },
    {
      "bufferView": 0,
      "byteOffset": 12292452,
      "componentType": 5125,
      "count": 65532,
      "type": "SCALAR"
    },
    {
      "bufferView": 2,
      "byteOffset": 51672312,
      "componentType": 5126,
      "count": 65532,
      "max": [
        1.995169997215271,
        1.867609977722168,
        5.3421101570129395
      ],
      "min": [
        -1.9745299816131592,
        -1.868939995765686,
        1.446619987487793
      ],
      "type": "VEC3"
    },
    {
      "bufferView": 2,
      "byteOffset": 52458696,
      "componentType": 5126,
      "count": 65532,
      "max": [
        0.9994997382164001,
        0.9995140433311462,
        0.9999266862869263
      ],
      "min": [
        -0.9981061816215515,
        -0.9999839067459106,
        -0.0306001678109169
      ],
      "type": "VEC3"
    },
    {
      "bufferView": 1,
      "byteOffset": 17224104,
      "componentType": 5126,
      "count": 65532,
      "max": [
        0.92044997215271,
        0.8990600109100342
      ],
      "min": [
        0.04774999991059303,
        0.16572000086307526
      ],
      "type": "VEC2"
    },
    {
      "bufferView": 0,
      "byteOffset": 12554580,
      "componentType": 5125,
      "count": 65532,
      "type": "SCALAR"
    },
    {
      "bufferView": 2,
      "byteOffset": 53245080,
      "componentType": 5126,
      "count": 32769,
      "max": [
        1.6985599994659424,
        2.4341399669647217,
        4.927720069885254
      ],
      "min": [
        -1.7897599935531616,
        -1.8563899993896484,
        2.9689300060272217
      ],
      "type": "VEC3"
    },
    {
      "bufferView": 2,
      "byteOffset": 53638308,
      "componentType": 5126,
      "count": 32769,
      "max": [
        0.998497724533081,
        0.9995383024215698,
        0.9998900294303894
      ],
      "min": [
        -0.99517822265625,
        -0.9999591708183289,
        -0.03060012497007847
      ],
      "type": "VEC3"
    },
    {
      "bufferView": 1,
      "byteOffset": 17748360,
      "componentType": 5126,
      "count": 32769,
      "max": [
        0.92044997215271,
        0.8990600109100342
      ],
      "min": [
        0.04774999991059303,
        0.16572000086307526
      ],
      "type": "VEC2"
    },
    {
      "bufferView": 0,
      "byteOffset": 12816708,
      "componentType": 5125,
      "count": 32769,
      "type": "SCALAR"
    },
    {
      "bufferView": 2,
      "byteOffset": 54031536,
      "componentType": 5126,
      "count": 65532,
      "max": [
        1.2563400268554688,
        1.5628000497817993,
        8.95005989074707
      ],
      "min": [
        -1.671489953994751,
        -1.3743300437927246,
        6.880129814147949
      ],
      "type": "VEC3"
    },
    {
      "bufferView": 2,
      "byteOffset": 54817920,
      "componentType": 5126,
      "count": 65532,
      "max": [
        0.9965016841888428,
        0.9999978542327881,
        0.9999991655349731
      ],
      "min": [
        -0.9997729659080505,
        -0.9992091655731201,
        -0.9999509453773499
      ],
      "type": "VEC3"
    },
    {
      "bufferView": 1,
      "byteOffset": 18010512,
      "componentType": 5126,
      "count": 65532,
      "max": [
        0.666670024394989,
        1.0
      ],
      "min": [
        0.0,
        0.0
      ],
      "type": "VEC2"
    },
    {
      "bufferView": 0,
      "byteOffset": 12947784,
      "componentType": 5125,
      "count": 65910,
      "type": "SCALAR"
    },
    {
      "bufferView": 2,
      "byteOffset": 55604304,
      "componentType": 5126,
      "count": 65534,
      "max": [
        1.3529399633407593,
        1.594249963760376,
        8.014100074768066
      ],
      "min": [
        -1.474269986152649,
        -1.7984700202941895,
        6.60329008102417
      ],
      "type": "VEC3"
    },
    {
      "bufferView": 2,
      "byteOffset": 56390712,
      "componentType": 5126,
      "count": 65534,
      "max": [
        0.9996551275253296,
        0.9995002150535583,
        0.9999091625213623
      ],
      "min": [
        -0.9993589520454407,
        -0.9976155757904053,
        -0.9999949932098389
      ],
      "type": "VEC3"
    },
    {
      "bufferView": 1,
      "byteOffset": 18534768,
      "componentType": 5126,
      "count": 65534,
      "max": [
        0.666670024394989,
        1.0
      ],
      "min": [
        0.0,
        0.0
      ],
      "type": "VEC2"
    },
    {
      "bufferView": 0,
      "byteOffset": 13211424,
      "componentType": 5125,
      "count": 65922,
      "type": "SCALAR"
    },
    {
      "bufferView": 2,
      "byteOffset": 57177120,
      "componentType": 5126,
      "count": 12533,
      "max": [
        0.33737999200820923,
        1.7030099630355835,
        8.496870040893555
      ],
      "min": [
        -1.1698600053787231,
        -1.0375900268554688,
        6.912829875946045
      ],
      "type": "VEC3"
    },
    {
      "bufferView": 2,
      "byteOffset": 57327516,
      "componentType": 5126,
      "count": 12533,
      "max": [
        0.9883435368537903,
        0.9996687173843384,
        0.9994680881500244
      ],
      "min": [
        -0.9952608346939087,
        -0.9948205947875977,
        -0.999973475933075
      ],
      "type": "VEC3"
    },
    {
      "bufferView": 1,
      "byteOffset": 19059040,
      "componentType": 5126,
      "count": 12533,
      "max": [
        0.666670024394989,
        1.0
      ],
      "min": [
        0.0,
        0.0
      ],
      "type": "VEC2"
    },
    {
      "bufferView": 0,
      "byteOffset": 13475112,
      "componentType": 5125,
      "count": 12609,
      "type": "SCALAR"
    },
    {
      "bufferView": 2,
      "byteOffset": 57477912,
      "componentType": 5126,
      "count": 65533,
      "max": [
        2.1270699501037598,
        1.3928899765014648,
        7.472539901733398
      ],
      "min": [
        -1.815459966659546,
        -1.7934099435806274,
        5.2091898918151855
      ],
      "type": "VEC3"
    },
    {
      "bufferView": 2,
      "byteOffset": 58264308,
      "componentType": 5126,
      "count": 65533,
      "max": [
        0.9995684623718262,
        0.9987884759902954,
        0.9999606013298035
      ],
      "min": [
        -0.9994951486587524,
        -0.9990512132644653,
        -0.9998064041137695
      ],
      "type": "VEC3"
    },
    {
      "bufferView": 1,
      "byteOffset": 19159304,
      "componentType": 5126,
      "count": 65533,
      "max": [
        0.666670024394989,
        1.0
      ],
      "min": [
        0.0,
        0.0
      ],
      "type": "VEC2"
    },
    {
      "bufferView": 0,
      "byteOffset": 13525548,
      "componentType": 5125,
      "count": 65913,
      "type": "SCALAR"
    },
    {
      "bufferView": 2,
      "byteOffset": 59050704,
      "componentType": 5126,
      "count": 65534,
      "max": [
        1.543969988822937,
        1.8785899877548218,
        7.076399803161621
      ],
      "min": [
        -1.721619963645935,
        -2.1656999588012695,
        4.773349761962891
      ],
      "type": "VEC3"
    },
    {
      "bufferView": 2,
      "byteOffset": 59837112,
      "componentType": 5126,
      "count": 65534,
      "max": [
        0.9999510645866394,
        0.9981920123100281,
        0.9999350905418396
      ],
      "min": [
        -0.9991986751556396,
        -0.9995759725570679,
        -0.9999271631240845
      ],
      "type": "VEC3"
    },
    {
      "bufferView": 1,
      "byteOffset": 19683568,
      "componentType": 5126,
      "count": 65534,
      "max": [
        0.666670024394989,
        1.0
      ],
      "min": [
        0.0,
        0.0
      ],
      "type": "VEC2"
    },
    {
      "bufferView": 0,
      "byteOffset": 13789200,
      "componentType": 5125,
      "count": 65976,
      "type": "SCALAR"
    },
    {
      "bufferView": 2,
      "byteOffset": 60623520,
      "componentType": 5126,
      "count": 64272,
      "max": [
        1.5428199768066406,
        1.8284599781036377,
        7.37923002243042
      ],
      "min": [
        -1.924839973449707,
        -1.6469199657440186,
        6.162539958953857
      ],
      "type": "VEC3"
    },
    {
      "bufferView": 2,
      "byteOffset": 61394784,
      "componentType": 5126,
      "count": 64272,
      "max": [
        0.9994270205497742,
        0.999413788318634,
        0.999984860420227
      ],
      "min": [
        -0.999886691570282,
        -0.9986212849617004,
        -0.999847948551178
      ],
      "type": "VEC3"
    },
    {
      "bufferView": 1,
      "byteOffset": 20207840,
      "componentType": 5126,
      "count": 64272,
      "max": [
        0.666670024394989,
        1.0
      ],
      "min": [
        0.0,
        0.0
      ],
      "type": "VEC2"
    },
    {
      "bufferView": 0,
      "byteOffset": 14053104,
      "componentType": 5125,
      "count": 64698,
      "type": "SCALAR"
    },
    {
      "bufferView": 2,
      "byteOffset": 62166048,
      "componentType": 5126,
      "count": 65532,
      "max": [
        1.887220025062561,
        2.0977001190185547,
        5.898029804229736
      ],
      "min": [
        -2.1045401096343994,
        -1.7108800411224365,
        3.473599910736084
      ],
      "type": "VEC3"
    },
    {
      "bufferView": 2,
      "byteOffset": 62952432,
      "componentType": 5126,
      "count": 65532,
      "max": [
        0.9990056157112122,
        0.9987953305244446,
        0.9999650120735168
      ],
      "min": [
        -0.9998338222503662,
        -0.9996829628944397,
        -0.9999926090240479
      ],
      "type": "VEC3"
    },
    {
      "bufferView": 1,
      "byteOffset": 20722016,
      "componentType": 5126,
      "count": 65532,
      "max": [
        0.666670024394989,
        1.0
      ],
      "min": [
        0.0,
        0.0
      ],
      "type": "VEC2"
    },
    {
      "bufferView": 0,
      "byteOffset": 14311896,
      "componentType": 5125,
      "count": 65910,
      "type": "SCALAR"
    },
    {
      "bufferView": 2,
      "byteOffset": 63738816,
      "componentType": 5126,
      "count": 65533,
      "max": [
        1.4521199464797974,
        2.582360029220581,
        5.711050033569336
      ],
      "min": [
        -1.8089200258255005,
        -1.7428300380706787,
        3.065579891204834
      ],
      "type": "VEC3"
    },
    {
      "bufferView": 2,
      "byteOffset": 64525212,
      "componentType": 5126,
      "count": 65533,
      "max": [
        0.9997697472572327,
        0.9990260601043701,
        0.9998207092285156
      ],
      "min": [
        -0.999657392501831,
        -0.9999577403068542,
        -0.9999399781227112
      ],
      "type": "VEC3"
    },
    {
      "bufferView": 1,
      "byteOffset": 21246272,
      "componentType": 5126,
      "count": 65533,
      "max": [
        0.666670024394989,
        1.0
      ],
      "min": [
        0.0,
        0.0
      ],
      "type": "VEC2"
    },
    {
      "bufferView": 0,
      "byteOffset": 14575536,
      "componentType": 5125,
      "count": 65925,
      "type": "SCALAR"
    },
    {
      "bufferView": 2,
      "byteOffset": 65311608,
      "componentType": 5126,
      "count": 64408,
      "max": [
        2.210059881210327,
        2.0000500679016113,
        6.005819797515869
      ],
      "min": [
        -1.9609899520874023,
        -2.4059700965881348,
        4.09699010848999
      ],
      "type": "VEC3"
    },
    {
      "bufferView": 2,
      "byteOffset": 66084504,
      "componentType": 5126,
      "count": 64408,
      "max": [
        0.9994953274726868,
        0.9994984269142151,
        0.9995983242988586
      ],
      "min": [
        -0.9998277425765991,
        -0.9989278316497803,
        -0.9999021291732788
      ],
      "type": "VEC3"
    },
    {
      "bufferView": 1,
      "byteOffset": 21770536,
      "componentType": 5126,
      "count": 64408,
      "max": [
        0.666670024394989,
        1.0
      ],
      "min": [
        0.0,
        0.0
      ],
      "type": "VEC2"
    },
    {
      "bufferView": 0,
      "byteOffset": 14839236,
      "componentType": 5125,
      "count": 64752,
      "type": "SCALAR"
    },
    {
      "bufferView": 2,
      "byteOffset": 66857400,
      "componentType": 5126,
      "count": 65533,
      "max": [
        1.5980199575424194,
        1.723080039024353,
        4.6275200843811035
      ],
      "min": [
        -1.8679499626159668,
        -1.5270500183105469,
        1.8825199604034424
      ],
      "type": "VEC3"
    },
    {
      "bufferView": 2,
      "byteOffset": 67643796,
      "componentType": 5126,
      "count": 65533,
      "max": [
        0.9997958540916443,
        0.9992493987083435,
        0.9999991655349731
      ],
      "min": [
        -0.9996496438980103,
        -0.9979736804962158,
        -0.9994177222251892
      ],
      "type": "VEC3"
    },
    {
      "bufferView": 1,
      "byteOffset": 22285800,
      "componentType": 5126,
      "count": 65533,
      "max": [
        0.666670024394989,
        1.0
      ],
      "min": [
        0.0,
        0.0
      ],
      "type": "VEC2"
    },
    {
      "bufferView": 0,
      "byteOffset": 15098244,
      "componentType": 5125,
      "count": 66123,
      "type": "SCALAR"
    },
    {
      "bufferView": 2,
      "byteOffset": 68430192,
      "componentType": 5126,
      "count": 65534,
      "max": [
        1.8812600374221802,
        1.6807600259780884,
        4.0996599197387695
      ],
      "min": [
        -1.5642600059509277,
        -1.6010799407958984,
        1.5510900020599365
      ],
      "type": "VEC3"
    },
    {
      "bufferView": 2,
      "byteOffset": 69216600,
      "componentType": 5126,
      "count": 65534,
      "max": [
        0.9986028671264648,
        0.9991133213043213,
        0.9997395277023315
      ],
      "min": [
        -0.9979380965232849,
        -0.9990255832672119,
        -0.9999340772628784
      ],
      "type": "VEC3"
    },
    {
      "bufferView": 1,
      "byteOffset": 22810064,
      "componentType": 5126,
      "count": 65534,
      "max": [
        0.666670024394989,
        1.0
      ],
      "min": [
        0.0,
        0.0
      ],
      "type": "VEC2"
    },
    {
      "bufferView": 0,
      "byteOffset": 15362736,
      "componentType": 5125,
      "count": 66132,
      "type": "SCALAR"
    },
    {
      "bufferView": 2,
      "byteOffset": 70003008,
      "componentType": 5126,
      "count": 63828,
      "max": [
        1.426609992980957,
        1.827340006828308,
        4.601280212402344
      ],
      "min": [
        -1.7763899564743042,
        -1.7091100215911865,
        3.0057599544525146
      ],
      "type": "VEC3"
    },
    {
      "bufferView": 2,
      "byteOffset": 70768944,
      "componentType": 5126,
      "count": 63828,
      "max": [
        0.9982982277870178,
        0.9992231130599976,
        0.9999350905418396
      ],
      "min": [
        -0.9992964267730713,
        -0.9995899796485901,
        -0.9999433159828186
      ],
      "type": "VEC3"
    },
    {
      "bufferView": 1,
      "byteOffset": 23334336,
      "componentType": 5126,
      "count": 63828,
      "max": [
        0.666670024394989,
        1.0
      ],
      "min": [
        0.0,
        0.0
      ],
      "type": "VEC2"
    },
    {
      "bufferView": 0,
      "byteOffset": 15627264,
      "componentType": 5125,
      "count": 64332,
      "type": "SCALAR"
    },
    {
      "bufferView": 2,
      "byteOffset": 71534880,
      "componentType": 5126,
      "count": 65532,
      "max": [
        1.4800000190734863,
        1.7157200574874878,
        8.911919593811035
      ],
      "min": [
        -1.8388400077819824,
        -2.092989921569824,
        5.917069911956787
      ],
      "type": "VEC3"
    },
    {
      "bufferView": 2,
      "byteOffset": 72321264,
      "componentType": 5126,
      "count": 65532,
      "max": [
        0.9988095164299011,
        0.9958690404891968,
        0.9998828768730164
      ],
      "min": [
        -0.9999958276748657,
        -0.9983961582183838,
        -0.9999681115150452
      ],
      "type": "VEC3"
    },
    {
      "bufferView": 1,
      "byteOffset": 23844960,
      "componentType": 5126,
      "count": 65532,
      "max": [
        0.666670024394989,
        1.0
      ],
      "min": [
        0.0,
        -0.09836000204086304
      ],
      "type": "VEC2"
    },
    {
      "bufferView": 0,
      "byteOffset": 15884592,
      "componentType": 5125,
      "count": 66390,
      "type": "SCALAR"
    },
    {
      "bufferView": 2,
      "byteOffset": 73107648,
      "componentType": 5126,
      "count": 34177,
      "max": [
        1.149999976158142,
        1.612130045890808,
        8.517419815063477
      ],
      "min": [
        -1.561959981918335,
        -1.712030053138733,
        6.6757001876831055
      ],
      "type": "VEC3"
    },
    {
      "bufferView": 2,
      "byteOffset": 73517772,
      "componentType": 5126,
      "count": 34177,
      "max": [
        0.9974454641342163,
        0.9990071654319763,
        0.9997386932373047
      ],
      "min": [
        -0.9999988079071045,
        -0.9992039203643799,
        -0.999764621257782
      ],
      "type": "VEC3"
    },
    {
      "bufferView": 1,
      "byteOffset": 24369216,
      "componentType": 5126,
      "count": 34177,
      "max": [
        0.666670024394989,
        1.0
      ],
      "min": [
        0.0,
        -0.09751000255346298
      ],
      "type": "VEC2"
    },
    {
      "bufferView": 0,
      "byteOffset": 16150152,
      "componentType": 5125,
      "count": 34635,
      "type": "SCALAR"
    },
    {
      "bufferView": 2,
      "byteOffset": 73927896,
      "componentType": 5126,
      "count": 65533,
      "max": [
        2.0622899532318115,
        2.245460033416748,
        6.926650047302246
      ],
      "min": [
        -1.7731499671936035,
        -1.6457500457763672,
        2.0045199394226074
      ],
      "type": "VEC3"
    },
    {
      "bufferView": 2,
      "byteOffset": 74714292,
      "componentType": 5126,
      "count": 65533,
      "max": [
        0.9989587068557739,
        0.9998031258583069,
        0.9986171126365662
      ],
      "min": [
        -0.9999978542327881,
        -0.9980813264846802,
        -0.9998680949211121
      ],
      "type": "VEC3"
    },
    {
      "bufferView": 1,
      "byteOffset": 24642632,
      "componentType": 5126,
      "count": 65533,
      "max": [
        0.666670024394989,
        1.0
      ],
      "min": [
        0.0,
        -0.09884999692440033
      ],
      "type": "VEC2"
    },
    {
      "bufferView": 0,
      "byteOffset": 16288692,
      "componentType": 5125,
      "count": 66546,
      "type": "SCALAR"
    },
    {
      "bufferView": 2,
      "byteOffset": 75500688,
      "componentType": 5126,
      "count": 65534,
      "max": [
        1.8029799461364746,
        2.205319881439209,
        5.646599769592285
      ],
      "min": [
        -2.004430055618286,
        -1.6661200523376465,
        1.64506995677948
      ],
      "type": "VEC3"
    },
    {
      "bufferView": 2,
      "byteOffset": 76287096,
      "componentType": 5126,
      "count": 65534,
      "max": [
        0.9978535771369934,
        0.9982413053512573,
        0.9999346733093262
      ],
      "min": [
        -0.999975323677063,
        -0.999756395816803,
        -0.9997933506965637
      ],
      "type": "VEC3"
    },
    {
      "bufferView": 1,
      "byteOffset": 25166896,
      "componentType": 5126,
      "count": 65534,
      "max": [
        0.666670024394989,
        1.0
      ],
      "min": [
        0.0,
        -0.09989000111818314
      ],
      "type": "VEC2"
    },
    {
      "bufferView": 0,
      "byteOffset": 16554876,
      "componentType": 5125,
      "count": 66612,
      "type": "SCALAR"
    },
    {
      "bufferView": 2,
      "byteOffset": 77073504,
      "componentType": 5126,
      "count": 62603,
      "max": [
        2.121659994125366,
        2.502340078353882,
        6.819149971008301
      ],
      "min": [
        -2.0128300189971924,
        -2.3118200302124023,
        4.181690216064453
      ],
      "type": "VEC3"
    },
    {
      "bufferView": 2,
      "byteOffset": 77824740,
      "componentType": 5126,
      "count": 62603,
      "max": [
        0.9995887875556946,
        0.9991239309310913,
        0.9999054670333862
      ],
      "min": [
        -0.9999970197677612,
        -0.9970603585243225,
        -0.9996703863143921
      ],
      "type": "VEC3"
    },
    {
      "bufferView": 1,
      "byteOffset": 25691168,
      "componentType": 5126,
      "count": 62603,
      "max": [
        0.666670024394989,
        1.0
      ],
      "min": [
        0.0,
        -0.09976000338792801
      ],
      "type": "VEC2"
    },
    {
      "bufferView": 0,
      "byteOffset": 16821324,
      "componentType": 5125,
      "count": 63429,
      "type": "SCALAR"
    }
  ],
  "asset": {
    "extras": {
      "author": "javherre (https://sketchfab.com/javherre)",
      "license": "CC-BY-4.0 (http://creativecommons.org/licenses/by/4.0/)",
      "source": "https://sketchfab.com/3d-models/platanus-acerifolia-4b2e67ffce3c4b9cbd438a9c709eb635",
      "title": "Platanus acerifolia"
    },
    "generator": "Sketchfab-14.35.0",
    "version": "2.0"
  },
  "bufferViews": [
    {
      "buffer": 0,
      "byteLength": 17075040,
      "name": "floatBufferViews",
      "target": 34963
    },
    {
      "buffer": 0,
      "byteLength": 26191992,
      "byteOffset": 17075040,
      "byteStride": 8,
      "name": "floatBufferViews",
      "target": 34962
    },
    {
      "buffer": 0,
      "byteLength": 78575976,
      "byteOffset": 43267032,
      "byteStride": 12,
      "name": "floatBufferViews",
      "target": 34962
    }
  ],
  "buffers": [
    {
      "byteLength": 121843008,
      "uri": "scene.bin"
    }
  ],
  "extensionsRequired": [
    "KHR_materials_pbrSpecularGlossiness"
  ],
  "extensionsUsed": [
    "KHR_materials_pbrSpecularGlossiness"
  ],
  "images": [
    {
      "uri": "textures/Trunk_diffuse.jpeg"
    },
    {
      "uri": "textures/Leaf1_diffuse.png"
    }
  ],
  "materials": [
    {
      "doubleSided": true,
      "extensions": {
        "KHR_materials_pbrSpecularGlossiness": {
          "diffuseFactor": [
            1.0,
            1.0,
            1.0,
            1.0
          ],
          "diffuseTexture": {
            "index": 0
          },
          "glossinessFactor": 1.0,
          "specularFactor": [
            0.8741016688625401,
            0.005611743962487902,
            0.005611743962487902
          ]
        }
      },
      "name": "Trunk"
    },
    {
      "doubleSided": true,
      "extensions": {
        "KHR_materials_pbrSpecularGlossiness": {
          "diffuseFactor": [
            1.0,
            1.0,
            1.0,
            1.0
          ],
          "diffuseTexture": {
            "index": 0
          },
          "glossinessFactor": 0.4,
          "specularFactor": [
            0.05,
            0.05,
            0.05
          ]
        }
      },
      "name": "Branch2"
    },
    {
      "doubleSided": true,
      "extensions": {
        "KHR_materials_pbrSpecularGlossiness": {
          "diffuseFactor": [
            1.0,
            1.0,
            1.0,
            1.0
          ],
          "diffuseTexture": {
            "index": 0
          },
          "glossinessFactor": 0.4,
          "specularFactor": [
            0.05,
            0.05,
            0.05
          ]
        }
      },
      "name": "Branch3"
    },
    {
      "doubleSided": true,
      "extensions": {
        "KHR_materials_pbrSpecularGlossiness": {
          "diffuseFactor": [
            0.6663490853658537,
            0.6663490853658537,
            0.6663490853658537,
            1.0
          ],
          "diffuseTexture": {
            "index": 1
          },
          "glossinessFactor": 1.0,
          "specularFactor": [
            0.6738693362155624,
            0.0009498143281360489,
            0.0009498143281360489
          ]
        }
      },
      "name": "Leaf1"
    },
    {
      "doubleSided": true,
      "extensions": {
        "KHR_materials_pbrSpecularGlossiness": {
          "diffuseFactor": [
            1.0,
            1.0,
            1.0,
            1.0
          ],
          "diffuseTexture": {
            "index": 0
          },
          "glossinessFactor": 0.4,
          "specularFactor": [
            0.05,
            0.05,
            0.05
          ]
        }
      },
      "name": "Stem1"
    },
    {
      "doubleSided": true,
      "extensions": {
        "KHR_materials_pbrSpecularGlossiness": {
          "diffuseFactor": [
            1.0,
            1.0,
            1.0,
            1.0
          ],
          "diffuseTexture": {
            "index": 0
          },
          "glossinessFactor": 0.4,
          "specularFactor": [
            0.05,
            0.05,
            0.05
          ]
        }
      },
      "name": "Twig"
    }
  ],
  "meshes": [
    {
      "name": "OnyxTREE0_0",
      "primitives": [
        {
          "attributes": {
            "NORMAL": 1,
            "POSITION": 0,
            "TEXCOORD_0": 2
          },
          "indices": 3,
          "material": 0,
          "mode": 4
        }
      ]
    },
    {
      "name": "OnyxTREE0_0",
      "primitives": [
        {
          "attributes": {
            "NORMAL": 5,
            "POSITION": 4,
            "TEXCOORD_0": 6
          },
          "indices": 7,
          "material": 0,
          "mode": 4
        }
      ]
    },
    {
      "name": "OnyxTREE0_0",
      "primitives": [
        {
          "attributes": {
            "NORMAL": 9,
            "POSITION": 8,
            "TEXCOORD_0": 10
          },
          "indices": 11,
          "material": 0,
          "mode": 4
        }
      ]
    },
    {
      "name": "OnyxTREE0_0",
      "primitives": [
        {
          "attributes": {
            "NORMAL": 13,
            "POSITION": 12,
            "TEXCOORD_0": 14
          },
          "indices": 15,
          "material": 0,
          "mode": 4
        }
      ]
    },
    {
      "name": "OnyxTREE0_0",
      "primitives": [
        {
          "attributes": {
            "NORMAL": 17,
            "POSITION": 16,
            "TEXCOORD_0": 18
          },
          "indices": 19,
          "material": 0,
          "mode": 4
        }
      ]
    },
    {
      "name": "OnyxTREE0_1",
      "primitives": [
        {
          "attributes": {
            "NORMAL": 21,
            "POSITION": 20,
            "TEXCOORD_0": 22
          },
          "indices": 23,
          "material": 0,
          "mode": 4
        }
      ]
    },
    {
      "name": "OnyxTREE0_1",
      "primitives": [
        {
          "attributes": {
            "NORMAL": 25,
            "POSITION": 24,
            "TEXCOORD_0": 26
          },
          "indices": 27,
          "material": 0,
          "mode": 4
        }
      ]
    },
    {
      "name": "OnyxTREE0_1",
      "primitives": [
        {
          "attributes": {
            "NORMAL": 29,
            "POSITION": 28,
            "TEXCOORD_0": 30
          },
          "indices": 31,
          "material": 0,
          "mode": 4
        }
      ]
    },
    {
      "name": "OnyxTREE0_2",
      "primitives": [
        {
          "attributes": {
            "NORMAL": 33,
            "POSITION": 32,
            "TEXCOORD_0": 34
          },
          "indices": 35,
          "material": 0,
          "mode": 4
        }
      ]
    },
    {
      "name": "OnyxTREE0_2",
      "primitives": [
        {
          "attributes": {
            "NORMAL": 37,
            "POSITION": 36,
            "TEXCOORD_0": 38
          },
          "indices": 39,
          "material": 0,
          "mode": 4
        }
      ]
    },
    {
      "name": "OnyxTREE0_2",
      "primitives": [
        {
          "attributes": {
            "NORMAL": 41,
            "POSITION": 40,
            "TEXCOORD_0": 42
          },
          "indices": 43,
          "material": 0,
          "mode": 4
        }
      ]
    },
    {
      "name": "OnyxTREE0_2",
      "primitives": [
        {
          "attributes": {
            "NORMAL": 45,
            "POSITION": 44,
            "TEXCOORD_0": 46
          },
          "indices": 47,
          "material": 0,
          "mode": 4
        }
      ]
    },
    {
      "name": "OnyxTREE0_3",
      "primitives": [
        {
          "attributes": {
            "NORMAL": 49,
            "POSITION": 48,
            "TEXCOORD_0": 50
          },
          "indices": 51,
          "material": 1,
          "mode": 4
        }
      ]
    },
    {
      "name": "OnyxTREE0_3",
      "primitives": [
        {
          "attributes": {
            "NORMAL": 53,
            "POSITION": 52,
            "TEXCOORD_0": 54
          },
          "indices": 55,
          "material": 1,
          "mode": 4
        }
      ]
    },
    {
      "name": "OnyxTREE0_3",
      "primitives": [
        {
          "attributes": {
            "NORMAL": 57,
            "POSITION": 56,
            "TEXCOORD_0": 58
          },
          "indices": 59,
          "material": 1,
          "mode": 4
        }
      ]
    },
    {
      "name": "OnyxTREE0_3",
      "primitives": [
        {
          "attributes": {
            "NORMAL": 61,
            "POSITION": 60,
            "TEXCOORD_0": 62
          },
          "indices": 63,
          "material": 1,
          "mode": 4
        }
      ]
    },
    {
      "name": "OnyxTREE0_3",
      "primitives": [
        {
          "attributes": {
            "NORMAL": 65,
            "POSITION": 64,
            "TEXCOORD_0": 66
          },
          "indices": 67,
          "material": 1,
          "mode": 4
        }
      ]
    },
    {
      "name": "OnyxTREE0_3",
      "primitives": [
        {
          "attributes": {
            "NORMAL": 69,
            "POSITION": 68,
            "TEXCOORD_0": 70
          },
          "indices": 71,
          "material": 1,
          "mode": 4
        }
      ]
    },
    {
      "name": "OnyxTREE0_3",
      "primitives": [
        {
          "attributes": {
            "NORMAL": 73,
            "POSITION": 72,
            "TEXCOORD_0": 74
          },
          "indices": 75,
          "material": 1,
          "mode": 4
        }
      ]
    },
    {
      "name": "OnyxTREE0_3",
      "primitives": [
        {
          "attributes": {
            "NORMAL": 77,
            "POSITION": 76,
            "TEXCOORD_0": 78
          },
          "indices": 79,
          "material": 1,
          "mode": 4
        }
      ]
    },
    {
      "name": "OnyxTREE0_4",
      "primitives": [
        {
          "attributes": {
            "NORMAL": 81,
            "POSITION": 80,
            "TEXCOORD_0": 82
          },
          "indices": 83,
          "material": 2,
          "mode": 4
        }
      ]
    },
    {
      "name": "OnyxTREE0_4",
      "primitives": [
        {
          "attributes": {
            "NORMAL": 85,
            "POSITION": 84,
            "TEXCOORD_0": 86
          },
          "indices": 87,
          "material": 2,
          "mode": 4
        }
      ]
    },
    {
      "name": "OnyxTREE0_4",
      "primitives": [
        {
          "attributes": {
            "NORMAL": 89,
            "POSITION": 88,
            "TEXCOORD_0": 90
          },
          "indices": 91,
          "material": 2,
          "mode": 4
        }
      ]
    },
    {
      "name": "OnyxTREE0_4",
      "primitives": [
        {
          "attributes": {
            "NORMAL": 93,
            "POSITION": 92,
            "TEXCOORD_0": 94
          },
          "indices": 95,
          "material": 2,
          "mode": 4
        }
      ]
    },
    {
      "name": "OnyxTREE0_4",
      "primitives": [
        {
          "attributes": {
            "NORMAL": 97,
            "POSITION": 96,
            "TEXCOORD_0": 98
          },
          "indices": 99,
          "material": 2,
          "mode": 4
        }
      ]
    },
    {
      "name": "OnyxTREE0_4",
      "primitives": [
        {
          "attributes": {
            "NORMAL": 101,
            "POSITION": 100,
            "TEXCOORD_0": 102
          },
          "indices": 103,
          "material": 2,
          "mode": 4
        }
      ]
    },
    {
      "name": "OnyxTREE0_4",
      "primitives": [
        {
          "attributes": {
            "NORMAL": 105,
            "POSITION": 104,
            "TEXCOORD_0": 106
          },
          "indices": 107,
          "material": 2,
          "mode": 4
        }
      ]
    },
    {
      "name": "OnyxTREE0_4",
      "primitives": [
        {
          "attributes": {
            "NORMAL": 109,
            "POSITION": 108,
            "TEXCOORD_0": 110
          },
          "indices": 111,
          "material": 2,
          "mode": 4
        }
      ]
    },
    {
      "name": "OnyxTREE0_4",
      "primitives": [
        {
          "attributes": {
            "NORMAL": 113,
            "POSITION": 112,
            "TEXCOORD_0": 114
          },
          "indices": 115,
          "material": 2,
          "mode": 4
        }
      ]
    },
    {
      "name": "OnyxTREE0_4",
      "primitives": [
        {
          "attributes": {
            "NORMAL": 117,
            "POSITION": 116,
            "TEXCOORD_0": 118
          },
          "indices": 119,
          "material": 2,
          "mode": 4
        }
      ]
    },
    {
      "name": "OnyxTREE0_4",
      "primitives": [
        {
          "attributes": {
            "NORMAL": 121,
            "POSITION": 120,
            "TEXCOORD_0": 122
          },
          "indices": 123,
          "material": 2,
          "mode": 4
        }
      ]
    },
    {
      "name": "OnyxTREE0_4",
      "primitives": [
        {
          "attributes": {
            "NORMAL": 125,
            "POSITION": 124,
            "TEXCOORD_0": 126
          },
          "indices": 127,
          "material": 2,
          "mode": 4
        }
      ]
    },
    {
      "name": "OnyxTREE8_0",
      "primitives": [
        {
          "attributes": {
            "NORMAL": 129,
            "POSITION": 128,
            "TEXCOORD_0": 130
          },
          "indices": 131,
          "material": 3,
          "mode": 4
        }
      ]
    },
    {
      "name": "OnyxTREE8_0",
      "primitives": [
        {
          "attributes": {
            "NORMAL": 133,
            "POSITION": 132,
            "TEXCOORD_0": 134
          },
          "indices": 135,
          "material": 3,
          "mode": 4
        }
      ]
    },
    {
      "name": "OnyxTREE7_0",
      "primitives": [
        {
          "attributes": {
            "NORMAL": 137,
            "POSITION": 136,
            "TEXCOORD_0": 138
          },
          "indices": 139,
          "material": 3,
          "mode": 4
        }
      ]
    },
    {
      "name": "OnyxTREE7_0",
      "primitives": [
        {
          "attributes": {
            "NORMAL": 141,
            "POSITION": 140,
            "TEXCOORD_0": 142
          },
          "indices": 143,
          "material": 3,
          "mode": 4
        }
      ]
    },
    {
      "name": "OnyxTREE7_0",
      "primitives": [
        {
          "attributes": {
            "NORMAL": 145,
            "POSITION": 144,
            "TEXCOORD_0": 146
          },
          "indices": 147,
          "material": 3,
          "mode": 4
        }
      ]
    },
    {
      "name": "OnyxTREE6_0",
      "primitives": [
        {
          "attributes": {
            "NORMAL": 149,
            "POSITION": 148,
            "TEXCOORD_0": 150
          },
          "indices": 151,
          "material": 4,
          "mode": 4
        }
      ]
    },
    {
      "name": "OnyxTREE6_0",
      "primitives": [
        {
          "attributes": {
            "NORMAL": 153,
            "POSITION": 152,
            "TEXCOORD_0": 154
          },
          "indices": 155,
          "material": 4,
          "mode": 4
        }
      ]
    },
    {
      "name": "OnyxTREE6_0",
      "primitives": [
        {
          "attributes": {
            "NORMAL": 157,
            "POSITION": 156,
            "TEXCOORD_0": 158
          },
          "indices": 159,
          "material": 4,
          "mode": 4
        }
      ]
    },
    {
      "name": "OnyxTREE5_0",
      "primitives": [
        {
          "attributes": {
            "NORMAL": 161,
            "POSITION": 160,
            "TEXCOORD_0": 162
          },
          "indices": 163,
          "material": 4,
          "mode": 4
        }
      ]
    },
    {
      "name": "OnyxTREE5_0",
      "primitives": [
        {
          "attributes": {
            "NORMAL": 165,
            "POSITION": 164,
            "TEXCOORD_0": 166
          },
          "indices": 167,
          "material": 4,
          "mode": 4
        }
      ]
    },
    {
      "name": "OnyxTREE5_0",
      "primitives": [
        {
          "attributes": {
            "NORMAL": 169,
            "POSITION": 168,
            "TEXCOORD_0": 170
          },
          "indices": 171,
          "material": 4,
          "mode": 4
        }
      ]
    },
    {
      "name": "OnyxTREE4_0",
      "primitives": [
        {
          "attributes": {
            "NORMAL": 173,
            "POSITION": 172,
            "TEXCOORD_0": 174
          },
          "indices": 175,
          "material": 4,
          "mode": 4
        }
      ]
    },
    {
      "name": "OnyxTREE4_0",
      "primitives": [
        {
          "attributes": {
            "NORMAL": 177,
            "POSITION": 176,
            "TEXCOORD_0": 178
          },
          "indices": 179,
          "material": 4,
          "mode": 4
        }
      ]
    },
    {
      "name": "OnyxTREE4_0",
      "primitives": [
        {
          "attributes": {
            "NORMAL": 181,
            "POSITION": 180,
            "TEXCOORD_0": 182
          },
          "indices": 183,
          "material": 4,
          "mode": 4
        }
      ]
    },
    {
      "name": "OnyxTREE3_0",
      "primitives": [
        {
          "attributes": {
            "NORMAL": 185,
            "POSITION": 184,
            "TEXCOORD_0": 186
          },
          "indices": 187,
          "material": 4,
          "mode": 4
        }
      ]
    },
    {
      "name": "OnyxTREE3_0",
      "primitives": [
        {
          "attributes": {
            "NORMAL": 189,
            "POSITION": 188,
            "TEXCOORD_0": 190
          },
          "indices": 191,
          "material": 4,
          "mode": 4
        }
      ]
    },
    {
      "name": "OnyxTREE3_0",
      "primitives": [
        {
          "attributes": {
            "NORMAL": 193,
            "POSITION": 192,
            "TEXCOORD_0": 194
          },
          "indices": 195,
          "material": 4,
          "mode": 4
        }
      ]
    },
    {
      "name": "OnyxTREE2_0",
      "primitives": [
        {
          "attributes": {
            "NORMAL": 197,
            "POSITION": 196,
            "TEXCOORD_0": 198
          },
          "indices": 199,
          "material": 5,
          "mode": 4
        }
      ]
    },
    {
      "name": "OnyxTREE2_0",
      "primitives": [
        {
          "attributes": {
            "NORMAL": 201,
            "POSITION": 200,
            "TEXCOORD_0": 202
          },
          "indices": 203,
          "material": 5,
          "mode": 4
        }
      ]
    },
    {
      "name": "OnyxTREE1_0",
      "primitives": [
        {
          "attributes": {
            "NORMAL": 205,
            "POSITION": 204,
            "TEXCOORD_0": 206
          },
          "indices": 207,
          "material": 5,
          "mode": 4
        }
      ]
    },
    {
      "name": "OnyxTREE1_0",
      "primitives": [
        {
          "attributes": {
            "NORMAL": 209,
            "POSITION": 208,
            "TEXCOORD_0": 210
          },
          "indices": 211,
          "material": 5,
          "mode": 4
        }
      ]
    },
    {
      "name": "OnyxTREE1_0",
      "primitives": [
        {
          "attributes": {
            "NORMAL": 213,
            "POSITION": 212,
            "TEXCOORD_0": 214
          },
          "indices": 215,
          "material": 5,
          "mode": 4
        }
      ]
    }
  ],
  "nodes": [
    {
      "children": [
        1
      ],
      "matrix": [
        1.0,
        0.0,
        0.0,
        0.0,
        0.0,
        2.220446049250313e-16,
        -1.0,
        0.0,
        0.0,
        1.0,
        2.220446049250313e-16,
        0.0,
        0.0,
        0.0,
        0.0,
        1.0
      ],
      "name": "Sketchfab_model"
    },
    {
      "children": [
        2,
        4,
        6,
        8
      ],
      "name": "Root"
    },
    {
      "children": [
        3
      ],
      "matrix": [
        -0.06676000000000003,
        -0.99777,
        0.0,
        0.0,
        0.77261,
        -0.051690000000000014,
        0.6327800000000001,
        0.0,
        -0.6313700000000001,
        0.04224000000000001,
        0.77433,
        0.0,
        -5.54304,
        0.31609000000000004,
        5.0,
        1.0
      ],
      "name": "TriLamp-Back"
    },
    {
      "name": "TriLamp-Back"
    },
    {
      "children": [
        5
      ],
      "matrix": [
        0.23900000000000002,
        0.97102,
        0.0,
        0.0,
        -0.7518900000000002,
        0.18507,
        0.6327800000000001,
        0.0,
        0.6144400000000001,
        -0.15124000000000004,
        0.77433,
        0.0,
        3.77894,
        -1.13165,
        5.0,
        1.0
      ],
      "name": "TriLamp-Fill"
    },
    {
      "name": "TriLamp-Fill"
    },
    {
      "children": [
        7
      ],
      "matrix": [
        0.99593,
        0.09015000000000002,
        0.0,
        0.0,
        -0.06981000000000001,
        0.77118,
        0.6327800000000001,
        0.0,
        0.05705000000000001,
        -0.6302000000000001,
        0.77433,
        0.0,
        -0.3918700000000001,
        -4.7156,
        5.0,
        1.0
      ],
      "name": "TriLamp-Key"
    },
    {
      "name": "TriLamp-Key"
    },
    {
      "children": [
        9,
        10,
        11,
        12,
        13,
        14,
        15,
        16,
        17,
        18,
        19,
        20,
        21,
        22,
        23,
        24,
        25,
        26,
        27,
        28,
        29,
        30,
        31,
        32,
        33,
        34,
        35,
        36,
        37,
        38,
        39,
        40,
        41,
        44,
        48,
        52,
        56,
        60,
        64,
        67
      ],
      "matrix": [
        1.0,
        0.0,
        0.0,
        0.0,
        0.0,
        1.0,
        0.0,
        0.0,
        0.0,
        0.0,
        1.0,
        0.0,
        -0.8187200000000001,
        0.0,
        -0.7940900000000001,
        1.0
      ],
      "name": "OnyxTREE0"
    },
    {
      "mesh": 0,
      "name": "OnyxTREE0_0"
    },
    {
      "mesh": 1,
      "name": "OnyxTREE0_0"
    },
    {
      "mesh": 2,
      "name": "OnyxTREE0_0"
    },
    {
      "mesh": 3,
      "name": "OnyxTREE0_0"
    },
    {
      "mesh": 4,
      "name": "OnyxTREE0_0"
    },
    {
      "mesh": 5,
      "name": "OnyxTREE0_1"
    },
    {
      "mesh": 6,
      "name": "OnyxTREE0_1"
    },
    {
      "mesh": 7,
      "name": "OnyxTREE0_1"
    },
    {
      "mesh": 8,
      "name": "OnyxTREE0_2"
    },
    {
      "mesh": 9,
      "name": "OnyxTREE0_2"
    },
    {
      "mesh": 10,
      "name": "OnyxTREE0_2"
    },
    {
      "mesh": 11,
      "name": "OnyxTREE0_2"
    },
    {
      "mesh": 12,
      "name": "OnyxTREE0_3"
    },
    {
      "mesh": 13,
      "name": "OnyxTREE0_3"
    },
    {
      "mesh": 14,
      "name": "OnyxTREE0_3"
    },
    {
      "mesh": 15,
      "name": "OnyxTREE0_3"
    },
    {
      "mesh": 16,
      "name": "OnyxTREE0_3"
    },
    {
      "mesh": 17,
      "name": "OnyxTREE0_3"
    },
    {
      "mesh": 18,
      "name": "OnyxTREE0_3"
    },
    {
      "mesh": 19,
      "name": "OnyxTREE0_3"
    },
    {
      "mesh": 20,
      "name": "OnyxTREE0_4"
    },
    {
      "mesh": 21,
      "name": "OnyxTREE0_4"
    },
    {
      "mesh": 22,
      "name": "OnyxTREE0_4"
    },
    {
      "mesh": 23,
      "name": "OnyxTREE0_4"
    },
    {
      "mesh": 24,
      "name": "OnyxTREE0_4"
    },
    {
      "mesh": 25,
      "name": "OnyxTREE0_4"
    },
    {
      "mesh": 26,
      "name": "OnyxTREE0_4"
    },
    {
      "mesh": 27,
      "name": "OnyxTREE0_4"
    },
    {
      "mesh": 28,
      "name": "OnyxTREE0_4"
    },
    {
      "mesh": 29,
      "name": "OnyxTREE0_4"
    },
    {
      "mesh": 30,
      "name": "OnyxTREE0_4"
    },
    {
      "mesh": 31,
      "name": "OnyxTREE0_4"
    },
    {
      "children": [
        42,
        43
      ],
      "name": "OnyxTREE8"
    },
    {
      "mesh": 32,
      "name": "OnyxTREE8_0"
    },
    {
      "mesh": 33,
      "name": "OnyxTREE8_0"
    },
    {
      "children": [
        45,
        46,
        47
      ],
      "name": "OnyxTREE7"
    },
    {
      "mesh": 34,
      "name": "OnyxTREE7_0"
    },
    {
      "mesh": 35,
      "name": "OnyxTREE7_0"
    },
    {
      "mesh": 36,
      "name": "OnyxTREE7_0"
    },
    {
      "children": [
        49,
        50,
        51
      ],
      "name": "OnyxTREE6"
    },
    {
      "mesh": 37,
      "name": "OnyxTREE6_0"
    },
    {
      "mesh": 38,
      "name": "OnyxTREE6_0"
    },
    {
      "mesh": 39,
      "name": "OnyxTREE6_0"
    },
    {
      "children": [
        53,
        54,
        55
      ],
      "name": "OnyxTREE5"
    },
    {
      "mesh": 40,
      "name": "OnyxTREE5_0"
    },
    {
      "mesh": 41,
      "name": "OnyxTREE5_0"
    },
    {
      "mesh": 42,
      "name": "OnyxTREE5_0"
    },
    {
      "children": [
        57,
        58,
        59
      ],
      "name": "OnyxTREE4"
    },
    {
      "mesh": 43,
      "name": "OnyxTREE4_0"
    },
    {
      "mesh": 44,
      "name": "OnyxTREE4_0"
    },
    {
      "mesh": 45,
      "name": "OnyxTREE4_0"
    },
    {
      "children": [
        61,
        62,
        63
      ],
      "name": "OnyxTREE3"
    },
    {
      "mesh": 46,
      "name": "OnyxTREE3_0"
    },
    {
      "mesh": 47,
      "name": "OnyxTREE3_0"
    },
    {
      "mesh": 48,
      "name": "OnyxTREE3_0"
    },
    {
      "children": [
        65,
        66
      ],
      "name": "OnyxTREE2"
    },
    {
      "mesh": 49,
      "name": "OnyxTREE2_0"
    },
    {
      "mesh": 50,
      "name": "OnyxTREE2_0"
    },
    {
      "children": [
        68,
        69,
        70
      ],
      "name": "OnyxTREE1"
    },
    {
      "mesh": 51,
      "name": "OnyxTREE1_0"
    },
    {
      "mesh": 52,
      "name": "OnyxTREE1_0"
    },
    {
      "mesh": 53,
      "name": "OnyxTREE1_0"
    }
  ],
  "samplers": [
    {
      "magFilter": 9729,
      "minFilter": 9987,
      "wrapS": 10497,
      "wrapT": 10497
    }
  ],
  "scene": 0,
  "scenes": [
    {
      "name": "Sketchfab_Scene",
      "nodes": [
        0
      ]
    }
  ],
  "textures": [
    {
      "sampler": 0,
      "source": 0
    },
    {
      "sampler": 0,
      "source": 1
    }
  ]
}
