{
  "accessors": [
    {
      "bufferView": 2,
      "componentType": 5126,
      "count": 65532,
      "max": [
        8.091619491577148,
        15.022884368896484,
        8.111024856567383
      ],
      "min": [
        -7.513685703277588,
        -0.0029664323665201664,
        -8.953927040100098
      ],
      "type": "VEC3"
    },
    {
      "bufferView": 2,
      "byteOffset": 786384,
      "componentType": 5126,
      "count": 65532,
      "max": [
        0.9999892115592957,
        0.9999999403953552,
        0.9999935030937195
      ],
      "min": [
        -0.999995768070221,
        -0.9999780058860779,
        -0.999947726726532
      ],
      "type": "VEC3"
    },
    {
      "bufferView": 1,
      "componentType": 5126,
      "count": 65532,
      "max": [
        1.998852014541626,
        76.02959442138672
      ],
      "min": [
        -0.9986168742179871,
        -1.3098516464233398
      ],
      "type": "VEC2"
    },
    {
      "bufferView": 1,
      "byteOffset": 524256,
      "componentType": 5126,
      "count": 65532,
      "max": [
        1.998852014541626,
        76.02959442138672
      ],
      "min": [
        -0.9986168742179871,
        -1.3098516464233398
      ],
      "type": "VEC2"
    },
    {
      "bufferView": 1,
      "byteOffset": 1048512,
      "componentType": 5126,
      "count": 65532,
      "max": [
        1.0,
        0.9951373934745789
      ],
      "min": [
        0.0,
        0.24991294741630554
      ],
      "type": "VEC2"
    },
    {
      "bufferView": 1,
      "byteOffset": 1572768,
      "componentType": 5126,
      "count": 65532,
      "max": [
        1.998852014541626,
        76.02959442138672
      ],
      "min": [
        -0.9986168742179871,
        -1.3098516464233398
      ],
      "type": "VEC2"
    },
    {
      "bufferView": 0,
      "componentType": 5125,
      "count": 280431,
      "type": "SCALAR"
    },
    {
      "bufferView": 2,
      "byteOffset": 1572768,
      "componentType": 5126,
      "count": 65532,
      "max": [
        7.120098114013672,
        15.611687660217285,
        7.102877140045166
      ],
      "min": [
        -6.542486667633057,
        -0.007555565796792507,
        -7.131582260131836
      ],
      "type": "VEC3"
    },
    {
      "bufferView": 2,
      "byteOffset": 2359152,
      "componentType": 5126,
      "count": 65532,
      "max": [
        0.9998269081115723,
        0.9999999403953552,
        0.99992436170578
      ],
      "min": [
        -0.999995768070221,
        -0.9994010329246521,
        -0.9998977184295654
      ],
      "type": "VEC3"
    },
    {
      "bufferView": 1,
      "byteOffset": 2097024,
      "componentType": 5126,
      "count": 65532,
      "max": [
        1.9985560178756714,
        66.54930877685547
      ],
      "min": [
        -0.9986168742179871,
        -1.280987024307251
      ],
      "type": "VEC2"
    },
    {
      "bufferView": 1,
      "byteOffset": 2621280,
      "componentType": 5126,
      "count": 65532,
      "max": [
        1.9985560178756714,
        66.54930877685547
      ],
      "min": [
        -0.9986168742179871,
        -1.280987024307251
      ],
      "type": "VEC2"
    },
    {
      "bufferView": 1,
      "byteOffset": 3145536,
      "componentType": 5126,
      "count": 65532,
      "max": [
        1.0,
        0.9952563643455505
      ],
      "min": [
        1.0,
        0.2499089241027832
      ],
      "type": "VEC2"
    },
    {
      "bufferView": 1,
      "byteOffset": 3669792,
      "componentType": 5126,
      "count": 65532,
      "max": [
        1.9985560178756714,
        66.54930877685547
      ],
      "min": [
        -0.9986168742179871,
        -1.280987024307251
      ],
      "type": "VEC2"
    },
    {
      "bufferView": 0,
      "byteOffset": 1121724,
      "componentType": 5125,
      "count": 283359,
      "type": "SCALAR"
    },
    {
      "bufferView": 2,
      "byteOffset": 3145536,
      "componentType": 5126,
      "count": 50047,
      "max": [
        3.800089120864868,
        15.000517845153809,
        7.403775691986084
      ],
      "min": [
        -7.556650161743164,
        4.955986499786377,
        -4.884284496307373
      ],
      "type": "VEC3"
    },
    {
      "bufferView": 2,
      "byteOffset": 3746100,
      "componentType": 5126,
      "count": 50047,
      "max": [
        0.9999833703041077,
        1.0,
        0.9999403953552246
      ],
      "min": [
        -0.9996136426925659,
        -0.9998378157615662,
        -0.9998683333396912
      ],
      "type": "VEC3"
    },
    {
      "bufferView": 1,
      "byteOffset": 4194048,
      "componentType": 5126,
      "count": 50047,
      "max": [
        1.9960500001907349,
        70.36167907714844
      ],
      "min": [
        -0.9998788833618164,
        -1.2999639511108398
      ],
      "type": "VEC2"
    },
    {
      "bufferView": 1,
      "byteOffset": 4594424,
      "componentType": 5126,
      "count": 50047,
      "max": [
        1.9960500001907349,
        70.36167907714844
      ],
      "min": [
        -0.9998788833618164,
        -1.2999639511108398
      ],
      "type": "VEC2"
    },
    {
      "bufferView": 1,
      "byteOffset": 4994800,
      "componentType": 5126,
      "count": 50047,
      "max": [
        1.0,
        0.9905688762664795
      ],
      "min": [
        1.0,
        0.2505112290382385
      ],
      "type": "VEC2"
    },
    {
      "bufferView": 1,
      "byteOffset": 5395176,
      "componentType": 5126,
      "count": 50047,
      "max": [
        1.9960500001907349,
        70.36167907714844
      ],
      "min": [
        -0.9998788833618164,
        -1.2999639511108398
      ],
      "type": "VEC2"
    },
    {
      "bufferView": 0,
      "byteOffset": 2255160,
      "componentType": 5125,
      "count": 211578,
      "type": "SCALAR"
    },
    {
      "bufferView": 2,
      "byteOffset": 4346664,
      "componentType": 5126,
      "count": 65532,
      "max": [
        8.115921020507813,
        15.03615665435791,
        7.51927375793457
      ],
      "min": [
        -7.669262409210205,
        4.724259853363037,
        -8.325345039367676
      ],
      "type": "VEC3"
    },
    {
      "bufferView": 2,
      "byteOffset": 5133048,
      "componentType": 5126,
      "count": 65532,
      "max": [
        0.9999712705612183,
        0.9996328353881836,
        0.9999953508377075
      ],
      "min": [
        -0.9996840357780457,
        -0.9997814297676086,
        -0.9998201131820679
      ],
      "type": "VEC3"
    },
    {
      "bufferView": 3,
      "componentType": 5126,
      "count": 65532,
      "max": [
        0.9999056458473206,
        0.9999341368675232,
        0.9999740123748779,
        1.0
      ],
      "min": [
        -0.999764084815979,
        -0.9998713135719299,
        -0.9998008608818054,
        -1.0
      ],
      "type": "VEC4"
    },
    {
      "bufferView": 1,
      "byteOffset": 5795552,
      "componentType": 5126,
      "count": 65532,
      "max": [
        1.0,
        1.0
      ],
      "min": [
        0.0,
        0.0
      ],
      "type": "VEC2"
    },
    {
      "bufferView": 1,
      "byteOffset": 6319808,
      "componentType": 5126,
      "count": 65532,
      "max": [
        1.0,
        1.0
      ],
      "min": [
        0.0,
        0.0
      ],
      "type": "VEC2"
    },
    {
      "bufferView": 1,
      "byteOffset": 6844064,
      "componentType": 5126,
      "count": 65532,
      "max": [
        1.0,
        0.996433675289154
      ],
      "min": [
        1.0,
        0.2631864845752716
      ],
      "type": "VEC2"
    },
    {
      "bufferView": 1,
      "byteOffset": 7368320,
      "componentType": 5126,
      "count": 65532,
      "max": [
        1.0,
        1.0
      ],
      "min": [
        0.0,
        0.0
      ],
      "type": "VEC2"
    },
    {
      "bufferView": 0,
      "byteOffset": 3101472,
      "componentType": 5125,
      "count": 98298,
      "type": "SCALAR"
    },
    {
      "bufferView": 2,
      "byteOffset": 5919432,
      "componentType": 5126,
      "count": 39060,
      "max": [
        5.799741744995117,
        15.609453201293945,
        8.064156532287598
      ],
      "min": [
        -6.86694860458374,
        4.71458101272583,
        -8.816044807434082
      ],
      "type": "VEC3"
    },
    {
      "bufferView": 2,
      "byteOffset": 6388152,
      "componentType": 5126,
      "count": 39060,
      "max": [
        0.9997500777244568,
        0.9995288252830505,
        0.999967098236084
      ],
      "min": [
        -0.9998583793640137,
        -0.9997037053108215,
        -0.9997163414955139
      ],
      "type": "VEC3"
    },
    {
      "bufferView": 3,
      "byteOffset": 1048512,
      "componentType": 5126,
      "count": 39060,
      "max": [
        0.9999334216117859,
        0.9998815655708313,
        0.9995942115783691,
        1.0
      ],
      "min": [
        -0.9999949336051941,
        -0.9999176263809204,
        -0.9999303221702576,
        -1.0
      ],
      "type": "VEC4"
    },
    {
      "bufferView": 1,
      "byteOffset": 7892576,
      "componentType": 5126,
      "count": 39060,
      "max": [
        1.0,
        1.0
      ],
      "min": [
        0.0,
        0.0
      ],
      "type": "VEC2"
    },
    {
      "bufferView": 1,
      "byteOffset": 8205056,
      "componentType": 5126,
      "count": 39060,
      "max": [
        1.0,
        1.0
      ],
      "min": [
        0.0,
        0.0
      ],
      "type": "VEC2"
    },
    {
      "bufferView": 1,
      "byteOffset": 8517536,
      "componentType": 5126,
      "count": 39060,
      "max": [
        1.0,
        0.9945045709609985
      ],
      "min": [
        1.0,
        0.26343753933906555
      ],
      "type": "VEC2"
    },
    {
      "bufferView": 1,
      "byteOffset": 8830016,
      "componentType": 5126,
      "count": 39060,
      "max": [
        1.0,
        1.0
      ],
      "min": [
        0.0,
        0.0
      ],
      "type": "VEC2"
    },
    {
      "bufferView": 0,
      "byteOffset": 3494664,
      "componentType": 5125,
      "count": 58590,
      "type": "SCALAR"
    },
    {
      "bufferView": 2,
      "byteOffset": 6856872,
      "componentType": 5126,
      "count": 52160,
      "max": [
        8.187263488769531,
        15.710716247558594,
        8.210185050964355
      ],
      "min": [
        -7.648523807525635,
        4.8600897789001465,
        -9.051457405090332
      ],
      "type": "VEC3"
    },
    {
      "bufferView": 2,
      "byteOffset": 7482792,
      "componentType": 5126,
      "count": 52160,
      "max": [
        0.9998656511306763,
        0.9999932050704956,
        0.9999722242355347
      ],
      "min": [
        -0.9996050000190735,
        -0.9978002905845642,
        -0.9999248385429382
      ],
      "type": "VEC3"
    },
    {
      "bufferView": 3,
      "byteOffset": 1673472,
      "componentType": 5126,
      "count": 52160,
      "max": [
        0.999894917011261,
        0.999987781047821,
        0.9999159574508667,
        1.0
      ],
      "min": [
        -0.9998008608818054,
        -0.9999837279319763,
        -0.9998529553413391,
        -1.0
      ],
      "type": "VEC4"
    },
    {
      "bufferView": 1,
      "byteOffset": 9142496,
      "componentType": 5126,
      "count": 52160,
      "max": [
        1.0,
        1.0
      ],
      "min": [
        0.0,
        0.0
      ],
      "type": "VEC2"
    },
    {
      "bufferView": 1,
      "byteOffset": 9559776,
      "componentType": 5126,
      "count": 52160,
      "max": [
        1.0,
        1.0
      ],
      "min": [
        0.0,
        0.0
      ],
      "type": "VEC2"
    },
    {
      "bufferView": 1,
      "byteOffset": 9977056,
      "componentType": 5126,
      "count": 52160,
      "max": [
        1.0,
        0.9980236291885376
      ],
      "min": [
        1.0,
        0.2627796232700348
      ],
      "type": "VEC2"
    },
    {
      "bufferView": 1,
      "byteOffset": 10394336,
      "componentType": 5126,
      "count": 52160,
      "max": [
        1.0,
        1.0
      ],
      "min": [
        0.0,
        0.0
      ],
      "type": "VEC2"
    },
    {
      "bufferView": 0,
      "byteOffset": 3729024,
      "componentType": 5125,
      "count": 78240,
      "type": "SCALAR"
    }
  ],
  "asset": {
    "extras": {
      "author": "hanandess (https://sketchfab.com/hanandess)",
      "license": "CC-BY-4.0 (http://creativecommons.org/licenses/by/4.0/)",
      "source": "https://sketchfab.com/3d-models/unka-16854b8c3c5c4ec5b3fc6c7952ba09e0",
      "title": "Unka"
    },
    "generator": "Sketchfab-14.87.0",
    "version": "2.0"
  },
  "bufferViews": [
    {
      "buffer": 0,
      "byteLength": 4041984,
      "name": "floatBufferViews",
      "target": 34963
    },
    {
      "buffer": 0,
      "byteLength": 10811616,
      "byteOffset": 4041984,
      "byteStride": 8,
      "name": "floatBufferViews",
      "target": 34962
    },
    {
      "buffer": 0,
      "byteLength": 8108712,
      "byteOffset": 14853600,
      "byteStride": 12,
      "name": "floatBufferViews",
      "target": 34962
    },
    {
      "buffer": 0,
      "byteLength": 2508032,
      "byteOffset": 22962312,
      "byteStride": 16,
      "name": "floatBufferViews",
      "target": 34962
    }
  ],
  "buffers": [
    {
      "byteLength": 25470344,
      "uri": "scene.bin"
    }
  ],
  "images": [
    {
      "uri": "textures/Tronco_Mat_baseColor.png"
    },
    {
      "uri": "textures/Tronco_Mat_metallicRoughness.png"
    },
    {
      "uri": "textures/Hojas_Mat_baseColor.png"
    },
    {
      "uri": "textures/Hojas_Mat_metallicRoughness.png"
    },
    {
      "uri": "textures/Hojas_Mat_normal.png"
    },
    {
      "uri": "textures/Hojas_Rojas_Mat_baseColor.png"
    },
    {
      "uri": "textures/Hojas_Rojas_Mat_normal.png"
    }
  ],
  "materials": [
    {
      "doubleSided": true,
      "name": "Tronco_Mat",
      "pbrMetallicRoughness": {
        "baseColorTexture": {
          "index": 0
        },
        "metallicFactor": 0.0,
        "metallicRoughnessTexture": {
          "index": 1
        }
      }
    },
    {
      "alphaMode": "BLEND",
      "doubleSided": true,
      "name": "Hojas_Mat",
      "normalTexture": {
        "index": 4
      },
      "pbrMetallicRoughness": {
        "baseColorTexture": {
          "index": 2
        },
        "metallicFactor": 0.0,
        "metallicRoughnessTexture": {
          "index": 3
        }
      }
    },
    {
      "alphaMode": "BLEND",
      "doubleSided": true,
      "name": "Hojas_Rojas_Mat",
      "normalTexture": {
        "index": 6
      },
      "pbrMetallicRoughness": {
        "baseColorTexture": {
          "index": 5
        },
        "metallicFactor": 0.0,
        "metallicRoughnessTexture": {
          "index": 3
        }
      }
    }
  ],
  "meshes": [
    {
      "name": "Tronco_Tronco_Mat_0",
      "primitives": [
        {
          "attributes": {
            "NORMAL": 1,
            "POSITION": 0,
            "TEXCOORD_0": 2,
            "TEXCOORD_1": 3,
            "TEXCOORD_2": 4,
            "TEXCOORD_3": 5
          },
          "indices": 6,
          "material": 0,
          "mode": 4
        }
      ]
    },
    {
      "name": "Tronco_Tronco_Mat_0",
      "primitives": [
        {
          "attributes": {
            "NORMAL": 8,
            "POSITION": 7,
            "TEXCOORD_0": 9,
            "TEXCOORD_1": 10,
            "TEXCOORD_2": 11,
            "TEXCOORD_3": 12
          },
          "indices": 13,
          "material": 0,
          "mode": 4
        }
      ]
    },
    {
      "name": "Tronco_Tronco_Mat_0",
      "primitives": [
        {
          "attributes": {
            "NORMAL": 15,
            "POSITION": 14,
            "TEXCOORD_0": 16,
            "TEXCOORD_1": 17,
            "TEXCOORD_2": 18,
            "TEXCOORD_3": 19
          },
          "indices": 20,
          "material": 0,
          "mode": 4
        }
      ]
    },
    {
      "name": "Hojas_Hojas_Mat_0",
      "primitives": [
        {
          "attributes": {
            "NORMAL": 22,
            "POSITION": 21,
            "TANGENT": 23,
            "TEXCOORD_0": 24,
            "TEXCOORD_1": 25,
            "TEXCOORD_2": 26,
            "TEXCOORD_3": 27
          },
          "indices": 28,
          "material": 1,
          "mode": 4
        }
      ]
    },
    {
      "name": "Hojas_Hojas_Mat_0",
      "primitives": [
        {
          "attributes": {
            "NORMAL": 30,
            "POSITION": 29,
            "TANGENT": 31,
            "TEXCOORD_0": 32,
            "TEXCOORD_1": 33,
            "TEXCOORD_2": 34,
            "TEXCOORD_3": 35
          },
          "indices": 36,
          "material": 1,
          "mode": 4
        }
      ]
    },
    {
      "name": "Hojas_Rojas_Hojas_Rojas_Mat_0",
      "primitives": [
        {
          "attributes": {
            "NORMAL": 38,
            "POSITION": 37,
            "TANGENT": 39,
            "TEXCOORD_0": 40,
            "TEXCOORD_1": 41,
            "TEXCOORD_2": 42,
            "TEXCOORD_3": 43
          },
          "indices": 44,
          "material": 2,
          "mode": 4
        }
      ]
    }
  ],
  "nodes": [
    {
      "children": [
        1
      ],
      "matrix": [
        1.0,
        0.0,
        0.0,
        0.0,
        0.0,
        2.220446049250313e-16,
        -1.0,
        0.0,
        0.0,
        1.0,
        2.220446049250313e-16,
        0.0,
        0.0,
        0.0,
        0.0,
        1.0
      ],
      "name": "Sketchfab_model"
    },
    {
      "children": [
        2
      ],
      "matrix": [
        0.30480000376701355,
        0.0,
        0.0,
        0.0,
        0.0,
        0.0,
        0.30480000376701355,
        0.0,
        0.0,
        -0.30480000376701355,
        0.0,
        0.0,
        0.0,
        0.0,
        0.0,
        1.0
      ],
      "name": "4e8e18e9552c4bbcaaa59e11e8f03f75.fbx"
    },
    {
      "children": [
        3
      ],
      "name": "RootNode"
    },
    {
      "children": [
        4,
        8,
        11
      ],
      "name": "Unka_Pro_5m"
    },
    {
      "children": [
        5,
        6,
        7
      ],
      "name": "Tronco"
    },
    {
      "mesh": 0,
      "name": "Tronco_Tronco_Mat_0"
    },
    {
      "mesh": 1,
      "name": "Tronco_Tronco_Mat_0"
    },
    {
      "mesh": 2,
      "name": "Tronco_Tronco_Mat_0"
    },
    {
      "children": [
        9,
        10
      ],
      "name": "Hojas"
    },
    {
      "mesh": 3,
      "name": "Hojas_Hojas_Mat_0"
    },
    {
      "mesh": 4,
      "name": "Hojas_Hojas_Mat_0"
    },
    {
      "children": [
        12
      ],
      "name": "Hojas_Rojas"
    },
    {
      "mesh": 5,
      "name": "Hojas_Rojas_Hojas_Rojas_Mat_0"
    }
  ],
  "samplers": [
    {
      "magFilter": 9729,
      "minFilter": 9987,
      "wrapS": 10497,
      "wrapT": 10497
    }
  ],
  "scene": 0,
  "scenes": [
    {
      "name": "Sketchfab_Scene",
      "nodes": [
        0
      ]
    }
  ],
  "textures": [
    {
      "sampler": 0,
      "source": 0
    },
    {
      "sampler": 0,
      "source": 1
    },
    {
      "sampler": 0,
      "source": 2
    },
    {
      "sampler": 0,
      "source": 3
    },
    {
      "sampler": 0,
      "source": 4
    },
    {
      "sampler": 0,
      "source": 5
    },
    {
      "sampler": 0,
      "source": 6
    }
  ]
}
