{
  "accessors": [
    {
      "bufferView": 2,
      "componentType": 5126,
      "count": 12,
      "max": [
        199.16720581054688,
        2251.693115234375,
        1126.0419921875
      ],
      "min": [
        182.12030029296875,
        2154.47705078125,
        1095.56396484375
      ],
      "type": "VEC3"
    },
    {
      "bufferView": 2,
      "byteOffset": 144,
      "componentType": 5126,
      "count": 12,
      "max": [
        0.0,
        1.0,
        0.9510656595230103
      ],
      "min": [
        0.0,
        0.0,
        -1.0
      ],
      "type": "VEC3"
    },
    {
      "bufferView": 3,
      "componentType": 5126,
      "count": 12,
      "max": [
        0.008347561582922935,
        0.9507437348365784,
        0.0,
        1.0
      ],
      "min": [
        -0.02601909078657627,
        -1.0,
        -0.9999672174453735,
        1.0
      ],
      "type": "VEC4"
    },
    {
      "bufferView": 1,
      "componentType": 5126,
      "count": 12,
      "max": [
        0.5393999814987183,
        0.4269999861717224
      ],
      "min": [
        0.4880000054836273,
        0.4198000133037567
      ],
      "type": "VEC2"
    },
    {
      "bufferView": 0,
      "componentType": 5125,
      "count": 30,
      "type": "SCALAR"
    },
    {
      "bufferView": 2,
      "byteOffset": 288,
      "componentType": 5126,
      "count": 51040,
      "max": [
        787.4738159179688,
        2718.822021484375,
        505.10211181640625
      ],
      "min": [
        -787.473876953125,
        106.47059631347656,
        18.19969940185547
      ],
      "type": "VEC3"
    },
    {
      "bufferView": 2,
      "byteOffset": 612768,
      "componentType": 5126,
      "count": 51040,
      "max": [
        1.0,
        1.0,
        1.0
      ],
      "min": [
        -1.0,
        -1.0,
        -1.0
      ],
      "type": "VEC3"
    },
    {
      "bufferView": 3,
      "byteOffset": 192,
      "componentType": 5126,
      "count": 51040,
      "max": [
        1.0,
        1.0,
        0.999994158744812,
        1.0
      ],
      "min": [
        -1.0,
        -1.0,
        -1.0,
        -1.0
      ],
      "type": "VEC4"
    },
    {
      "bufferView": 1,
      "byteOffset": 96,
      "componentType": 5126,
      "count": 51040,
      "max": [
        0.6233999729156494,
        0.5476999878883362
      ],
      "min": [
        0.5454999804496765,
        0.4715999960899353
      ],
      "type": "VEC2"
    },
    {
      "bufferView": 0,
      "byteOffset": 120,
      "componentType": 5125,
      "count": 141984,
      "type": "SCALAR"
    },
    {
      "bufferView": 2,
      "byteOffset": 1225248,
      "componentType": 5126,
      "count": 6498,
      "max": [
        769.8936767578125,
        2814.90283203125,
        1230.863037109375
      ],
      "min": [
        -776.1926879882813,
        72.65499877929688,
        244.13699340820313
      ],
      "type": "VEC3"
    },
    {
      "bufferView": 2,
      "byteOffset": 1303224,
      "componentType": 5126,
      "count": 6498,
      "max": [
        1.0,
        1.0,
        1.0
      ],
      "min": [
        -1.0,
        -1.0,
        -1.0
      ],
      "type": "VEC3"
    },
    {
      "bufferView": 3,
      "byteOffset": 816832,
      "componentType": 5126,
      "count": 6498,
      "max": [
        1.0,
        1.0,
        1.0,
        1.0
      ],
      "min": [
        -1.0,
        -1.0,
        -1.0,
        -1.0
      ],
      "type": "VEC4"
    },
    {
      "bufferView": 1,
      "byteOffset": 408416,
      "componentType": 5126,
      "count": 6498,
      "max": [
        0.991599977016449,
        0.8507999777793884
      ],
      "min": [
        0.027000000700354576,
        0.012900000438094139
      ],
      "type": "VEC2"
    },
    {
      "bufferView": 0,
      "byteOffset": 568056,
      "componentType": 5125,
      "count": 17571,
      "type": "SCALAR"
    },
    {
      "bufferView": 2,
      "byteOffset": 1381200,
      "componentType": 5126,
      "count": 10814,
      "max": [
        782.968017578125,
        2675.01171875,
        497.7966003417969
      ],
      "min": [
        -782.9680786132813,
        123.42440032958984,
        60.32640075683594
      ],
      "type": "VEC3"
    },
    {
      "bufferView": 2,
      "byteOffset": 1510968,
      "componentType": 5126,
      "count": 10814,
      "max": [
        1.0,
        1.0,
        1.0
      ],
      "min": [
        -1.0,
        -1.0,
        -1.0
      ],
      "type": "VEC3"
    },
    {
      "bufferView": 3,
      "byteOffset": 920800,
      "componentType": 5126,
      "count": 10814,
      "max": [
        1.0,
        1.0,
        1.0,
        1.0
      ],
      "min": [
        -1.0,
        -1.0,
        -1.0,
        -1.0
      ],
      "type": "VEC4"
    },
    {
      "bufferView": 1,
      "byteOffset": 460400,
      "componentType": 5126,
      "count": 10814,
      "max": [
        0.9919999837875366,
        0.9934999942779541
      ],
      "min": [
        0.05609999969601631,
        0.45969998836517334
      ],
      "type": "VEC2"
    },
    {
      "bufferView": 0,
      "byteOffset": 638340,
      "componentType": 5125,
      "count": 30756,
      "type": "SCALAR"
    },
    {
      "bufferView": 2,
      "byteOffset": 1640736,
      "componentType": 5126,
      "count": 2387,
      "max": [
        804.4680786132813,
        2849.5869140625,
        1139.2969970703125
      ],
      "min": [
        -804.4680786132813,
        77.2249984741211,
        217.2633056640625
      ],
      "type": "VEC3"
    },
    {
      "bufferView": 2,
      "byteOffset": 1669380,
      "componentType": 5126,
      "count": 2387,
      "max": [
        1.0,
        1.0,
        1.0
      ],
      "min": [
        -1.0,
        -1.0,
        -1.0
      ],
      "type": "VEC3"
    },
    {
      "bufferView": 3,
      "byteOffset": 1093824,
      "componentType": 5126,
      "count": 2387,
      "max": [
        1.0,
        1.0,
        1.0,
        1.0
      ],
      "min": [
        -1.0,
        -1.0,
        -1.0,
        -1.0
      ],
      "type": "VEC4"
    },
    {
      "bufferView": 1,
      "byteOffset": 546912,
      "componentType": 5126,
      "count": 2387,
      "max": [
        0.9842000007629395,
        0.9437999725341797
      ],
      "min": [
        0.0044999998062849045,
        0.01140000019222498
      ],
      "type": "VEC2"
    },
    {
      "bufferView": 0,
      "byteOffset": 761364,
      "componentType": 5125,
      "count": 6864,
      "type": "SCALAR"
    }
  ],
  "asset": {
    "extras": {
      "author": "arc4de (https://sketchfab.com/arc4de)",
      "license": "CC-BY-4.0 (http://creativecommons.org/licenses/by/4.0/)",
      "source": "https://sketchfab.com/3d-models/m113-7fe132c071584049b51d3569726021a0",
      "title": "M113"
    },
    "generator": "Sketchfab-16.33.0",
    "version": "2.0"
  },
  "bufferViews": [
    {
      "buffer": 0,
      "byteLength": 788820,
      "name": "floatBufferViews",
      "target": 34963
    },
    {
      "buffer": 0,
      "byteLength": 566008,
      "byteOffset": 788820,
      "byteStride": 8,
      "name": "floatBufferViews",
      "target": 34962
    },
    {
      "buffer": 0,
      "byteLength": 1698024,
      "byteOffset": 1354828,
      "byteStride": 12,
      "name": "floatBufferViews",
      "target": 34962
    },
    {
      "buffer": 0,
      "byteLength": 1132016,
      "byteOffset": 3052852,
      "byteStride": 16,
      "name": "floatBufferViews",
      "target": 34962
    }
  ],
  "buffers": [
    {
      "byteLength": 4184868,
      "uri": "scene.bin"
    }
  ],
  "images": [
    {
      "uri": "textures/material_0_baseColor.png"
    },
    {
      "uri": "textures/material_0_metallicRoughness.png"
    },
    {
      "uri": "textures/material_0_normal.png"
    }
  ],
  "materials": [
    {
      "doubleSided": true,
      "name": "material_0",
      "normalTexture": {
        "index": 2
      },
      "occlusionTexture": {
        "index": 1
      },
      "pbrMetallicRoughness": {
        "baseColorTexture": {
          "index": 0
        },
        "metallicRoughnessTexture": {
          "index": 1
        }
      }
    }
  ],
  "meshes": [
    {
      "name": "Object_0",
      "primitives": [
        {
          "attributes": {
            "NORMAL": 1,
            "POSITION": 0,
            "TANGENT": 2,
            "TEXCOORD_0": 3
          },
          "indices": 4,
          "material": 0,
          "mode": 4
        }
      ]
    },
    {
      "name": "Object_1",
      "primitives": [
        {
          "attributes": {
            "NORMAL": 6,
            "POSITION": 5,
            "TANGENT": 7,
            "TEXCOORD_0": 8
          },
          "indices": 9,
          "material": 0,
          "mode": 4
        }
      ]
    },
    {
      "name": "Object_2",
      "primitives": [
        {
          "attributes": {
            "NORMAL": 11,
            "POSITION": 10,
            "TANGENT": 12,
            "TEXCOORD_0": 13
          },
          "indices": 14,
          "material": 0,
          "mode": 4
        }
      ]
    },
    {
      "name": "Object_3",
      "primitives": [
        {
          "attributes": {
            "NORMAL": 16,
            "POSITION": 15,
            "TANGENT": 17,
            "TEXCOORD_0": 18
          },
          "indices": 19,
          "material": 0,
          "mode": 4
        }
      ]
    },
    {
      "name": "Object_4",
      "primitives": [
        {
          "attributes": {
            "NORMAL": 21,
            "POSITION": 20,
            "TANGENT": 22,
            "TEXCOORD_0": 23
          },
          "indices": 24,
          "material": 0,
          "mode": 4
        }
      ]
    }
  ],
  "nodes": [
    {
      "children": [
        1
      ],
      "matrix": [
        1.0,
        0.0,
        0.0,
        0.0,
        0.0,
        2.220446049250313e-16,
        -1.0,
        0.0,
        0.0,
        1.0,
        2.220446049250313e-16,
        0.0,
        0.0,
        0.0,
        0.0,
        1.0
      ],
      "name": "Sketchfab_model"
    },
    {
      "children": [
        2,
        3,
        4,
        5,
        6
      ],
      "name": "m113.obj.cleaner.materialmerger.gles"
    },
    {
      "mesh": 0,
      "name": "Object_2"
    },
    {
      "mesh": 1,
      "name": "Object_3"
    },
    {
      "mesh": 2,
      "name": "Object_4"
    },
    {
      "mesh": 3,
      "name": "Object_5"
    },
    {
      "mesh": 4,
      "name": "Object_6"
    }
  ],
  "samplers": [
    {
      "magFilter": 9729,
      "minFilter": 9987,
      "wrapS": 10497,
      "wrapT": 10497
    }
  ],
  "scene": 0,
  "scenes": [
    {
      "name": "Sketchfab_Scene",
      "nodes": [
        0
      ]
    }
  ],
  "textures": [
    {
      "sampler": 0,
      "source": 0
    },
    {
      "sampler": 0,
      "source": 1
    },
    {
      "sampler": 0,
      "source": 2
    }
  ]
}
