{
  "asset": {
    "version": "2.0",
    "generator": "MAIRA Vegetation Generator"
  },
  "scene": 0,
  "scenes": [
    {
      "name": "Tree Tall Scene",
      "nodes": [0]
    }
  ],
  "nodes": [
    {
      "name": "Tree_Tall_01",
      "mesh": 0,
      "scale": [1.0, 1.0, 1.0]
    }
  ],
  "meshes": [
    {
      "name": "Tree_Tall_Mesh",
      "primitives": [
        {
          "attributes": {
            "POSITION": 0,
            "NORMAL": 1,
            "TEXCOORD_0": 2
          },
          "indices": 3,
          "material": 0
        }
      ]
    }
  ],
  "materials": [
    {
      "name": "Tree_Tall_Material",
      "pbrMetallicRoughness": {
        "baseColorFactor": [0.4, 0.8, 0.3, 1.0],
        "metallicFactor": 0.0,
        "roughnessFactor": 0.9
      }
    }
  ],
  "accessors": [
    {
      "bufferView": 0,
      "componentType": 5126,
      "count": 48,
      "type": "VEC3",
      "max": [1.0, 3.0, 1.0],
      "min": [-1.0, 0.0, -1.0]
    }
  ],
  "bufferViews": [
    {
      "buffer": 0,
      "byteLength": 576,
      "byteOffset": 0
    }
  ],
  "buffers": [
    {
      "byteLength": 576,
      "uri": "data:application/octet-stream;base64,..."
    }
  ]
}