{
  "accessors": [
    {
      "bufferView": 2,
      "componentType": 5126,
      "count": 5132,
      "max": [
        1.512470006942749,
        3.3603899478912354,
        1.8214000463485718
      ],
      "min": [
        -1.51242995262146,
        -3.1573801040649414,
        0.4353199899196625
      ],
      "type": "VEC3"
    },
    {
      "bufferView": 2,
      "byteOffset": 61584,
      "componentType": 5126,
      "count": 5132,
      "max": [
        1.0,
        1.0,
        1.0
      ],
      "min": [
        -1.0,
        -1.0,
        -1.0
      ],
      "type": "VEC3"
    },
    {
      "bufferView": 3,
      "componentType": 5126,
      "count": 5132,
      "max": [
        1.0,
        1.0,
        1.0,
        1.0
      ],
      "min": [
        -1.0,
        -1.0,
        -1.0,
        -1.0
      ],
      "type": "VEC4"
    },
    {
      "bufferView": 1,
      "componentType": 5126,
      "count": 5132,
      "max": [
        1.0,
        -0.5364999771118164
      ],
      "min": [
        0.40540000796318054,
        -0.9984999895095825
      ],
      "type": "VEC2"
    },
    {
      "bufferView": 0,
      "componentType": 5125,
      "count": 11826,
      "type": "SCALAR"
    },
    {
      "bufferView": 2,
      "byteOffset": 123168,
      "componentType": 5126,
      "count": 7385,
      "max": [
        1.1793500185012817,
        2.9360220432281494,
        2.4223270416259766
      ],
      "min": [
        -1.1793400049209595,
        -0.4101479947566986,
        0.8724669814109802
      ],
      "type": "VEC3"
    },
    {
      "bufferView": 2,
      "byteOffset": 211788,
      "componentType": 5126,
      "count": 7385,
      "max": [
        1.0,
        1.0,
        1.0
      ],
      "min": [
        -1.0,
        -1.0,
        -1.0
      ],
      "type": "VEC3"
    },
    {
      "bufferView": 3,
      "byteOffset": 82112,
      "componentType": 5126,
      "count": 7385,
      "max": [
        1.0,
        1.0,
        1.0,
        1.0
      ],
      "min": [
        -1.0,
        -1.0,
        -1.0,
        -1.0
      ],
      "type": "VEC4"
    },
    {
      "bufferView": 1,
      "byteOffset": 41056,
      "componentType": 5126,
      "count": 7385,
      "max": [
        0.9939000010490417,
        -0.23589999973773956
      ],
      "min": [
        0.0020000000949949026,
        -0.9879999756813049
      ],
      "type": "VEC2"
    },
    {
      "bufferView": 0,
      "byteOffset": 47304,
      "componentType": 5125,
      "count": 20628,
      "type": "SCALAR"
    },
    {
      "bufferView": 2,
      "byteOffset": 300408,
      "componentType": 5126,
      "count": 416,
      "max": [
        1.5542800426483154,
        1.4080699682235718,
        1.4287300109863281
      ],
      "min": [
        -1.5492099523544312,
        -2.407249927520752,
        1.268380045890808
      ],
      "type": "VEC3"
    },
    {
      "bufferView": 2,
      "byteOffset": 305400,
      "componentType": 5126,
      "count": 416,
      "max": [
        0.9606271386146545,
        0.92727130651474,
        0.8594651222229004
      ],
      "min": [
        -0.9733311533927917,
        -0.925661563873291,
        -0.8840678334236145
      ],
      "type": "VEC3"
    },
    {
      "bufferView": 3,
      "byteOffset": 200272,
      "componentType": 5126,
      "count": 416,
      "max": [
        0.9872466325759888,
        0.9318920373916626,
        0.9665846824645996,
        1.0
      ],
      "min": [
        -0.9874678254127502,
        -0.9486860036849976,
        -0.4708458483219147,
        -1.0
      ],
      "type": "VEC4"
    },
    {
      "bufferView": 1,
      "byteOffset": 100136,
      "componentType": 5126,
      "count": 416,
      "max": [
        0.9731000065803528,
        -0.007799999788403511
      ],
      "min": [
        0.047600001096725464,
        -0.9319000244140625
      ],
      "type": "VEC2"
    },
    {
      "bufferView": 0,
      "byteOffset": 129816,
      "componentType": 5125,
      "count": 624,
      "type": "SCALAR"
    },
    {
      "bufferView": 2,
      "byteOffset": 310392,
      "componentType": 5126,
      "count": 4171,
      "max": [
        -1.0538100004196167,
        3.252650022506714,
        1.1808500289916992
      ],
      "min": [
        -1.5368399620056152,
        -2.989069938659668,
        -0.007550000213086605
      ],
      "type": "VEC3"
    },
    {
      "bufferView": 2,
      "byteOffset": 360444,
      "componentType": 5126,
      "count": 4171,
      "max": [
        1.0,
        0.9999982118606567,
        1.0
      ],
      "min": [
        -1.0,
        -0.9999968409538269,
        -1.0
      ],
      "type": "VEC3"
    },
    {
      "bufferView": 3,
      "byteOffset": 206928,
      "componentType": 5126,
      "count": 4171,
      "max": [
        1.0,
        0.9994854927062988,
        1.0,
        1.0
      ],
      "min": [
        -1.0,
        -0.9995982050895691,
        -1.0,
        -1.0
      ],
      "type": "VEC4"
    },
    {
      "bufferView": 1,
      "byteOffset": 103464,
      "componentType": 5126,
      "count": 4171,
      "max": [
        0.9955999851226807,
        4.289899826049805
      ],
      "min": [
        0.002899999963119626,
        -7.847400188446045
      ],
      "type": "VEC2"
    },
    {
      "bufferView": 0,
      "byteOffset": 132312,
      "componentType": 5125,
      "count": 12546,
      "type": "SCALAR"
    },
    {
      "bufferView": 2,
      "byteOffset": 410496,
      "componentType": 5126,
      "count": 124,
      "max": [
        0.05480099841952324,
        -3.840730905532837,
        2.0762200355529785
      ],
      "min": [
        -0.05498899891972542,
        -4.66015100479126,
        1.966380000114441
      ],
      "type": "VEC3"
    },
    {
      "bufferView": 2,
      "byteOffset": 411984,
      "componentType": 5126,
      "count": 124,
      "max": [
        0.9990193843841553,
        0.0002385184052400291,
        0.9990147948265076
      ],
      "min": [
        -0.9990692734718323,
        -1.0,
        -0.9991265535354614
      ],
      "type": "VEC3"
    },
    {
      "bufferView": 3,
      "byteOffset": 273664,
      "componentType": 5126,
      "count": 124,
      "max": [
        0.9991113543510437,
        0.0729769840836525,
        0.999269425868988,
        1.0
      ],
      "min": [
        -1.0,
        -0.07114201039075851,
        -0.9990732073783875,
        -1.0
      ],
      "type": "VEC4"
    },
    {
      "bufferView": 1,
      "byteOffset": 136832,
      "componentType": 5126,
      "count": 124,
      "max": [
        5.356800079345703,
        -0.00019999999494757503
      ],
      "min": [
        -5.156300067901611,
        -0.9890000224113464
      ],
      "type": "VEC2"
    },
    {
      "bufferView": 0,
      "byteOffset": 182496,
      "componentType": 5125,
      "count": 354,
      "type": "SCALAR"
    },
    {
      "bufferView": 2,
      "byteOffset": 413472,
      "componentType": 5126,
      "count": 4171,
      "max": [
        1.536829948425293,
        3.252650022506714,
        1.1808500289916992
      ],
      "min": [
        1.0538500547409058,
        -2.989069938659668,
        -0.007550000213086605
      ],
      "type": "VEC3"
    },
    {
      "bufferView": 2,
      "byteOffset": 463524,
      "componentType": 5126,
      "count": 4171,
      "max": [
        1.0,
        0.9999982118606567,
        1.0
      ],
      "min": [
        -1.0,
        -0.9999968409538269,
        -1.0
      ],
      "type": "VEC3"
    },
    {
      "bufferView": 3,
      "byteOffset": 275648,
      "componentType": 5126,
      "count": 4171,
      "max": [
        1.0,
        0.999485433101654,
        1.0,
        1.0
      ],
      "min": [
        -1.0,
        -0.9995981454849243,
        -1.0,
        -1.0
      ],
      "type": "VEC4"
    },
    {
      "bufferView": 1,
      "byteOffset": 137824,
      "componentType": 5126,
      "count": 4171,
      "max": [
        0.9955999851226807,
        4.271100044250488
      ],
      "min": [
        0.002899999963119626,
        -7.732800006866455
      ],
      "type": "VEC2"
    },
    {
      "bufferView": 0,
      "byteOffset": 183912,
      "componentType": 5125,
      "count": 12546,
      "type": "SCALAR"
    },
    {
      "bufferView": 2,
      "byteOffset": 513576,
      "componentType": 5126,
      "count": 2674,
      "max": [
        0.10159000009298325,
        1.612149953842163,
        2.837519884109497
      ],
      "min": [
        -0.17500999569892883,
        1.2221800088882446,
        2.7595300674438477
      ],
      "type": "VEC3"
    },
    {
      "bufferView": 2,
      "byteOffset": 545664,
      "componentType": 5126,
      "count": 2674,
      "max": [
        0.9997383952140808,
        1.0,
        0.9999707341194153
      ],
      "min": [
        -0.9990745782852173,
        -0.996785044670105,
        -0.9999865293502808
      ],
      "type": "VEC3"
    },
    {
      "bufferView": 3,
      "byteOffset": 342384,
      "componentType": 5126,
      "count": 2674,
      "max": [
        0.8829156160354614,
        0.9999998807907104,
        0.9094752669334412,
        1.0
      ],
      "min": [
        -0.9890645146369934,
        -0.7397332787513733,
        -0.9999600052833557,
        1.0
      ],
      "type": "VEC4"
    },
    {
      "bufferView": 1,
      "byteOffset": 171192,
      "componentType": 5126,
      "count": 2674,
      "max": [
        0.9884999990463257,
        -0.014700000174343586
      ],
      "min": [
        0.28769999742507935,
        -0.987500011920929
      ],
      "type": "VEC2"
    },
    {
      "bufferView": 0,
      "byteOffset": 234096,
      "componentType": 5125,
      "count": 4956,
      "type": "SCALAR"
    },
    {
      "bufferView": 2,
      "byteOffset": 577752,
      "componentType": 5126,
      "count": 6504,
      "max": [
        0.4449650049209595,
        1.6222679615020752,
        2.8817899227142334
      ],
      "min": [
        -0.3065569996833801,
        -0.8784030079841614,
        1.8356529474258423
      ],
      "type": "VEC3"
    },
    {
      "bufferView": 2,
      "byteOffset": 655800,
      "componentType": 5126,
      "count": 6504,
      "max": [
        1.0,
        1.0,
        1.0
      ],
      "min": [
        -1.0,
        -1.0,
        -1.0
      ],
      "type": "VEC3"
    },
    {
      "bufferView": 3,
      "byteOffset": 385168,
      "componentType": 5126,
      "count": 6504,
      "max": [
        1.0,
        1.0,
        1.0,
        1.0
      ],
      "min": [
        -1.0,
        -1.0,
        -1.0,
        -1.0
      ],
      "type": "VEC4"
    },
    {
      "bufferView": 1,
      "byteOffset": 192584,
      "componentType": 5126,
      "count": 6504,
      "max": [
        0.9961000084877014,
        -0.005900000222027302
      ],
      "min": [
        0.005400000140070915,
        -0.9811999797821045
      ],
      "type": "VEC2"
    },
    {
      "bufferView": 0,
      "byteOffset": 253920,
      "componentType": 5125,
      "count": 15144,
      "type": "SCALAR"
    },
    {
      "bufferView": 2,
      "byteOffset": 733848,
      "componentType": 5126,
      "count": 2915,
      "max": [
        0.12246400117874146,
        1.640552043914795,
        2.8320000171661377
      ],
      "min": [
        -0.2728259861469269,
        0.8927980065345764,
        2.5771050453186035
      ],
      "type": "VEC3"
    },
    {
      "bufferView": 2,
      "byteOffset": 768828,
      "componentType": 5126,
      "count": 2915,
      "max": [
        1.0,
        1.0,
        1.0
      ],
      "min": [
        -1.0,
        -1.0,
        -1.0
      ],
      "type": "VEC3"
    },
    {
      "bufferView": 3,
      "byteOffset": 489232,
      "componentType": 5126,
      "count": 2915,
      "max": [
        1.0,
        1.0,
        1.0,
        1.0
      ],
      "min": [
        -1.0,
        -1.0,
        -1.0,
        1.0
      ],
      "type": "VEC4"
    },
    {
      "bufferView": 1,
      "byteOffset": 244616,
      "componentType": 5126,
      "count": 2915,
      "max": [
        0.9976000189781189,
        -0.0027000000700354576
      ],
      "min": [
        0.0020000000949949026,
        -0.9983000159263611
      ],
      "type": "VEC2"
    },
    {
      "bufferView": 0,
      "byteOffset": 314496,
      "componentType": 5125,
      "count": 6795,
      "type": "SCALAR"
    },
    {
      "bufferView": 2,
      "byteOffset": 803808,
      "componentType": 5126,
      "count": 11302,
      "max": [
        1.600350022315979,
        3.363070011138916,
        1.87253999710083
      ],
      "min": [
        -1.520550012588501,
        -3.211869955062866,
        0.06892900168895721
      ],
      "type": "VEC3"
    },
    {
      "bufferView": 2,
      "byteOffset": 939432,
      "componentType": 5126,
      "count": 11302,
      "max": [
        1.0,
        1.0,
        1.0
      ],
      "min": [
        -1.0,
        -1.0,
        -1.0
      ],
      "type": "VEC3"
    },
    {
      "bufferView": 3,
      "byteOffset": 535872,
      "componentType": 5126,
      "count": 11302,
      "max": [
        1.0,
        1.0,
        1.0,
        1.0
      ],
      "min": [
        -1.0,
        -1.0,
        -1.0,
        -1.0
      ],
      "type": "VEC4"
    },
    {
      "bufferView": 1,
      "byteOffset": 267936,
      "componentType": 5126,
      "count": 11302,
      "max": [
        0.9993000030517578,
        -0.0010000000474974513
      ],
      "min": [
        0.00019999999494757503,
        -0.9994999766349792
      ],
      "type": "VEC2"
    },
    {
      "bufferView": 0,
      "byteOffset": 341676,
      "componentType": 5125,
      "count": 25710,
      "type": "SCALAR"
    },
    {
      "bufferView": 2,
      "byteOffset": 1075056,
      "componentType": 5126,
      "count": 28505,
      "max": [
        1.600350022315979,
        3.5259199142456055,
        1.87253999710083
      ],
      "min": [
        -1.60030996799469,
        -3.1682701110839844,
        0.34571000933647156
      ],
      "type": "VEC3"
    },
    {
      "bufferView": 2,
      "byteOffset": 1417116,
      "componentType": 5126,
      "count": 28505,
      "max": [
        1.0,
        1.0,
        1.0
      ],
      "min": [
        -1.0,
        -1.0,
        -1.0
      ],
      "type": "VEC3"
    },
    {
      "bufferView": 3,
      "byteOffset": 716704,
      "componentType": 5126,
      "count": 28505,
      "max": [
        1.0,
        1.0,
        1.0,
        1.0
      ],
      "min": [
        -1.0,
        -1.0,
        -1.0,
        -1.0
      ],
      "type": "VEC4"
    },
    {
      "bufferView": 1,
      "byteOffset": 358352,
      "componentType": 5126,
      "count": 28505,
      "max": [
        0.9993000030517578,
        -0.0010000000474974513
      ],
      "min": [
        0.000699999975040555,
        -0.9998000264167786
      ],
      "type": "VEC2"
    },
    {
      "bufferView": 0,
      "byteOffset": 444516,
      "componentType": 5125,
      "count": 65535,
      "type": "SCALAR"
    },
    {
      "bufferView": 2,
      "byteOffset": 1759176,
      "componentType": 5126,
      "count": 11299,
      "max": [
        -1.030743956565857,
        3.1823599338531494,
        1.1595720052719116
      ],
      "min": [
        -1.5130339860916138,
        -2.968111038208008,
        0.06892900168895721
      ],
      "type": "VEC3"
    },
    {
      "bufferView": 2,
      "byteOffset": 1894764,
      "componentType": 5126,
      "count": 11299,
      "max": [
        1.0,
        1.0,
        1.0
      ],
      "min": [
        -1.0,
        -1.0,
        -1.0
      ],
      "type": "VEC3"
    },
    {
      "bufferView": 3,
      "byteOffset": 1172784,
      "componentType": 5126,
      "count": 11299,
      "max": [
        0.9999956488609314,
        1.0,
        1.0,
        1.0
      ],
      "min": [
        -0.9999825358390808,
        -1.0,
        -1.0,
        -1.0
      ],
      "type": "VEC4"
    },
    {
      "bufferView": 1,
      "byteOffset": 586392,
      "componentType": 5126,
      "count": 11299,
      "max": [
        0.39149999618530273,
        -0.6111999750137329
      ],
      "min": [
        0.0010000000474974513,
        -0.9998000264167786
      ],
      "type": "VEC2"
    },
    {
      "bufferView": 0,
      "byteOffset": 706656,
      "componentType": 5125,
      "count": 27510,
      "type": "SCALAR"
    },
    {
      "bufferView": 2,
      "byteOffset": 2030352,
      "componentType": 5126,
      "count": 9669,
      "max": [
        1.5129740238189697,
        1.8148670196533203,
        1.1596219539642334
      ],
      "min": [
        -1.5045239925384521,
        -2.9675910472869873,
        0.0689300000667572
      ],
      "type": "VEC3"
    },
    {
      "bufferView": 2,
      "byteOffset": 2146380,
      "componentType": 5126,
      "count": 9669,
      "max": [
        1.0,
        1.0,
        1.0
      ],
      "min": [
        -1.0,
        -1.0,
        -1.0
      ],
      "type": "VEC3"
    },
    {
      "bufferView": 3,
      "byteOffset": 1353568,
      "componentType": 5126,
      "count": 9669,
      "max": [
        1.0,
        1.0,
        1.0,
        1.0
      ],
      "min": [
        -1.0,
        -1.0,
        -1.0,
        -1.0
      ],
      "type": "VEC4"
    },
    {
      "bufferView": 1,
      "byteOffset": 676784,
      "componentType": 5126,
      "count": 9669,
      "max": [
        0.4041999876499176,
        -0.6111999750137329
      ],
      "min": [
        0.0010000000474974513,
        -0.9998000264167786
      ],
      "type": "VEC2"
    },
    {
      "bufferView": 0,
      "byteOffset": 816696,
      "componentType": 5125,
      "count": 22968,
      "type": "SCALAR"
    },
    {
      "bufferView": 2,
      "byteOffset": 2262408,
      "componentType": 5126,
      "count": 11846,
      "max": [
        1.6038399934768677,
        3.5885109901428223,
        1.8092390298843384
      ],
      "min": [
        -0.9834589958190918,
        -3.236603021621704,
        0.0689300000667572
      ],
      "type": "VEC3"
    },
    {
      "bufferView": 2,
      "byteOffset": 2404560,
      "componentType": 5126,
      "count": 11846,
      "max": [
        1.0,
        1.0,
        1.0
      ],
      "min": [
        -1.0,
        -1.0,
        -1.0
      ],
      "type": "VEC3"
    },
    {
      "bufferView": 3,
      "byteOffset": 1508272,
      "componentType": 5126,
      "count": 11846,
      "max": [
        1.0,
        1.0,
        1.0,
        1.0
      ],
      "min": [
        -1.0,
        -1.0,
        -1.0,
        -1.0
      ],
      "type": "VEC4"
    },
    {
      "bufferView": 1,
      "byteOffset": 754136,
      "componentType": 5126,
      "count": 11846,
      "max": [
        1.0002000331878662,
        -0.0005000000237487257
      ],
      "min": [
        0.000699999975040555,
        -0.9998000264167786
      ],
      "type": "VEC2"
    },
    {
      "bufferView": 0,
      "byteOffset": 908568,
      "componentType": 5125,
      "count": 29943,
      "type": "SCALAR"
    },
    {
      "bufferView": 2,
      "byteOffset": 2546712,
      "componentType": 5126,
      "count": 11059,
      "max": [
        1.6083999872207642,
        3.4107279777526855,
        1.7823699712753296
      ],
      "min": [
        -1.608389973640442,
        -2.9955949783325195,
        0.3536530137062073
      ],
      "type": "VEC3"
    },
    {
      "bufferView": 2,
      "byteOffset": 2679420,
      "componentType": 5126,
      "count": 11059,
      "max": [
        1.0,
        1.0,
        1.0
      ],
      "min": [
        -1.0,
        -1.0,
        -1.0
      ],
      "type": "VEC3"
    },
    {
      "bufferView": 3,
      "byteOffset": 1697808,
      "componentType": 5126,
      "count": 11059,
      "max": [
        1.0,
        1.0,
        1.0,
        1.0
      ],
      "min": [
        -1.0,
        -1.0,
        -1.0,
        -1.0
      ],
      "type": "VEC4"
    },
    {
      "bufferView": 1,
      "byteOffset": 848904,
      "componentType": 5126,
      "count": 11059,
      "max": [
        0.9987999796867371,
        -0.0010000000474974513
      ],
      "min": [
        0.00019999999494757503,
        -0.9954000115394592
      ],
      "type": "VEC2"
    },
    {
      "bufferView": 0,
      "byteOffset": 1028340,
      "componentType": 5125,
      "count": 25059,
      "type": "SCALAR"
    },
    {
      "bufferView": 2,
      "byteOffset": 2812128,
      "componentType": 5126,
      "count": 11902,
      "max": [
        1.6083990335464478,
        3.5885109901428223,
        1.8732119798660278
      ],
      "min": [
        -1.6038299798965454,
        -3.1499979496002197,
        0.49492499232292175
      ],
      "type": "VEC3"
    },
    {
      "bufferView": 2,
      "byteOffset": 2954952,
      "componentType": 5126,
      "count": 11902,
      "max": [
        1.0,
        1.0,
        1.0
      ],
      "min": [
        -1.0,
        -1.0,
        -1.0
      ],
      "type": "VEC3"
    },
    {
      "bufferView": 3,
      "byteOffset": 1874752,
      "componentType": 5126,
      "count": 11902,
      "max": [
        1.0,
        1.0,
        1.0,
        1.0
      ],
      "min": [
        -1.0,
        -1.0,
        -1.0,
        -1.0
      ],
      "type": "VEC4"
    },
    {
      "bufferView": 1,
      "byteOffset": 937376,
      "componentType": 5126,
      "count": 11902,
      "max": [
        1.0002000331878662,
        -0.0010000000474974513
      ],
      "min": [
        0.0005000000237487257,
        -0.6283000111579895
      ],
      "type": "VEC2"
    },
    {
      "bufferView": 0,
      "byteOffset": 1128576,
      "componentType": 5125,
      "count": 28497,
      "type": "SCALAR"
    },
    {
      "bufferView": 2,
      "byteOffset": 3097776,
      "componentType": 5126,
      "count": 2015,
      "max": [
        -1.0466059446334839,
        3.15474009513855,
        1.6535199880599976
      ],
      "min": [
        -1.5967259407043457,
        -3.0588059425354004,
        0.8260769844055176
      ],
      "type": "VEC3"
    },
    {
      "bufferView": 2,
      "byteOffset": 3121956,
      "componentType": 5126,
      "count": 2015,
      "max": [
        1.0,
        1.0,
        1.0
      ],
      "min": [
        -1.0,
        -1.0,
        -1.0
      ],
      "type": "VEC3"
    },
    {
      "bufferView": 3,
      "byteOffset": 2065184,
      "componentType": 5126,
      "count": 2015,
      "max": [
        1.0,
        1.0,
        0.9965730905532837,
        1.0
      ],
      "min": [
        -1.0,
        -1.0,
        -1.0,
        -1.0
      ],
      "type": "VEC4"
    },
    {
      "bufferView": 1,
      "byteOffset": 1032592,
      "componentType": 5126,
      "count": 2015,
      "max": [
        0.9968000054359436,
        -0.08910000324249268
      ],
      "min": [
        0.065700002014637,
        -0.5655999779701233
      ],
      "type": "VEC2"
    },
    {
      "bufferView": 0,
      "byteOffset": 1242564,
      "componentType": 5125,
      "count": 5256,
      "type": "SCALAR"
    },
    {
      "bufferView": 2,
      "byteOffset": 3146136,
      "componentType": 5126,
      "count": 780,
      "max": [
        0.7948099970817566,
        2.6721599102020264,
        5.0165300369262695
      ],
      "min": [
        -0.7978500127792358,
        -0.5369600057601929,
        1.977910041809082
      ],
      "type": "VEC3"
    },
    {
      "bufferView": 2,
      "byteOffset": 3155496,
      "componentType": 5126,
      "count": 780,
      "max": [
        0.9872493743896484,
        0.999069094657898,
        1.0
      ],
      "min": [
        -0.9767517447471619,
        -0.9898622632026672,
        -0.9975040555000305
      ],
      "type": "VEC3"
    },
    {
      "bufferView": 3,
      "byteOffset": 2097424,
      "componentType": 5126,
      "count": 780,
      "max": [
        0.9860333204269409,
        0.9999848008155823,
        0.9788778424263,
        1.0
      ],
      "min": [
        -0.9977056980133057,
        -0.9798981547355652,
        -0.9979686141014099,
        -1.0
      ],
      "type": "VEC4"
    },
    {
      "bufferView": 1,
      "byteOffset": 1048712,
      "componentType": 5126,
      "count": 780,
      "max": [
        0.9945999979972839,
        -0.0012000000569969416
      ],
      "min": [
        0.9147999882698059,
        -0.47519999742507935
      ],
      "type": "VEC2"
    },
    {
      "bufferView": 0,
      "byteOffset": 1263588,
      "componentType": 5125,
      "count": 2913,
      "type": "SCALAR"
    },
    {
      "bufferView": 2,
      "byteOffset": 3164856,
      "componentType": 5126,
      "count": 176,
      "max": [
        1.067091941833496,
        -3.017577886581421,
        1.4547359943389893
      ],
      "min": [
        -1.0665019750595093,
        -3.1000380516052246,
        1.331936001777649
      ],
      "type": "VEC3"
    },
    {
      "bufferView": 2,
      "byteOffset": 3166968,
      "componentType": 5126,
      "count": 176,
      "max": [
        0.9942440390586853,
        0.2696017324924469,
        0.9794567227363586
      ],
      "min": [
        -0.9942432045936584,
        -1.0,
        -0.9795891642570496
      ],
      "type": "VEC3"
    },
    {
      "bufferView": 3,
      "byteOffset": 2109904,
      "componentType": 5126,
      "count": 176,
      "max": [
        0.97958904504776,
        0.9878740310668945,
        0.9980201721191406,
        1.0
      ],
      "min": [
        -0.9999445080757141,
        -0.9875202178955078,
        -0.9999101758003235,
        -1.0
      ],
      "type": "VEC4"
    },
    {
      "bufferView": 1,
      "byteOffset": 1054952,
      "componentType": 5126,
      "count": 176,
      "max": [
        0.5939000248908997,
        -0.414900004863739
      ],
      "min": [
        0.4185999929904938,
        -0.590499997138977
      ],
      "type": "VEC2"
    },
    {
      "bufferView": 0,
      "byteOffset": 1275240,
      "componentType": 5125,
      "count": 720,
      "type": "SCALAR"
    },
    {
      "bufferView": 2,
      "byteOffset": 3169080,
      "componentType": 5126,
      "count": 6692,
      "max": [
        0.7867749929428101,
        1.1597189903259277,
        2.2909419536590576
      ],
      "min": [
        -0.7867550253868103,
        -4.66015100479126,
        1.6801199913024902
      ],
      "type": "VEC3"
    },
    {
      "bufferView": 2,
      "byteOffset": 3249384,
      "componentType": 5126,
      "count": 6692,
      "max": [
        1.0,
        1.0,
        1.0
      ],
      "min": [
        -1.0,
        -1.0,
        -1.0
      ],
      "type": "VEC3"
    },
    {
      "bufferView": 3,
      "byteOffset": 2112720,
      "componentType": 5126,
      "count": 6692,
      "max": [
        1.0,
        1.0,
        1.0,
        1.0
      ],
      "min": [
        -1.0,
        -1.0,
        -1.0,
        -1.0
      ],
      "type": "VEC4"
    },
    {
      "bufferView": 1,
      "byteOffset": 1056360,
      "componentType": 5126,
      "count": 6692,
      "max": [
        0.9970999956130981,
        -0.006300000008195639
      ],
      "min": [
        0.002899999963119626,
        -0.9944000244140625
      ],
      "type": "VEC2"
    },
    {
      "bufferView": 0,
      "byteOffset": 1278120,
      "componentType": 5125,
      "count": 18753,
      "type": "SCALAR"
    },
    {
      "bufferView": 2,
      "byteOffset": 3329688,
      "componentType": 5126,
      "count": 56,
      "max": [
        1.156978964805603,
        3.2869160175323486,
        1.84866201877594
      ],
      "min": [
        -1.4645099639892578,
        -0.3382200002670288,
        1.4480719566345215
      ],
      "type": "VEC3"
    },
    {
      "bufferView": 2,
      "byteOffset": 3330360,
      "componentType": 5126,
      "count": 56,
      "max": [
        0.9226214289665222,
        0.9358545541763306,
        1.0
      ],
      "min": [
        -0.8660735487937927,
        -0.9780680537223816,
        -0.9278354048728943
      ],
      "type": "VEC3"
    },
    {
      "bufferView": 3,
      "byteOffset": 2219792,
      "componentType": 5126,
      "count": 56,
      "max": [
        0.45830872654914856,
        0.14496085047721863,
        0.8794017434120178,
        1.0
      ],
      "min": [
        -0.9150652885437012,
        -1.0,
        -0.3662440776824951,
        -1.0
      ],
      "type": "VEC4"
    },
    {
      "bufferView": 1,
      "byteOffset": 1109896,
      "componentType": 5126,
      "count": 56,
      "max": [
        5.29449987411499,
        1.9845999479293823
      ],
      "min": [
        -3.218600034713745,
        -3.0299999713897705
      ],
      "type": "VEC2"
    },
    {
      "bufferView": 0,
      "byteOffset": 1353132,
      "componentType": 5125,
      "count": 84,
      "type": "SCALAR"
    },
    {
      "bufferView": 2,
      "byteOffset": 3331032,
      "componentType": 5126,
      "count": 1429,
      "max": [
        -0.6210740208625793,
        0.9498850107192993,
        2.7158710956573486
      ],
      "min": [
        -0.8789939880371094,
        0.6885349750518799,
        2.416440963745117
      ],
      "type": "VEC3"
    },
    {
      "bufferView": 2,
      "byteOffset": 3348180,
      "componentType": 5126,
      "count": 1429,
      "max": [
        1.0,
        1.0,
        1.0
      ],
      "min": [
        -1.0,
        -1.0,
        -1.0
      ],
      "type": "VEC3"
    },
    {
      "bufferView": 3,
      "byteOffset": 2220688,
      "componentType": 5126,
      "count": 1429,
      "max": [
        1.0,
        1.0,
        1.0,
        1.0
      ],
      "min": [
        -1.0,
        -1.0,
        -0.9998908042907715,
        1.0
      ],
      "type": "VEC4"
    },
    {
      "bufferView": 1,
      "byteOffset": 1110344,
      "componentType": 5126,
      "count": 1429,
      "max": [
        0.9718999862670898,
        -0.5436000227928162
      ],
      "min": [
        0.2574000060558319,
        -0.9660999774932861
      ],
      "type": "VEC2"
    },
    {
      "bufferView": 0,
      "byteOffset": 1353468,
      "componentType": 5125,
      "count": 3582,
      "type": "SCALAR"
    },
    {
      "bufferView": 2,
      "byteOffset": 3365328,
      "componentType": 5126,
      "count": 17184,
      "max": [
        1.2090799808502197,
        2.958332061767578,
        2.6702070236206055
      ],
      "min": [
        -1.2090699672698975,
        -0.4932279884815216,
        1.7466069459915161
      ],
      "type": "VEC3"
    },
    {
      "bufferView": 2,
      "byteOffset": 3571536,
      "componentType": 5126,
      "count": 17184,
      "max": [
        1.0,
        1.0,
        1.0
      ],
      "min": [
        -1.0,
        -1.0,
        -1.0
      ],
      "type": "VEC3"
    },
    {
      "bufferView": 3,
      "byteOffset": 2243552,
      "componentType": 5126,
      "count": 17184,
      "max": [
        1.0,
        1.0,
        1.0,
        1.0
      ],
      "min": [
        -1.0,
        -1.0,
        -1.0,
        -1.0
      ],
      "type": "VEC4"
    },
    {
      "bufferView": 1,
      "byteOffset": 1121776,
      "componentType": 5126,
      "count": 17184,
      "max": [
        0.9977999925613403,
        -0.0017000000225380063
      ],
      "min": [
        0.000699999975040555,
        -0.9993000030517578
      ],
      "type": "VEC2"
    },
    {
      "bufferView": 0,
      "byteOffset": 1367796,
      "componentType": 5125,
      "count": 43251,
      "type": "SCALAR"
    },
    {
      "bufferView": 2,
      "byteOffset": 3777744,
      "componentType": 5126,
      "count": 3496,
      "max": [
        0.7922539710998535,
        2.797584056854248,
        2.5823841094970703
      ],
      "min": [
        -1.2130579948425293,
        0.30348899960517883,
        1.8561160564422607
      ],
      "type": "VEC3"
    },
    {
      "bufferView": 2,
      "byteOffset": 3819696,
      "componentType": 5126,
      "count": 3496,
      "max": [
        1.0,
        1.0,
        1.0
      ],
      "min": [
        -1.0,
        -1.0,
        -1.0
      ],
      "type": "VEC3"
    },
    {
      "bufferView": 3,
      "byteOffset": 2518496,
      "componentType": 5126,
      "count": 3496,
      "max": [
        1.0,
        1.0,
        1.0,
        1.0
      ],
      "min": [
        -1.0,
        -1.0,
        -1.0,
        -1.0
      ],
      "type": "VEC4"
    },
    {
      "bufferView": 1,
      "byteOffset": 1259248,
      "componentType": 5126,
      "count": 3496,
      "max": [
        0.9990000128746033,
        -0.0012000000569969416
      ],
      "min": [
        0.0010000000474974513,
        -0.9850999712944031
      ],
      "type": "VEC2"
    },
    {
      "bufferView": 0,
      "byteOffset": 1540800,
      "componentType": 5125,
      "count": 9768,
      "type": "SCALAR"
    },
    {
      "bufferView": 2,
      "byteOffset": 3861648,
      "componentType": 5126,
      "count": 50,
      "max": [
        1.0670419931411743,
        -3.1004478931427,
        1.4547359943389893
      ],
      "min": [
        -1.0665919780731201,
        -3.11421799659729,
        1.331936001777649
      ],
      "type": "VEC3"
    },
    {
      "bufferView": 2,
      "byteOffset": 3862248,
      "componentType": 5126,
      "count": 50,
      "max": [
        0.3690538704395294,
        -0.9261764287948608,
        0.36843574047088623
      ],
      "min": [
        -0.36905086040496826,
        -1.0,
        -0.3684505522251129
      ],
      "type": "VEC3"
    },
    {
      "bufferView": 3,
      "byteOffset": 2574432,
      "componentType": 5126,
      "count": 50,
      "max": [
        0.9999067187309265,
        0.3613365888595581,
        0.22264541685581207,
        1.0
      ],
      "min": [
        0.9269983768463135,
        -0.36126235127449036,
        -0.17287662625312805,
        1.0
      ],
      "type": "VEC4"
    },
    {
      "bufferView": 1,
      "byteOffset": 1287216,
      "componentType": 5126,
      "count": 50,
      "max": [
        0.9782999753952026,
        -0.02590000070631504
      ],
      "min": [
        0.5281999707221985,
        -0.47690001130104065
      ],
      "type": "VEC2"
    },
    {
      "bufferView": 0,
      "byteOffset": 1579872,
      "componentType": 5125,
      "count": 192,
      "type": "SCALAR"
    }
  ],
  "asset": {
    "extras": {
      "author": "KojfDiscord (https://sketchfab.com/KojfDiscord)",
      "license": "CC-BY-4.0 (http://creativecommons.org/licenses/by/4.0/)",
      "source": "https://sketchfab.com/3d-models/tam-war-thunder-210099f7fa4d46fcaf095f3ab2ce376a",
      "title": "TAM (War Thunder)"
    },
    "generator": "Sketchfab-16.59.0",
    "version": "2.0"
  },
  "bufferViews": [
    {
      "buffer": 0,
      "byteLength": 1580640,
      "name": "floatBufferViews",
      "target": 34963
    },
    {
      "buffer": 0,
      "byteLength": 1287616,
      "byteOffset": 1580640,
      "byteStride": 8,
      "name": "floatBufferViews",
      "target": 34962
    },
    {
      "buffer": 0,
      "byteLength": 3862848,
      "byteOffset": 2868256,
      "byteStride": 12,
      "name": "floatBufferViews",
      "target": 34962
    },
    {
      "buffer": 0,
      "byteLength": 2575232,
      "byteOffset": 6731104,
      "byteStride": 16,
      "name": "floatBufferViews",
      "target": 34962
    }
  ],
  "buffers": [
    {
      "byteLength": 9306336,
      "uri": "scene.bin"
    }
  ],
  "extensionsRequired": [
    "KHR_materials_pbrSpecularGlossiness"
  ],
  "extensionsUsed": [
    "KHR_materials_pbrSpecularGlossiness"
  ],
  "images": [
    {
      "uri": "textures/137f9742-8c22-4813-9c38-a23fb05c8274_diffuse.jpeg"
    },
    {
      "uri": "textures/137f9742-8c22-4813-9c38-a23fb05c8274_specularGlossiness.jpeg"
    },
    {
      "uri": "textures/137f9742-8c22-4813-9c38-a23fb05c8274_normal.png"
    },
    {
      "uri": "textures/28f710a2-52da-4d76-9f9e-edc4c5e9bc50_diffuse.jpeg"
    },
    {
      "uri": "textures/28f710a2-52da-4d76-9f9e-edc4c5e9bc50_specularGlossiness.jpeg"
    },
    {
      "uri": "textures/28f710a2-52da-4d76-9f9e-edc4c5e9bc50_normal.png"
    },
    {
      "uri": "textures/4f51e809-2f81-48c2-85dd-3b68322e41b3_diffuse.jpeg"
    },
    {
      "uri": "textures/4f51e809-2f81-48c2-85dd-3b68322e41b3_specularGlossiness.jpeg"
    },
    {
      "uri": "textures/4f51e809-2f81-48c2-85dd-3b68322e41b3_normal.png"
    },
    {
      "uri": "textures/777b3a58-6ad7-403b-9fbd-cd8cb575d96c_diffuse.jpeg"
    },
    {
      "uri": "textures/777b3a58-6ad7-403b-9fbd-cd8cb575d96c_specularGlossiness.jpeg"
    },
    {
      "uri": "textures/777b3a58-6ad7-403b-9fbd-cd8cb575d96c_normal.png"
    },
    {
      "uri": "textures/785691a5-953e-4d6e-9323-6e22005b84cc_diffuse.jpeg"
    },
    {
      "uri": "textures/785691a5-953e-4d6e-9323-6e22005b84cc_specularGlossiness.jpeg"
    },
    {
      "uri": "textures/785691a5-953e-4d6e-9323-6e22005b84cc_normal.png"
    },
    {
      "uri": "textures/990f1da2-08ff-41eb-bf7e-73369a69cf10_diffuse.png"
    },
    {
      "uri": "textures/990f1da2-08ff-41eb-bf7e-73369a69cf10_specularGlossiness.jpeg"
    },
    {
      "uri": "textures/990f1da2-08ff-41eb-bf7e-73369a69cf10_normal.png"
    },
    {
      "uri": "textures/9b60a357-53dd-49fa-b030-b1b575c2c075_diffuse.png"
    },
    {
      "uri": "textures/9b60a357-53dd-49fa-b030-b1b575c2c075_specularGlossiness.jpeg"
    },
    {
      "uri": "textures/9b60a357-53dd-49fa-b030-b1b575c2c075_normal.png"
    },
    {
      "uri": "textures/9bfd2709-af50-40c4-ab83-5a7b550aec95_diffuse.jpeg"
    },
    {
      "uri": "textures/9bfd2709-af50-40c4-ab83-5a7b550aec95_specularGlossiness.jpeg"
    },
    {
      "uri": "textures/9bfd2709-af50-40c4-ab83-5a7b550aec95_normal.png"
    },
    {
      "uri": "textures/ae3df470-fbf7-43f0-a122-ed913b9efd7f_diffuse.jpeg"
    },
    {
      "uri": "textures/ae3df470-fbf7-43f0-a122-ed913b9efd7f_specularGlossiness.jpeg"
    },
    {
      "uri": "textures/ae3df470-fbf7-43f0-a122-ed913b9efd7f_normal.png"
    },
    {
      "uri": "textures/bcbe8ecc-ff6c-45ec-a99c-f875bd696d47_diffuse.png"
    },
    {
      "uri": "textures/bcbe8ecc-ff6c-45ec-a99c-f875bd696d47_specularGlossiness.jpeg"
    },
    {
      "uri": "textures/bcbe8ecc-ff6c-45ec-a99c-f875bd696d47_normal.png"
    },
    {
      "uri": "textures/beb40425-b93f-4ad0-a525-2a477d175e29_diffuse.png"
    },
    {
      "uri": "textures/fb1f939b-0b76-4d75-91e9-8a46dab995de_diffuse.png"
    },
    {
      "uri": "textures/fb1f939b-0b76-4d75-91e9-8a46dab995de_specularGlossiness.jpeg"
    },
    {
      "uri": "textures/fb1f939b-0b76-4d75-91e9-8a46dab995de_normal.png"
    }
  ],
  "materials": [
    {
      "doubleSided": true,
      "extensions": {
        "KHR_materials_pbrSpecularGlossiness": {
          "diffuseFactor": [
            1.0,
            1.0,
            1.0,
            1.0
          ],
          "diffuseTexture": {
            "index": 0
          },
          "glossinessFactor": 0.11748543542989995,
          "specularFactor": [
            0.05,
            0.05,
            0.05
          ],
          "specularGlossinessTexture": {
            "index": 1
          }
        }
      },
      "name": "137f9742-8c22-4813-9c38-a23fb05c8274",
      "normalTexture": {
        "index": 2
      }
    },
    {
      "doubleSided": true,
      "extensions": {
        "KHR_materials_pbrSpecularGlossiness": {
          "diffuseFactor": [
            1.0,
            1.0,
            1.0,
            1.0
          ],
          "diffuseTexture": {
            "index": 3
          },
          "glossinessFactor": 0.11748543542989995,
          "specularFactor": [
            0.05,
            0.05,
            0.05
          ],
          "specularGlossinessTexture": {
            "index": 4
          }
        }
      },
      "name": "28f710a2-52da-4d76-9f9e-edc4c5e9bc50",
      "normalTexture": {
        "index": 5
      }
    },
    {
      "doubleSided": true,
      "extensions": {
        "KHR_materials_pbrSpecularGlossiness": {
          "diffuseFactor": [
            1.0,
            1.0,
            1.0,
            1.0
          ],
          "diffuseTexture": {
            "index": 6
          },
          "glossinessFactor": 0.11748543542989995,
          "specularFactor": [
            0.05,
            0.05,
            0.05
          ],
          "specularGlossinessTexture": {
            "index": 7
          }
        }
      },
      "name": "4f51e809-2f81-48c2-85dd-3b68322e41b3",
      "normalTexture": {
        "index": 8
      }
    },
    {
      "doubleSided": true,
      "extensions": {
        "KHR_materials_pbrSpecularGlossiness": {
          "diffuseFactor": [
            1.0,
            1.0,
            1.0,
            1.0
          ],
          "diffuseTexture": {
            "index": 3
          },
          "glossinessFactor": 0.11748543542989995,
          "specularFactor": [
            0.05,
            0.05,
            0.05
          ],
          "specularGlossinessTexture": {
            "index": 4
          }
        }
      },
      "name": "641d9b5e-7858-4578-a81c-ee32d5a3e3a0",
      "normalTexture": {
        "index": 5
      }
    },
    {
      "doubleSided": true,
      "extensions": {
        "KHR_materials_pbrSpecularGlossiness": {
          "diffuseFactor": [
            1.0,
            1.0,
            1.0,
            1.0
          ],
          "diffuseTexture": {
            "index": 6
          },
          "glossinessFactor": 0.11748543542989995,
          "specularFactor": [
            0.05,
            0.05,
            0.05
          ],
          "specularGlossinessTexture": {
            "index": 7
          }
        }
      },
      "name": "6bc630e0-f8a4-4006-9a83-f30b81b0e44d",
      "normalTexture": {
        "index": 8
      }
    },
    {
      "doubleSided": true,
      "extensions": {
        "KHR_materials_pbrSpecularGlossiness": {
          "diffuseFactor": [
            1.0,
            1.0,
            1.0,
            1.0
          ],
          "diffuseTexture": {
            "index": 9
          },
          "glossinessFactor": 0.11748543542989995,
          "specularFactor": [
            0.05,
            0.05,
            0.05
          ],
          "specularGlossinessTexture": {
            "index": 10
          }
        }
      },
      "name": "777b3a58-6ad7-403b-9fbd-cd8cb575d96c",
      "normalTexture": {
        "index": 11
      }
    },
    {
      "doubleSided": true,
      "extensions": {
        "KHR_materials_pbrSpecularGlossiness": {
          "diffuseFactor": [
            1.0,
            1.0,
            1.0,
            1.0
          ],
          "diffuseTexture": {
            "index": 12
          },
          "glossinessFactor": 0.11748543542989995,
          "specularFactor": [
            0.05,
            0.05,
            0.05
          ],
          "specularGlossinessTexture": {
            "index": 13
          }
        }
      },
      "name": "785691a5-953e-4d6e-9323-6e22005b84cc",
      "normalTexture": {
        "index": 14
      }
    },
    {
      "alphaMode": "BLEND",
      "doubleSided": true,
      "extensions": {
        "KHR_materials_pbrSpecularGlossiness": {
          "diffuseFactor": [
            1.0,
            1.0,
            1.0,
            1.0
          ],
          "diffuseTexture": {
            "index": 15
          },
          "glossinessFactor": 0.11748543542989995,
          "specularFactor": [
            0.05,
            0.05,
            0.05
          ],
          "specularGlossinessTexture": {
            "index": 16
          }
        }
      },
      "name": "990f1da2-08ff-41eb-bf7e-73369a69cf10",
      "normalTexture": {
        "index": 17
      }
    },
    {
      "alphaMode": "BLEND",
      "doubleSided": true,
      "extensions": {
        "KHR_materials_pbrSpecularGlossiness": {
          "diffuseFactor": [
            1.0,
            1.0,
            1.0,
            1.0
          ],
          "diffuseTexture": {
            "index": 18
          },
          "glossinessFactor": 0.11748543542989995,
          "specularFactor": [
            0.05,
            0.05,
            0.05
          ],
          "specularGlossinessTexture": {
            "index": 19
          }
        }
      },
      "name": "9b60a357-53dd-49fa-b030-b1b575c2c075",
      "normalTexture": {
        "index": 20
      }
    },
    {
      "doubleSided": true,
      "extensions": {
        "KHR_materials_pbrSpecularGlossiness": {
          "diffuseFactor": [
            1.0,
            1.0,
            1.0,
            1.0
          ],
          "diffuseTexture": {
            "index": 21
          },
          "glossinessFactor": 0.11748543542989995,
          "specularFactor": [
            0.05,
            0.05,
            0.05
          ],
          "specularGlossinessTexture": {
            "index": 22
          }
        }
      },
      "name": "9bfd2709-af50-40c4-ab83-5a7b550aec95",
      "normalTexture": {
        "index": 23
      }
    },
    {
      "doubleSided": true,
      "extensions": {
        "KHR_materials_pbrSpecularGlossiness": {
          "diffuseFactor": [
            1.0,
            1.0,
            1.0,
            1.0
          ],
          "diffuseTexture": {
            "index": 6
          },
          "glossinessFactor": 0.11748543542989995,
          "specularFactor": [
            0.05,
            0.05,
            0.05
          ],
          "specularGlossinessTexture": {
            "index": 7
          }
        }
      },
      "name": "a7bda4e0-65d4-4c10-ae97-ac0713a4811d",
      "normalTexture": {
        "index": 8
      }
    },
    {
      "alphaMode": "BLEND",
      "doubleSided": true,
      "extensions": {
        "KHR_materials_pbrSpecularGlossiness": {
          "diffuseFactor": [
            1.0,
            1.0,
            1.0,
            1.0
          ],
          "diffuseTexture": {
            "index": 18
          },
          "glossinessFactor": 0.11748543542989995,
          "specularFactor": [
            0.05,
            0.05,
            0.05
          ],
          "specularGlossinessTexture": {
            "index": 19
          }
        }
      },
      "name": "ac07e830-c956-4dd2-bccc-e4bc55da8344",
      "normalTexture": {
        "index": 20
      }
    },
    {
      "doubleSided": true,
      "extensions": {
        "KHR_materials_pbrSpecularGlossiness": {
          "diffuseFactor": [
            1.0,
            1.0,
            1.0,
            1.0
          ],
          "diffuseTexture": {
            "index": 24
          },
          "glossinessFactor": 0.11748543542989995,
          "specularFactor": [
            0.05,
            0.05,
            0.05
          ],
          "specularGlossinessTexture": {
            "index": 25
          }
        }
      },
      "name": "ae3df470-fbf7-43f0-a122-ed913b9efd7f",
      "normalTexture": {
        "index": 26
      }
    },
    {
      "alphaMode": "BLEND",
      "doubleSided": true,
      "extensions": {
        "KHR_materials_pbrSpecularGlossiness": {
          "diffuseFactor": [
            1.0,
            1.0,
            1.0,
            1.0
          ],
          "diffuseTexture": {
            "index": 27
          },
          "glossinessFactor": 0.11748543542989995,
          "specularFactor": [
            0.05,
            0.05,
            0.05
          ],
          "specularGlossinessTexture": {
            "index": 28
          }
        }
      },
      "name": "bcbe8ecc-ff6c-45ec-a99c-f875bd696d47",
      "normalTexture": {
        "index": 29
      }
    },
    {
      "alphaMode": "BLEND",
      "doubleSided": true,
      "extensions": {
        "KHR_materials_pbrSpecularGlossiness": {
          "diffuseFactor": [
            1.0,
            1.0,
            1.0,
            0.15
          ],
          "diffuseTexture": {
            "index": 30
          },
          "glossinessFactor": 0.39960880148804667,
          "specularFactor": [
            0.05,
            0.05,
            0.05
          ],
          "specularGlossinessTexture": {
            "index": 10
          }
        }
      },
      "name": "beb40425-b93f-4ad0-a525-2a477d175e29",
      "normalTexture": {
        "index": 11
      }
    },
    {
      "alphaMode": "BLEND",
      "doubleSided": true,
      "extensions": {
        "KHR_materials_pbrSpecularGlossiness": {
          "diffuseFactor": [
            1.0,
            1.0,
            1.0,
            1.0
          ],
          "diffuseTexture": {
            "index": 31
          },
          "glossinessFactor": 0.11748543542989995,
          "specularFactor": [
            0.05,
            0.05,
            0.05
          ],
          "specularGlossinessTexture": {
            "index": 32
          }
        }
      },
      "name": "fb1f939b-0b76-4d75-91e9-8a46dab995de",
      "normalTexture": {
        "index": 33
      }
    }
  ],
  "meshes": [
    {
      "name": "Object_0",
      "primitives": [
        {
          "attributes": {
            "NORMAL": 1,
            "POSITION": 0,
            "TANGENT": 2,
            "TEXCOORD_0": 3
          },
          "indices": 4,
          "material": 1,
          "mode": 4
        }
      ]
    },
    {
      "name": "Object_1",
      "primitives": [
        {
          "attributes": {
            "NORMAL": 6,
            "POSITION": 5,
            "TANGENT": 7,
            "TEXCOORD_0": 8
          },
          "indices": 9,
          "material": 2,
          "mode": 4
        }
      ]
    },
    {
      "name": "Object_2",
      "primitives": [
        {
          "attributes": {
            "NORMAL": 11,
            "POSITION": 10,
            "TANGENT": 12,
            "TEXCOORD_0": 13
          },
          "indices": 14,
          "material": 7,
          "mode": 4
        }
      ]
    },
    {
      "name": "Object_3",
      "primitives": [
        {
          "attributes": {
            "NORMAL": 16,
            "POSITION": 15,
            "TANGENT": 17,
            "TEXCOORD_0": 18
          },
          "indices": 19,
          "material": 8,
          "mode": 4
        }
      ]
    },
    {
      "name": "Object_4",
      "primitives": [
        {
          "attributes": {
            "NORMAL": 21,
            "POSITION": 20,
            "TANGENT": 22,
            "TEXCOORD_0": 23
          },
          "indices": 24,
          "material": 9,
          "mode": 4
        }
      ]
    },
    {
      "name": "Object_5",
      "primitives": [
        {
          "attributes": {
            "NORMAL": 26,
            "POSITION": 25,
            "TANGENT": 27,
            "TEXCOORD_0": 28
          },
          "indices": 29,
          "material": 11,
          "mode": 4
        }
      ]
    },
    {
      "name": "Object_6",
      "primitives": [
        {
          "attributes": {
            "NORMAL": 31,
            "POSITION": 30,
            "TANGENT": 32,
            "TEXCOORD_0": 33
          },
          "indices": 34,
          "material": 15,
          "mode": 4
        }
      ]
    },
    {
      "name": "Object_7",
      "primitives": [
        {
          "attributes": {
            "NORMAL": 36,
            "POSITION": 35,
            "TANGENT": 37,
            "TEXCOORD_0": 38
          },
          "indices": 39,
          "material": 0,
          "mode": 4
        }
      ]
    },
    {
      "name": "Object_8",
      "primitives": [
        {
          "attributes": {
            "NORMAL": 41,
            "POSITION": 40,
            "TANGENT": 42,
            "TEXCOORD_0": 43
          },
          "indices": 44,
          "material": 6,
          "mode": 4
        }
      ]
    },
    {
      "name": "Object_9",
      "primitives": [
        {
          "attributes": {
            "NORMAL": 46,
            "POSITION": 45,
            "TANGENT": 47,
            "TEXCOORD_0": 48
          },
          "indices": 49,
          "material": 3,
          "mode": 4
        }
      ]
    },
    {
      "name": "Object_10",
      "primitives": [
        {
          "attributes": {
            "NORMAL": 51,
            "POSITION": 50,
            "TANGENT": 52,
            "TEXCOORD_0": 53
          },
          "indices": 54,
          "material": 3,
          "mode": 4
        }
      ]
    },
    {
      "name": "Object_11",
      "primitives": [
        {
          "attributes": {
            "NORMAL": 56,
            "POSITION": 55,
            "TANGENT": 57,
            "TEXCOORD_0": 58
          },
          "indices": 59,
          "material": 3,
          "mode": 4
        }
      ]
    },
    {
      "name": "Object_12",
      "primitives": [
        {
          "attributes": {
            "NORMAL": 61,
            "POSITION": 60,
            "TANGENT": 62,
            "TEXCOORD_0": 63
          },
          "indices": 64,
          "material": 3,
          "mode": 4
        }
      ]
    },
    {
      "name": "Object_13",
      "primitives": [
        {
          "attributes": {
            "NORMAL": 66,
            "POSITION": 65,
            "TANGENT": 67,
            "TEXCOORD_0": 68
          },
          "indices": 69,
          "material": 3,
          "mode": 4
        }
      ]
    },
    {
      "name": "Object_14",
      "primitives": [
        {
          "attributes": {
            "NORMAL": 71,
            "POSITION": 70,
            "TANGENT": 72,
            "TEXCOORD_0": 73
          },
          "indices": 74,
          "material": 3,
          "mode": 4
        }
      ]
    },
    {
      "name": "Object_15",
      "primitives": [
        {
          "attributes": {
            "NORMAL": 76,
            "POSITION": 75,
            "TANGENT": 77,
            "TEXCOORD_0": 78
          },
          "indices": 79,
          "material": 3,
          "mode": 4
        }
      ]
    },
    {
      "name": "Object_16",
      "primitives": [
        {
          "attributes": {
            "NORMAL": 81,
            "POSITION": 80,
            "TANGENT": 82,
            "TEXCOORD_0": 83
          },
          "indices": 84,
          "material": 3,
          "mode": 4
        }
      ]
    },
    {
      "name": "Object_17",
      "primitives": [
        {
          "attributes": {
            "NORMAL": 86,
            "POSITION": 85,
            "TANGENT": 87,
            "TEXCOORD_0": 88
          },
          "indices": 89,
          "material": 4,
          "mode": 4
        }
      ]
    },
    {
      "name": "Object_18",
      "primitives": [
        {
          "attributes": {
            "NORMAL": 91,
            "POSITION": 90,
            "TANGENT": 92,
            "TEXCOORD_0": 93
          },
          "indices": 94,
          "material": 5,
          "mode": 4
        }
      ]
    },
    {
      "name": "Object_19",
      "primitives": [
        {
          "attributes": {
            "NORMAL": 96,
            "POSITION": 95,
            "TANGENT": 97,
            "TEXCOORD_0": 98
          },
          "indices": 99,
          "material": 12,
          "mode": 4
        }
      ]
    },
    {
      "name": "Object_20",
      "primitives": [
        {
          "attributes": {
            "NORMAL": 101,
            "POSITION": 100,
            "TANGENT": 102,
            "TEXCOORD_0": 103
          },
          "indices": 104,
          "material": 13,
          "mode": 4
        }
      ]
    },
    {
      "name": "Object_21",
      "primitives": [
        {
          "attributes": {
            "NORMAL": 106,
            "POSITION": 105,
            "TANGENT": 107,
            "TEXCOORD_0": 108
          },
          "indices": 109,
          "material": 10,
          "mode": 4
        }
      ]
    },
    {
      "name": "Object_22",
      "primitives": [
        {
          "attributes": {
            "NORMAL": 111,
            "POSITION": 110,
            "TANGENT": 112,
            "TEXCOORD_0": 113
          },
          "indices": 114,
          "material": 10,
          "mode": 4
        }
      ]
    },
    {
      "name": "Object_23",
      "primitives": [
        {
          "attributes": {
            "NORMAL": 116,
            "POSITION": 115,
            "TANGENT": 117,
            "TEXCOORD_0": 118
          },
          "indices": 119,
          "material": 10,
          "mode": 4
        }
      ]
    },
    {
      "name": "Object_24",
      "primitives": [
        {
          "attributes": {
            "NORMAL": 121,
            "POSITION": 120,
            "TANGENT": 122,
            "TEXCOORD_0": 123
          },
          "indices": 124,
          "material": 14,
          "mode": 4
        }
      ]
    }
  ],
  "nodes": [
    {
      "children": [
        1
      ],
      "matrix": [
        1.0,
        0.0,
        0.0,
        0.0,
        0.0,
        2.220446049250313e-16,
        -1.0,
        0.0,
        0.0,
        1.0,
        2.220446049250313e-16,
        0.0,
        0.0,
        0.0,
        0.0,
        1.0
      ],
      "name": "Sketchfab_model"
    },
    {
      "children": [
        2,
        3,
        4,
        5,
        6,
        7,
        8,
        9,
        10,
        11,
        12,
        13,
        14,
        15,
        16,
        17,
        18,
        19,
        20,
        21,
        22,
        23,
        24,
        25,
        26
      ],
      "name": "TAM.obj.cleaner.materialmerger.gles"
    },
    {
      "mesh": 0,
      "name": "Object_2"
    },
    {
      "mesh": 1,
      "name": "Object_3"
    },
    {
      "mesh": 2,
      "name": "Object_4"
    },
    {
      "mesh": 3,
      "name": "Object_5"
    },
    {
      "mesh": 4,
      "name": "Object_6"
    },
    {
      "mesh": 5,
      "name": "Object_7"
    },
    {
      "mesh": 6,
      "name": "Object_8"
    },
    {
      "mesh": 7,
      "name": "Object_9"
    },
    {
      "mesh": 8,
      "name": "Object_10"
    },
    {
      "mesh": 9,
      "name": "Object_11"
    },
    {
      "mesh": 10,
      "name": "Object_12"
    },
    {
      "mesh": 11,
      "name": "Object_13"
    },
    {
      "mesh": 12,
      "name": "Object_14"
    },
    {
      "mesh": 13,
      "name": "Object_15"
    },
    {
      "mesh": 14,
      "name": "Object_16"
    },
    {
      "mesh": 15,
      "name": "Object_17"
    },
    {
      "mesh": 16,
      "name": "Object_18"
    },
    {
      "mesh": 17,
      "name": "Object_19"
    },
    {
      "mesh": 18,
      "name": "Object_20"
    },
    {
      "mesh": 19,
      "name": "Object_21"
    },
    {
      "mesh": 20,
      "name": "Object_22"
    },
    {
      "mesh": 21,
      "name": "Object_23"
    },
    {
      "mesh": 22,
      "name": "Object_24"
    },
    {
      "mesh": 23,
      "name": "Object_25"
    },
    {
      "mesh": 24,
      "name": "Object_26"
    }
  ],
  "samplers": [
    {
      "magFilter": 9729,
      "minFilter": 9987,
      "wrapS": 10497,
      "wrapT": 10497
    }
  ],
  "scene": 0,
  "scenes": [
    {
      "name": "Sketchfab_Scene",
      "nodes": [
        0
      ]
    }
  ],
  "textures": [
    {
      "sampler": 0,
      "source": 0
    },
    {
      "sampler": 0,
      "source": 1
    },
    {
      "sampler": 0,
      "source": 2
    },
    {
      "sampler": 0,
      "source": 3
    },
    {
      "sampler": 0,
      "source": 4
    },
    {
      "sampler": 0,
      "source": 5
    },
    {
      "sampler": 0,
      "source": 6
    },
    {
      "sampler": 0,
      "source": 7
    },
    {
      "sampler": 0,
      "source": 8
    },
    {
      "sampler": 0,
      "source": 9
    },
    {
      "sampler": 0,
      "source": 10
    },
    {
      "sampler": 0,
      "source": 11
    },
    {
      "sampler": 0,
      "source": 12
    },
    {
      "sampler": 0,
      "source": 13
    },
    {
      "sampler": 0,
      "source": 14
    },
    {
      "sampler": 0,
      "source": 15
    },
    {
      "sampler": 0,
      "source": 16
    },
    {
      "sampler": 0,
      "source": 17
    },
    {
      "sampler": 0,
      "source": 18
    },
    {
      "sampler": 0,
      "source": 19
    },
    {
      "sampler": 0,
      "source": 20
    },
    {
      "sampler": 0,
      "source": 21
    },
    {
      "sampler": 0,
      "source": 22
    },
    {
      "sampler": 0,
      "source": 23
    },
    {
      "sampler": 0,
      "source": 24
    },
    {
      "sampler": 0,
      "source": 25
    },
    {
      "sampler": 0,
      "source": 26
    },
    {
      "sampler": 0,
      "source": 27
    },
    {
      "sampler": 0,
      "source": 28
    },
    {
      "sampler": 0,
      "source": 29
    },
    {
      "sampler": 0,
      "source": 30
    },
    {
      "sampler": 0,
      "source": 31
    },
    {
      "sampler": 0,
      "source": 32
    },
    {
      "sampler": 0,
      "source": 33
    }
  ]
}
