{
  "accessors": [
    {
      "bufferView": 3,
      "componentType": 5126,
      "count": 804,
      "max": [
        4.836215019226074,
        168.55471801757813,
        10.742630958557129
      ],
      "min": [
        -4.832849979400635,
        165.1434326171875,
        7.353600025177002
      ],
      "type": "VEC3"
    },
    {
      "bufferView": 3,
      "byteOffset": 9648,
      "componentType": 5126,
      "count": 804,
      "max": [
        0.9990740418434143,
        0.9989931583404541,
        0.9938567280769348
      ],
      "min": [
        -0.9990739822387695,
        -0.9989928603172302,
        -0.9992878437042236
      ],
      "type": "VEC3"
    },
    {
      "bufferView": 4,
      "componentType": 5126,
      "count": 804,
      "max": [
        0.9996268153190613,
        0.6504777669906616,
        0.9998375773429871,
        1.0
      ],
      "min": [
        -0.9999800324440002,
        -0.6504446864128113,
        -0.9998375773429871,
        1.0
      ],
      "type": "VEC4"
    },
    {
      "bufferView": 2,
      "componentType": 5126,
      "count": 804,
      "max": [
        0.5983250141143799,
        0.9982979893684387
      ],
      "min": [
        0.501675009727478,
        0.703918993473053
      ],
      "type": "VEC2"
    },
    {
      "bufferView": 1,
      "componentType": 5125,
      "count": 4560,
      "type": "SCALAR"
    },
    {
      "bufferView": 3,
      "byteOffset": 19296,
      "componentType": 5126,
      "count": 106,
      "max": [
        5.519725799560547,
        167.45057678222656,
        11.750535011291504
      ],
      "min": [
        -5.51634407043457,
        165.47898864746094,
        9.668261528015137
      ],
      "type": "VEC3"
    },
    {
      "bufferView": 3,
      "byteOffset": 20568,
      "componentType": 5126,
      "count": 106,
      "max": [
        0.5591819882392883,
        0.697925329208374,
        0.8125348687171936
      ],
      "min": [
        -0.5581322908401489,
        -0.97720867395401,
        0.15272606909275055
      ],
      "type": "VEC3"
    },
    {
      "bufferView": 4,
      "byteOffset": 12864,
      "componentType": 5126,
      "count": 106,
      "max": [
        0.2947334945201874,
        0.8032866716384888,
        0.986846387386322,
        1.0
      ],
      "min": [
        -0.8599518537521362,
        -0.8046697378158569,
        -0.9871005415916443,
        1.0
      ],
      "type": "VEC4"
    },
    {
      "bufferView": 2,
      "byteOffset": 6432,
      "componentType": 5126,
      "count": 106,
      "max": [
        0.596340000629425,
        0.6961590051651001
      ],
      "min": [
        0.5035780072212219,
        0.602649986743927
      ],
      "type": "VEC2"
    },
    {
      "bufferView": 1,
      "byteOffset": 18240,
      "componentType": 5125,
      "count": 342,
      "type": "SCALAR"
    },
    {
      "bufferView": 3,
      "byteOffset": 21840,
      "componentType": 5126,
      "count": 9030,
      "max": [
        97.04006958007813,
        170.8533935546875,
        14.526559829711914
      ],
      "min": [
        -97.0438232421875,
        13.400155067443848,
        -10.597633361816406
      ],
      "type": "VEC3"
    },
    {
      "bufferView": 3,
      "byteOffset": 130200,
      "componentType": 5126,
      "count": 9030,
      "max": [
        0.9999138116836548,
        0.99970543384552,
        0.9999517202377319
      ],
      "min": [
        -0.9999138116836548,
        -0.9999902248382568,
        -0.9998454451560974
      ],
      "type": "VEC3"
    },
    {
      "bufferView": 4,
      "byteOffset": 14560,
      "componentType": 5126,
      "count": 9030,
      "max": [
        1.0,
        0.9998393058776855,
        0.9999523162841797,
        1.0
      ],
      "min": [
        -0.9999967217445374,
        -0.9990503191947937,
        -0.9999911785125732,
        -1.0
      ],
      "type": "VEC4"
    },
    {
      "bufferView": 2,
      "byteOffset": 7280,
      "componentType": 5126,
      "count": 9030,
      "max": [
        0.9924700260162354,
        0.9978560209274292
      ],
      "min": [
        0.004989999812096357,
        0.012064999900758266
      ],
      "type": "VEC2"
    },
    {
      "bufferView": 1,
      "byteOffset": 19608,
      "componentType": 5125,
      "count": 47871,
      "type": "SCALAR"
    },
    {
      "bufferView": 3,
      "byteOffset": 238560,
      "componentType": 5126,
      "count": 1284,
      "max": [
        11.613004684448242,
        179.5857391357422,
        15.335611343383789
      ],
      "min": [
        -11.613252639770508,
        153.3445281982422,
        -11.23432445526123
      ],
      "type": "VEC3"
    },
    {
      "bufferView": 3,
      "byteOffset": 253968,
      "componentType": 5126,
      "count": 1284,
      "max": [
        0.9998430013656616,
        0.9999606609344482,
        0.9971290230751038
      ],
      "min": [
        -0.9998464584350586,
        -0.9942941665649414,
        -0.9995542764663696
      ],
      "type": "VEC3"
    },
    {
      "bufferView": 4,
      "byteOffset": 159040,
      "componentType": 5126,
      "count": 1284,
      "max": [
        0.9999874234199524,
        0.999580442905426,
        0.9997550845146179,
        1.0
      ],
      "min": [
        -1.0,
        -0.9997061491012573,
        -0.9989086985588074,
        -1.0
      ],
      "type": "VEC4"
    },
    {
      "bufferView": 2,
      "byteOffset": 79520,
      "componentType": 5126,
      "count": 1284,
      "max": [
        0.4909519851207733,
        0.49538400769233704
      ],
      "min": [
        0.003541999962180853,
        0.005932999774813652
      ],
      "type": "VEC2"
    },
    {
      "bufferView": 1,
      "byteOffset": 211092,
      "componentType": 5125,
      "count": 5460,
      "type": "SCALAR"
    },
    {
      "bufferView": 3,
      "byteOffset": 269376,
      "componentType": 5126,
      "count": 1564,
      "max": [
        73.7310562133789,
        160.2364959716797,
        18.58267593383789
      ],
      "min": [
        -73.74449157714844,
        90.61347961425781,
        -18.96982765197754
      ],
      "type": "VEC3"
    },
    {
      "bufferView": 3,
      "byteOffset": 288144,
      "componentType": 5126,
      "count": 1564,
      "max": [
        0.9976298809051514,
        0.9993298053741455,
        0.9999391436576843
      ],
      "min": [
        -0.9976155757904053,
        -0.9998870491981506,
        -0.9975992441177368
      ],
      "type": "VEC3"
    },
    {
      "bufferView": 4,
      "byteOffset": 179584,
      "componentType": 5126,
      "count": 1564,
      "max": [
        1.0,
        0.9987356662750244,
        0.9974958300590515,
        1.0
      ],
      "min": [
        -0.9999955296516418,
        -0.999517023563385,
        -0.9996442794799805,
        -1.0
      ],
      "type": "VEC4"
    },
    {
      "bufferView": 2,
      "byteOffset": 89792,
      "componentType": 5126,
      "count": 1564,
      "max": [
        0.4975239932537079,
        0.9943720102310181
      ],
      "min": [
        0.006035999860614538,
        0.504023015499115
      ],
      "type": "VEC2"
    },
    {
      "bufferView": 1,
      "byteOffset": 232932,
      "componentType": 5125,
      "count": 6468,
      "type": "SCALAR"
    },
    {
      "bufferView": 3,
      "byteOffset": 306912,
      "componentType": 5126,
      "count": 1632,
      "max": [
        16.467517852783203,
        23.19851303100586,
        19.750301361083984
      ],
      "min": [
        -16.455080032348633,
        -1.7576149702072144,
        -13.696617126464844
      ],
      "type": "VEC3"
    },
    {
      "bufferView": 3,
      "byteOffset": 326496,
      "componentType": 5126,
      "count": 1632,
      "max": [
        0.9991980195045471,
        0.9971716403961182,
        0.9998599886894226
      ],
      "min": [
        -0.9991969466209412,
        -0.9895328879356384,
        -0.9868786931037903
      ],
      "type": "VEC3"
    },
    {
      "bufferView": 4,
      "byteOffset": 204608,
      "componentType": 5126,
      "count": 1632,
      "max": [
        0.9987388253211975,
        0.9997887015342712,
        0.9996212124824524,
        1.0
      ],
      "min": [
        -0.9938658475875854,
        -0.9992812871932983,
        -0.9985238909721375,
        1.0
      ],
      "type": "VEC4"
    },
    {
      "bufferView": 2,
      "byteOffset": 102304,
      "componentType": 5126,
      "count": 1632,
      "max": [
        0.9976549744606018,
        0.4976780116558075
      ],
      "min": [
        0.5021830201148987,
        0.002466999925673008
      ],
      "type": "VEC2"
    },
    {
      "bufferView": 1,
      "byteOffset": 258804,
      "componentType": 5125,
      "count": 6432,
      "type": "SCALAR"
    },
    {
      "bufferView": 3,
      "byteOffset": 346080,
      "componentType": 5126,
      "count": 889,
      "max": [
        19.69650650024414,
        103.30147552490234,
        14.695612907409668
      ],
      "min": [
        -19.629901885986328,
        17.977157592773438,
        -15.648550033569336
      ],
      "type": "VEC3"
    },
    {
      "bufferView": 3,
      "byteOffset": 356748,
      "componentType": 5126,
      "count": 889,
      "max": [
        0.9997308254241943,
        0.9804708361625671,
        0.9997836351394653
      ],
      "min": [
        -0.9990784525871277,
        -0.9985963702201843,
        -0.9991674423217773
      ],
      "type": "VEC3"
    },
    {
      "bufferView": 4,
      "byteOffset": 230720,
      "componentType": 5126,
      "count": 889,
      "max": [
        0.9997881650924683,
        0.8570894598960876,
        0.9998446702957153,
        1.0
      ],
      "min": [
        -0.9995448589324951,
        -0.9967242479324341,
        -0.9993730187416077,
        -1.0
      ],
      "type": "VEC4"
    },
    {
      "bufferView": 2,
      "byteOffset": 115360,
      "componentType": 5126,
      "count": 889,
      "max": [
        0.996720016002655,
        0.9946550130844116
      ],
      "min": [
        0.5030990242958069,
        0.4990139901638031
      ],
      "type": "VEC2"
    },
    {
      "bufferView": 1,
      "byteOffset": 284532,
      "componentType": 5125,
      "count": 4314,
      "type": "SCALAR"
    },
    {
      "bufferView": 5,
      "componentType": 5126,
      "count": 66,
      "max": [
        1.0,
        0.9989431500434875,
        0.42819979786872864,
        0.0,
        0.16662658751010895,
        1.0,
        0.9992647767066956,
        0.0,
        0.9926283955574036,
        0.991628885269165,
        1.0,
        0.0,
        21.46724510192871,
        91.87808990478516,
        160.9278106689453,
        1.0
      ],
      "min": [
        -0.9994350671768188,
        -0.9994791150093079,
        -0.42965462803840637,
        0.0,
        -0.16476783156394958,
        -0.9979054927825928,
        -0.9936525225639343,
        0.0,
        -0.9919422268867493,
        -0.11920660734176636,
        -0.08192873746156693,
        0.0,
        -19.64107322692871,
        -155.75656127929688,
        -12.518754959106445,
        1.0
      ],
      "type": "MAT4"
    },
    {
      "bufferView": 0,
      "componentType": 5123,
      "count": 804,
      "type": "VEC4"
    },
    {
      "bufferView": 4,
      "byteOffset": 244944,
      "componentType": 5126,
      "count": 804,
      "max": [
        1.0,
        0.0,
        0.0,
        0.0
      ],
      "min": [
        1.0,
        0.0,
        0.0,
        0.0
      ],
      "type": "VEC4"
    },
    {
      "bufferView": 0,
      "byteOffset": 6432,
      "componentType": 5123,
      "count": 106,
      "type": "VEC4"
    },
    {
      "bufferView": 4,
      "byteOffset": 257808,
      "componentType": 5126,
      "count": 106,
      "max": [
        1.0,
        0.0,
        0.0,
        0.0
      ],
      "min": [
        1.0,
        0.0,
        0.0,
        0.0
      ],
      "type": "VEC4"
    },
    {
      "bufferView": 0,
      "byteOffset": 7280,
      "componentType": 5123,
      "count": 9030,
      "type": "VEC4"
    },
    {
      "bufferView": 4,
      "byteOffset": 259504,
      "componentType": 5126,
      "count": 9030,
      "max": [
        1.0,
        0.4991913437843323,
        0.3227890729904175,
        0.13586890697479248
      ],
      "min": [
        0.34715110063552856,
        0.0,
        0.0,
        0.0
      ],
      "type": "VEC4"
    },
    {
      "bufferView": 0,
      "byteOffset": 79520,
      "componentType": 5123,
      "count": 1284,
      "type": "VEC4"
    },
    {
      "bufferView": 4,
      "byteOffset": 403984,
      "componentType": 5126,
      "count": 1284,
      "max": [
        1.0,
        0.16274350881576538,
        0.0,
        0.0
      ],
      "min": [
        0.8372564315795898,
        0.0,
        0.0,
        0.0
      ],
      "type": "VEC4"
    },
    {
      "bufferView": 0,
      "byteOffset": 89792,
      "componentType": 5123,
      "count": 1564,
      "type": "VEC4"
    },
    {
      "bufferView": 4,
      "byteOffset": 424528,
      "componentType": 5126,
      "count": 1564,
      "max": [
        1.0,
        0.4995272755622864,
        0.3085872530937195,
        0.13183487951755524
      ],
      "min": [
        0.3420262634754181,
        0.0,
        0.0,
        0.0
      ],
      "type": "VEC4"
    },
    {
      "bufferView": 0,
      "byteOffset": 102304,
      "componentType": 5123,
      "count": 1632,
      "type": "VEC4"
    },
    {
      "bufferView": 4,
      "byteOffset": 449552,
      "componentType": 5126,
      "count": 1632,
      "max": [
        0.9832945466041565,
        0.49095433950424194,
        0.19967210292816162,
        0.0
      ],
      "min": [
        0.4559752345085144,
        0.016705449670553207,
        0.0,
        0.0
      ],
      "type": "VEC4"
    },
    {
      "bufferView": 0,
      "byteOffset": 115360,
      "componentType": 5123,
      "count": 889,
      "type": "VEC4"
    },
    {
      "bufferView": 4,
      "byteOffset": 475664,
      "componentType": 5126,
      "count": 889,
      "max": [
        1.0,
        0.49920451641082764,
        0.25495314598083496,
        0.0
      ],
      "min": [
        0.4035453498363495,
        0.0,
        0.0,
        0.0
      ],
      "type": "VEC4"
    }
  ],
  "asset": {
    "extras": {
      "author": "doctortex (https://sketchfab.com/doctortex)",
      "license": "CC-BY-4.0 (http://creativecommons.org/licenses/by/4.0/)",
      "source": "https://sketchfab.com/3d-models/british-soldier-38b98a0222ff41acbe9bad7fe31c4b6c",
      "title": "British Soldier"
    },
    "generator": "Sketchfab-12.68.0",
    "version": "2.0"
  },
  "bufferViews": [
    {
      "buffer": 0,
      "byteLength": 122472,
      "byteStride": 8,
      "name": "shortBufferViews",
      "target": 34962
    },
    {
      "buffer": 0,
      "byteLength": 301788,
      "byteOffset": 122472,
      "name": "floatBufferViews",
      "target": 34963
    },
    {
      "buffer": 0,
      "byteLength": 122472,
      "byteOffset": 424260,
      "byteStride": 8,
      "name": "floatBufferViews",
      "target": 34962
    },
    {
      "buffer": 0,
      "byteLength": 367416,
      "byteOffset": 546732,
      "byteStride": 12,
      "name": "floatBufferViews",
      "target": 34962
    },
    {
      "buffer": 0,
      "byteLength": 489888,
      "byteOffset": 914148,
      "byteStride": 16,
      "name": "floatBufferViews",
      "target": 34962
    },
    {
      "buffer": 0,
      "byteLength": 4224,
      "byteOffset": 1404036,
      "name": "floatBufferViews"
    }
  ],
  "buffers": [
    {
      "byteLength": 1408260,
      "uri": "scene.bin"
    }
  ],
  "extensionsRequired": [
    "KHR_materials_pbrSpecularGlossiness"
  ],
  "extensionsUsed": [
    "KHR_materials_pbrSpecularGlossiness"
  ],
  "images": [
    {
      "uri": "textures/PackedMaterial0mat_diffuse.png"
    },
    {
      "uri": "textures/PackedMaterial0mat_specularGlossiness.png"
    },
    {
      "uri": "textures/PackedMaterial0mat_normal.png"
    },
    {
      "uri": "textures/PackedMaterial1mat_diffuse.png"
    },
    {
      "uri": "textures/PackedMaterial1mat_specularGlossiness.png"
    },
    {
      "uri": "textures/PackedMaterial1mat_normal.png"
    }
  ],
  "materials": [
    {
      "alphaMode": "BLEND",
      "doubleSided": true,
      "extensions": {
        "KHR_materials_pbrSpecularGlossiness": {
          "diffuseFactor": [
            1.0,
            1.0,
            1.0,
            1.0
          ],
          "diffuseTexture": {
            "index": 0
          },
          "glossinessFactor": 0.21147425268811282,
          "specularFactor": [
            0.05,
            0.05,
            0.05
          ],
          "specularGlossinessTexture": {
            "index": 1
          }
        }
      },
      "name": "PackedMaterial0mat",
      "normalTexture": {
        "index": 2
      }
    },
    {
      "alphaMode": "BLEND",
      "doubleSided": true,
      "extensions": {
        "KHR_materials_pbrSpecularGlossiness": {
          "diffuseFactor": [
            1.0,
            1.0,
            1.0,
            1.0
          ],
          "diffuseTexture": {
            "index": 3
          },
          "glossinessFactor": 0.21147425268811282,
          "specularFactor": [
            0.05,
            0.05,
            0.05
          ],
          "specularGlossinessTexture": {
            "index": 4
          }
        }
      },
      "name": "PackedMaterial1mat",
      "normalTexture": {
        "index": 5
      }
    }
  ],
  "meshes": [
    {
      "name": "Eyes_PackedMaterial0mat_0",
      "primitives": [
        {
          "attributes": {
            "JOINTS_0": 36,
            "NORMAL": 1,
            "POSITION": 0,
            "TANGENT": 2,
            "TEXCOORD_0": 3,
            "TEXCOORD_1": 3,
            "TEXCOORD_2": 3,
            "TEXCOORD_3": 3,
            "TEXCOORD_4": 3,
            "WEIGHTS_0": 37
          },
          "indices": 4,
          "material": 0,
          "mode": 4
        }
      ]
    },
    {
      "name": "default_PackedMaterial0mat_0",
      "primitives": [
        {
          "attributes": {
            "JOINTS_0": 38,
            "NORMAL": 6,
            "POSITION": 5,
            "TANGENT": 7,
            "TEXCOORD_0": 8,
            "TEXCOORD_1": 8,
            "TEXCOORD_2": 8,
            "TEXCOORD_3": 8,
            "TEXCOORD_4": 8,
            "WEIGHTS_0": 39
          },
          "indices": 9,
          "material": 0,
          "mode": 4
        }
      ]
    },
    {
      "name": "Body_PackedMaterial0mat_0",
      "primitives": [
        {
          "attributes": {
            "JOINTS_0": 40,
            "NORMAL": 11,
            "POSITION": 10,
            "TANGENT": 12,
            "TEXCOORD_0": 13,
            "TEXCOORD_1": 13,
            "TEXCOORD_2": 13,
            "TEXCOORD_3": 13,
            "TEXCOORD_4": 13,
            "WEIGHTS_0": 41
          },
          "indices": 14,
          "material": 0,
          "mode": 4
        }
      ]
    },
    {
      "name": "Hats_PackedMaterial1mat_0",
      "primitives": [
        {
          "attributes": {
            "JOINTS_0": 42,
            "NORMAL": 16,
            "POSITION": 15,
            "TANGENT": 17,
            "TEXCOORD_0": 18,
            "TEXCOORD_1": 18,
            "TEXCOORD_2": 18,
            "TEXCOORD_3": 18,
            "TEXCOORD_4": 18,
            "WEIGHTS_0": 43
          },
          "indices": 19,
          "material": 1,
          "mode": 4
        }
      ]
    },
    {
      "name": "Tops_PackedMaterial1mat_0",
      "primitives": [
        {
          "attributes": {
            "JOINTS_0": 44,
            "NORMAL": 21,
            "POSITION": 20,
            "TANGENT": 22,
            "TEXCOORD_0": 23,
            "TEXCOORD_1": 23,
            "TEXCOORD_2": 23,
            "TEXCOORD_3": 23,
            "TEXCOORD_4": 23,
            "WEIGHTS_0": 45
          },
          "indices": 24,
          "material": 1,
          "mode": 4
        }
      ]
    },
    {
      "name": "Shoes_PackedMaterial1mat_0",
      "primitives": [
        {
          "attributes": {
            "JOINTS_0": 46,
            "NORMAL": 26,
            "POSITION": 25,
            "TANGENT": 27,
            "TEXCOORD_0": 28,
            "TEXCOORD_1": 28,
            "TEXCOORD_2": 28,
            "TEXCOORD_3": 28,
            "TEXCOORD_4": 28,
            "WEIGHTS_0": 47
          },
          "indices": 29,
          "material": 1,
          "mode": 4
        }
      ]
    },
    {
      "name": "Bottoms_PackedMaterial1mat_0",
      "primitives": [
        {
          "attributes": {
            "JOINTS_0": 48,
            "NORMAL": 31,
            "POSITION": 30,
            "TANGENT": 32,
            "TEXCOORD_0": 33,
            "TEXCOORD_1": 33,
            "TEXCOORD_2": 33,
            "TEXCOORD_3": 33,
            "TEXCOORD_4": 33,
            "WEIGHTS_0": 49
          },
          "indices": 34,
          "material": 1,
          "mode": 4
        }
      ]
    }
  ],
  "nodes": [
    {
      "children": [
        1
      ],
      "matrix": [
        1.0,
        0.0,
        0.0,
        0.0,
        0.0,
        2.220446049250313e-16,
        -1.0,
        0.0,
        0.0,
        1.0,
        2.220446049250313e-16,
        0.0,
        0.0,
        0.0,
        0.0,
        1.0
      ],
      "name": "Sketchfab_model"
    },
    {
      "children": [
        2
      ],
      "matrix": [
        0.009999999776482582,
        0.0,
        0.0,
        0.0,
        0.0,
        0.0,
        0.009999999776482582,
        0.0,
        0.0,
        -0.009999999776482582,
        0.0,
        0.0,
        0.0,
        0.0,
        0.0,
        1.0
      ],
      "name": "224c023b0501442ea90cbb032f3d40ab.fbx"
    },
    {
      "children": [
        3
      ],
      "name": "Object_2"
    },
    {
      "children": [
        4
      ],
      "name": "RootNode"
    },
    {
      "children": [
        5,
        6,
        7,
        9,
        10,
        11,
        13,
        15,
        8,
        12,
        14,
        81,
        82,
        83,
        84,
        85,
        86,
        87
      ],
      "name": "Object_4"
    },
    {
      "children": [
        16
      ],
      "name": "_rootJoint"
    },
    {
      "mesh": 0,
      "name": "Object_6",
      "skin": 0
    },
    {
      "mesh": 1,
      "name": "Object_7",
      "skin": 0
    },
    {
      "matrix": [
        1.0,
        -1.3010426069826053e-18,
        -1.0625181290357943e-17,
        0.0,
        1.3010426069826053e-18,
        0.9999999999999999,
        1.3877787807814457e-17,
        0.0,
        1.0625181290357943e-17,
        -1.387778780781446e-17,
        1.0,
        0.0,
        -1.4210854715202004e-14,
        -2.842170943040401e-14,
        -1.7763568394002505e-15,
        1.0
      ],
      "name": "Object_8"
    },
    {
      "mesh": 2,
      "name": "Object_9",
      "skin": 0
    },
    {
      "mesh": 3,
      "name": "Object_10",
      "skin": 0
    },
    {
      "mesh": 4,
      "name": "Object_11",
      "skin": 0
    },
    {
      "matrix": [
        1.0000000000000004,
        -2.642742795433417e-18,
        1.0842021724855044e-18,
        0.0,
        2.642742795433417e-18,
        1.0000000000000004,
        6.938893903907228e-18,
        0.0,
        -1.0842021724855044e-18,
        -6.938893903907228e-18,
        1.0000000000000004,
        0.0,
        0.0,
        -1.4210854715202004e-14,
        1.7763568394002505e-15,
        1.0
      ],
      "name": "Object_12"
    },
    {
      "mesh": 5,
      "name": "Object_13",
      "skin": 0
    },
    {
      "matrix": [
        0.9999999999999998,
        -1.247837591626594e-17,
        -6.3807556984422395e-19,
        0.0,
        1.247837591626594e-17,
        0.9999999999999998,
        -2.7755575615628914e-17,
        0.0,
        6.380755698442243e-19,
        2.7755575615628914e-17,
        0.9999999999999998,
        0.0,
        0.0,
        0.0,
        3.552713678800501e-15,
        1.0
      ],
      "name": "Object_14"
    },
    {
      "mesh": 6,
      "name": "Object_15",
      "skin": 0
    },
    {
      "children": [
        17,
        71,
        76
      ],
      "name": "mixamorig:Hips_01",
      "translation": [
        0.19705963134765625,
        98.17865753173828,
        0.8210627436637878
      ]
    },
    {
      "children": [
        18
      ],
      "name": "mixamorig:Spine_02",
      "rotation": [
        -0.05970977619290352,
        -0.0,
        0.0,
        0.9982157945632935
      ],
      "translation": [
        0.0,
        10.281684875488281,
        -1.2344460487365723
      ]
    },
    {
      "children": [
        19
      ],
      "name": "mixamorig:Spine1_03",
      "rotation": [
        -6.302445854089456e-08,
        -0.0,
        0.0,
        1.0
      ],
      "translation": [
        0.0,
        12.08144760131836,
        4.695464284054651e-08
      ]
    },
    {
      "children": [
        20,
        23,
        47
      ],
      "name": "mixamorig:Spine2_04",
      "rotation": [
        -6.938893903907228e-18,
        -0.0,
        0.0,
        1.0
      ],
      "translation": [
        0.0,
        13.807361602783203,
        -1.689959105988237e-08
      ]
    },
    {
      "children": [
        21
      ],
      "name": "mixamorig:Neck_05",
      "rotation": [
        0.05970983952283859,
        0.0,
        0.0,
        0.9982157945632935
      ],
      "translation": [
        0.0,
        15.533276557922363,
        2.901411448874569e-07
      ]
    },
    {
      "children": [
        22
      ],
      "name": "mixamorig:Head_06",
      "translation": [
        0.0,
        6.16949462890625,
        3.088723659515381
      ]
    },
    {
      "name": "mixamorig:HeadTop_End_07",
      "translation": [
        0.0,
        22.441925048828125,
        11.23542594909668
      ]
    },
    {
      "children": [
        24
      ],
      "name": "mixamorig:LeftShoulder_08",
      "rotation": [
        -0.5537006855010986,
        -0.4328553080558777,
        0.5791318416595459,
        -0.4131081700325012
      ],
      "translation": [
        6.894918441772461,
        13.588995933532715,
        -0.3024955093860626
      ]
    },
    {
      "children": [
        25
      ],
      "name": "mixamorig:LeftArm_09",
      "rotation": [
        -0.08541875332593918,
        0.0020546461455523968,
        -0.023958809673786163,
        0.996055006980896
      ],
      "translation": [
        -8.121011418893431e-09,
        14.10611343383789,
        -6.596800972147321e-08
      ]
    },
    {
      "children": [
        26
      ],
      "name": "mixamorig:LeftForeArm_010",
      "rotation": [
        -0.05994045361876488,
        -0.004157186020165682,
        0.06906408071517944,
        0.9958012104034424
      ],
      "translation": [
        7.934630019690303e-08,
        23.407543182373047,
        1.7350376424474234e-07
      ]
    },
    {
      "children": [
        27,
        31,
        35,
        39,
        43
      ],
      "name": "mixamorig:LeftHand_011",
      "rotation": [
        0.049312543123960495,
        -0.008355786092579365,
        -0.020399264991283417,
        0.9985401034355164
      ],
      "translation": [
        7.855326167316434e-09,
        29.497291564941406,
        -6.574111921509029e-09
      ]
    },
    {
      "children": [
        28
      ],
      "name": "mixamorig:LeftHandThumb1_012",
      "rotation": [
        0.15772229433059692,
        0.042736541479825974,
        0.25801461935043335,
        0.9522215723991394
      ],
      "translation": [
        -3.4494943618774414,
        4.400309085845947,
        1.886953592300415
      ]
    },
    {
      "children": [
        29
      ],
      "name": "mixamorig:LeftHandThumb2_013",
      "rotation": [
        0.04078350588679314,
        1.6130182417822875e-17,
        5.4898987947131833e-17,
        0.9991680979728699
      ],
      "translation": [
        -0.6048761606216431,
        4.681929588317871,
        -8.970687304099556e-09
      ]
    },
    {
      "children": [
        30
      ],
      "name": "mixamorig:LeftHandThumb3_014",
      "rotation": [
        -0.03651745617389679,
        2.87506275704159e-17,
        -2.6723500710985276e-17,
        0.9993330240249634
      ],
      "translation": [
        0.08409731835126877,
        4.289248466491699,
        1.7602303614694392e-07
      ]
    },
    {
      "name": "mixamorig:LeftHandThumb4_015",
      "rotation": [
        1.9801342787673093e-08,
        3.469446951953614e-18,
        -6.869970837928109e-26,
        1.0
      ],
      "translation": [
        0.5207785367965698,
        3.0436601638793945,
        7.678065117033839e-08
      ]
    },
    {
      "children": [
        32
      ],
      "name": "mixamorig:LeftHandIndex1_016",
      "rotation": [
        0.017061257734894753,
        -0.0005795685574412346,
        -0.03394528105854988,
        0.9992778897285461
      ],
      "translation": [
        -3.7971880435943604,
        12.80036735534668,
        0.21702934801578522
      ]
    },
    {
      "children": [
        33
      ],
      "name": "mixamorig:LeftHandIndex2_017",
      "rotation": [
        0.033485036343336105,
        1.3405307205007843e-17,
        -1.4334704180215273e-17,
        0.9994392395019531
      ],
      "translation": [
        -0.025539075955748558,
        3.425307273864746,
        4.961313493367925e-08
      ]
    },
    {
      "children": [
        34
      ],
      "name": "mixamorig:LeftHandIndex3_018",
      "rotation": [
        0.06499600410461426,
        -1.2946442822264464e-17,
        1.4750445156084425e-17,
        0.997885525226593
      ],
      "translation": [
        -0.0027934443205595016,
        3.4204485416412354,
        2.045965175057063e-09
      ]
    },
    {
      "name": "mixamorig:LeftHandIndex4_019",
      "rotation": [
        -4.0649550392402034e-10,
        5.641258348288163e-27,
        -1.3877787807814457e-17,
        1.0
      ],
      "translation": [
        0.02833251655101776,
        2.880265712738037,
        -4.18066576912679e-08
      ]
    },
    {
      "children": [
        36
      ],
      "name": "mixamorig:LeftHandMiddle1_020",
      "rotation": [
        0.007000131532549858,
        -5.312607390806079e-05,
        -0.007589691784232855,
        0.9999467134475708
      ],
      "translation": [
        -1.1038552522659302,
        13.340227127075195,
        -0.25459957122802734
      ]
    },
    {
      "children": [
        37
      ],
      "name": "mixamorig:LeftHandMiddle2_021",
      "rotation": [
        0.037253499031066895,
        2.7558590824555536e-17,
        -5.801170250657399e-18,
        0.9993058443069458
      ],
      "translation": [
        -0.008269252255558968,
        3.8431615829467773,
        -1.4967270089982776e-08
      ]
    },
    {
      "children": [
        38
      ],
      "name": "mixamorig:LeftHandMiddle3_022",
      "rotation": [
        -0.02689347043633461,
        -4.1711611400668436e-17,
        2.348526438872034e-18,
        0.9996383190155029
      ],
      "translation": [
        0.010420880280435085,
        3.61143159866333,
        -1.9852052446367452e-08
      ]
    },
    {
      "name": "mixamorig:LeftHandMiddle4_023",
      "rotation": [
        2.451599367958579e-09,
        5.551115123125783e-17,
        -1.3877787807814457e-17,
        1.0
      ],
      "translation": [
        -0.0021516282577067614,
        3.0848450660705566,
        3.301099127384077e-08
      ]
    },
    {
      "children": [
        40
      ],
      "name": "mixamorig:LeftHandRing1_024",
      "rotation": [
        -0.0029715311247855425,
        4.217215973767452e-05,
        -0.014192384667694569,
        0.9998948574066162
      ],
      "translation": [
        1.185689926147461,
        13.129183769226074,
        -0.08732301741838455
      ]
    },
    {
      "children": [
        41
      ],
      "name": "mixamorig:LeftHandRing2_025",
      "rotation": [
        0.007012712769210339,
        2.7748814241301905e-17,
        -1.0619823434735284e-18,
        0.9999755024909973
      ],
      "translation": [
        -0.01255672425031662,
        3.6113908290863037,
        -2.8367395543682505e-08
      ]
    },
    {
      "children": [
        42
      ],
      "name": "mixamorig:LeftHandRing3_026",
      "rotation": [
        0.07261169701814651,
        4.16494239622167e-17,
        -1.292924863246163e-18,
        0.9973602890968323
      ],
      "translation": [
        -0.008729011751711369,
        3.395594596862793,
        -2.2590398884858587e-08
      ]
    },
    {
      "name": "mixamorig:LeftHandRing4_027",
      "rotation": [
        -1.2271244465011932e-08,
        4.163336342344337e-17,
        -5.204170014340115e-18,
        1.0
      ],
      "translation": [
        0.021285729482769966,
        2.9525344371795654,
        -5.458966256810527e-08
      ]
    },
    {
      "children": [
        44
      ],
      "name": "mixamorig:LeftHandPinky1_028",
      "rotation": [
        -0.00015363082638941705,
        -1.7514199726065272e-06,
        0.011379900388419628,
        0.9999353289604187
      ],
      "translation": [
        3.71535325050354,
        11.756486892700195,
        0.1959443837404251
      ]
    },
    {
      "children": [
        45
      ],
      "name": "mixamorig:LeftHandPinky2_029",
      "rotation": [
        -0.0026050666347146034,
        1.3877740658519541e-17,
        3.615256198178656e-20,
        0.9999966025352478
      ],
      "translation": [
        0.003205896820873022,
        3.6589038372039795,
        -3.6316862406238215e-08
      ]
    },
    {
      "children": [
        46
      ],
      "name": "mixamorig:LeftHandPinky3_030",
      "rotation": [
        -0.013196730054914951,
        1.3876579296939517e-17,
        1.8314141945911732e-19,
        0.9999129176139832
      ],
      "translation": [
        0.0009103331249207258,
        3.0012431144714355,
        -4.396326858113753e-09
      ]
    },
    {
      "name": "mixamorig:LeftHandPinky4_031",
      "rotation": [
        2.6539450637130813e-09,
        -5.551115123125783e-17,
        -6.938893903907228e-18,
        1.0
      ],
      "translation": [
        -0.004116196651011705,
        2.5707709789276123,
        1.930672510752629e-08
      ]
    },
    {
      "children": [
        48
      ],
      "name": "mixamorig:RightShoulder_032",
      "rotation": [
        0.5599523186683655,
        -0.4279427230358124,
        0.574099600315094,
        0.41680702567100525
      ],
      "translation": [
        -6.894918441772461,
        13.572648048400879,
        -0.16633833944797516
      ]
    },
    {
      "children": [
        49
      ],
      "name": "mixamorig:RightArm_033",
      "rotation": [
        -0.08757831156253815,
        -0.003981828689575195,
        0.045244134962558746,
        0.9951217770576477
      ],
      "translation": [
        8.305168108790895e-09,
        14.10611343383789,
        -6.594498813683458e-08
      ]
    },
    {
      "children": [
        50
      ],
      "name": "mixamorig:RightForeArm_034",
      "rotation": [
        -0.058668408542871475,
        0.0050584995187819,
        -0.08575408905744553,
        0.9945746064186096
      ],
      "translation": [
        5.253589208109588e-08,
        23.454273223876953,
        -6.87255692355393e-08
      ]
    },
    {
      "children": [
        51,
        55,
        59,
        63,
        67
      ],
      "name": "mixamorig:RightHand_035",
      "rotation": [
        0.04682464152574539,
        0.01460945326834917,
        0.037333980202674866,
        0.9980983138084412
      ],
      "translation": [
        2.2701772905975304e-08,
        29.516416549682617,
        -4.436031986188027e-09
      ]
    },
    {
      "children": [
        52
      ],
      "name": "mixamorig:RightHandThumb1_036",
      "rotation": [
        0.15534014999866486,
        -0.04318135604262352,
        -0.26432016491889954,
        0.9508625864982605
      ],
      "translation": [
        3.454206705093384,
        4.571786403656006,
        1.9129865169525146
      ]
    },
    {
      "children": [
        53
      ],
      "name": "mixamorig:RightHandThumb2_037",
      "rotation": [
        0.04303198307752609,
        8.78248262030214e-18,
        8.296565957369704e-17,
        0.9990738034248352
      ],
      "translation": [
        0.4794040620326996,
        4.808877944946289,
        -1.1949319400628156e-07
      ]
    },
    {
      "children": [
        54
      ],
      "name": "mixamorig:RightHandThumb3_038",
      "rotation": [
        -0.0971016213297844,
        -2.6108534938943952e-17,
        5.322749746590103e-17,
        0.9952744841575623
      ],
      "translation": [
        -0.10497407615184784,
        4.196869850158691,
        3.999420528089104e-08
      ]
    },
    {
      "name": "mixamorig:RightHandThumb4_039",
      "rotation": [
        1.2324384179862591e-08,
        5.20417166870134e-18,
        1.1102230246251565e-16,
        1.0
      ],
      "translation": [
        -0.37442997097969055,
        3.0218639373779297,
        9.098670261664665e-08
      ]
    },
    {
      "children": [
        56
      ],
      "name": "mixamorig:RightHandIndex1_040",
      "rotation": [
        0.04364665597677231,
        0.0002520242123864591,
        0.0057686674408614635,
        0.999030351638794
      ],
      "translation": [
        3.808380603790283,
        13.081400871276855,
        0.0795355886220932
      ]
    },
    {
      "children": [
        57
      ],
      "name": "mixamorig:RightHandIndex2_041",
      "rotation": [
        0.00926247052848339,
        1.0042390265667867e-20,
        1.0841557469736249e-18,
        0.9999572038650513
      ],
      "translation": [
        0.01566188782453537,
        3.6057698726654053,
        -2.3788089720255812e-08
      ]
    },
    {
      "children": [
        58
      ],
      "name": "mixamorig:RightHandIndex3_042",
      "rotation": [
        0.074801504611969,
        1.3409078321420472e-17,
        -6.768252333801827e-18,
        0.9971984624862671
      ],
      "translation": [
        0.00553689943626523,
        3.3621890544891357,
        -1.3790497632726328e-09
      ]
    },
    {
      "name": "mixamorig:RightHandIndex4_043",
      "rotation": [
        3.8059750906427325e-09,
        5.551115123125783e-17,
        -2.1127405883906894e-25,
        1.0
      ],
      "translation": [
        -0.021198777481913567,
        2.86319899559021,
        2.235279339402041e-08
      ]
    },
    {
      "children": [
        60
      ],
      "name": "mixamorig:RightHandMiddle1_044",
      "rotation": [
        0.007844214327633381,
        -2.0357047105790116e-05,
        -0.002594445366412401,
        0.9999659657478333
      ],
      "translation": [
        1.1466313600540161,
        13.394515037536621,
        -0.20945285260677338
      ]
    },
    {
      "children": [
        61
      ],
      "name": "mixamorig:RightHandMiddle2_045",
      "rotation": [
        0.024908941239118576,
        1.7284050051690325e-19,
        6.936740752772753e-18,
        0.9996896982192993
      ],
      "translation": [
        0.01102975569665432,
        3.9068193435668945,
        1.1239478681090986e-08
      ]
    },
    {
      "children": [
        62
      ],
      "name": "mixamorig:RightHandMiddle3_046",
      "rotation": [
        0.0209159255027771,
        -1.3820326879382848e-17,
        2.8917826828402165e-18,
        0.9997812509536743
      ],
      "translation": [
        -0.0013374409172683954,
        3.7807047367095947,
        -2.7092511345472303e-08
      ]
    },
    {
      "name": "mixamorig:RightHandMiddle4_047",
      "rotation": [
        -9.085159291544187e-09,
        -5.551115123125783e-17,
        3.469446538363308e-18,
        1.0
      ],
      "translation": [
        -0.009692315012216568,
        3.1685497760772705,
        -7.161935400290531e-08
      ]
    },
    {
      "children": [
        64
      ],
      "name": "mixamorig:RightHandRing1_048",
      "rotation": [
        0.015053391456604004,
        -4.860809713136405e-05,
        -0.0032280702143907547,
        0.9998815059661865
      ],
      "translation": [
        -1.21519136428833,
        13.681876182556152,
        -0.1715889573097229
      ]
    },
    {
      "children": [
        65
      ],
      "name": "mixamorig:RightHandRing2_049",
      "rotation": [
        -0.016336221247911453,
        7.084706626875782e-21,
        -4.336230438995055e-19,
        0.9998666644096375
      ],
      "translation": [
        0.005919246468693018,
        3.5790271759033203,
        4.771720796270529e-10
      ]
    },
    {
      "children": [
        66
      ],
      "name": "mixamorig:RightHandRing3_050",
      "rotation": [
        0.08304812014102936,
        4.243497092017871e-17,
        7.887224216155385e-18,
        0.9965455532073975
      ],
      "translation": [
        0.01279977336525917,
        3.4000818729400635,
        1.043915176524024e-08
      ]
    },
    {
      "name": "mixamorig:RightHandRing4_051",
      "rotation": [
        1.0196722577404671e-08,
        -1.3877787807814457e-17,
        1.5612511283791264e-17,
        1.0
      ],
      "translation": [
        -0.018719015643000603,
        2.8215863704681396,
        -1.250677428288327e-08
      ]
    },
    {
      "children": [
        68
      ],
      "name": "mixamorig:RightHandPinky1_052",
      "rotation": [
        0.002419921336695552,
        -5.9713573136832565e-05,
        -0.02466583624482155,
        0.9996927976608276
      ],
      "translation": [
        -3.7398204803466797,
        12.534128189086914,
        0.17296187579631805
      ]
    },
    {
      "children": [
        69
      ],
      "name": "mixamorig:RightHandPinky2_053",
      "rotation": [
        -0.0023124972358345985,
        -0.0,
        0.0,
        0.9999973177909851
      ],
      "translation": [
        -0.0071359118446707726,
        3.5717995166778564,
        2.4551781052650767e-08
      ]
    },
    {
      "children": [
        70
      ],
      "name": "mixamorig:RightHandPinky3_054",
      "rotation": [
        -0.04976785182952881,
        1.3515256879209004e-17,
        7.620963048780691e-18,
        0.9987608194351196
      ],
      "translation": [
        -0.004590583499521017,
        2.9703152179718018,
        1.4461249975283863e-09
      ]
    },
    {
      "name": "mixamorig:RightHandPinky4_00",
      "rotation": [
        4.821687493716809e-09,
        -1.3877787807814457e-17,
        -1.7347233725792305e-18,
        1.0
      ],
      "translation": [
        0.011726505123078823,
        2.374493360519409,
        1.2766463441948872e-09
      ]
    },
    {
      "children": [
        72
      ],
      "name": "mixamorig:LeftUpLeg_055",
      "rotation": [
        -0.0007227874593809247,
        -0.04298795387148857,
        0.9989341497421265,
        -0.016795800998806953
      ],
      "translation": [
        8.701239585876465,
        -5.7266845703125,
        0.13331729173660278
      ]
    },
    {
      "children": [
        73
      ],
      "name": "mixamorig:LeftLeg_056",
      "rotation": [
        0.020190630108118057,
        -0.0008047062437981367,
        -0.03981568664312363,
        0.9990026950836182
      ],
      "translation": [
        5.117863821624269e-08,
        42.337650299072266,
        -2.3149215877538154e-09
      ]
    },
    {
      "children": [
        74
      ],
      "name": "mixamorig:LeftFoot_057",
      "rotation": [
        0.5002703070640564,
        -0.061457905918359756,
        0.03562843054533005,
        0.8629503846168518
      ],
      "translation": [
        4.168988709807309e-09,
        40.112457275390625,
        -6.29353138492661e-08
      ]
    },
    {
      "children": [
        75
      ],
      "name": "mixamorig:LeftToeBase_058",
      "rotation": [
        0.2999585270881653,
        0.01983395405113697,
        -0.0062380279414355755,
        0.9537256360054016
      ],
      "translation": [
        -1.591890281815722e-07,
        17.76105308532715,
        -1.0459309152111018e-07
      ]
    },
    {
      "name": "mixamorig:LeftToe_End_059",
      "rotation": [
        -1.2140638494528844e-09,
        4.0766001685454967e-17,
        1.3877787807814457e-17,
        1.0
      ],
      "translation": [
        1.5537397146658805e-08,
        7.879962921142578,
        1.0711268316754285e-08
      ]
    },
    {
      "children": [
        77
      ],
      "name": "mixamorig:RightUpLeg_060",
      "rotation": [
        0.0007487228140234947,
        -0.04454263672232628,
        0.998866081237793,
        0.01679006963968277
      ],
      "translation": [
        -8.701239585876465,
        -5.7266845703125,
        0.6505759358406067
      ]
    },
    {
      "children": [
        78
      ],
      "name": "mixamorig:RightLeg_061",
      "rotation": [
        0.01792474091053009,
        0.000714088324457407,
        0.03980017080903053,
        0.9990466237068176
      ],
      "translation": [
        -6.692468801361429e-09,
        42.34920883178711,
        2.217442585106255e-08
      ]
    },
    {
      "children": [
        79
      ],
      "name": "mixamorig:RightFoot_062",
      "rotation": [
        0.49733859300613403,
        0.06317883729934692,
        -0.03634663298726082,
        0.8644892573356628
      ],
      "translation": [
        1.724994191931728e-08,
        40.127601623535156,
        4.727947100491292e-08
      ]
    },
    {
      "children": [
        80
      ],
      "name": "mixamorig:RightToeBase_063",
      "rotation": [
        0.3070695400238037,
        -0.02085288055241108,
        0.0067301345989108086,
        0.9514347910881042
      ],
      "translation": [
        -7.245148481160868e-08,
        17.374799728393555,
        5.031288310419768e-07
      ]
    },
    {
      "name": "mixamorig:RightToe_End_064",
      "rotation": [
        3.614175902999506e-10,
        -2.220446049250313e-16,
        6.938893903907228e-18,
        1.0
      ],
      "translation": [
        -1.4318148444658618e-08,
        7.759284973144531,
        -7.409399760405222e-09
      ]
    },
    {
      "name": "Eyes"
    },
    {
      "name": "default"
    },
    {
      "name": "Body"
    },
    {
      "name": "Hats"
    },
    {
      "name": "Tops"
    },
    {
      "name": "Shoes"
    },
    {
      "name": "Bottoms"
    }
  ],
  "samplers": [
    {
      "magFilter": 9729,
      "minFilter": 9987,
      "wrapS": 10497,
      "wrapT": 10497
    }
  ],
  "scene": 0,
  "scenes": [
    {
      "name": "Sketchfab_Scene",
      "nodes": [
        0
      ]
    }
  ],
  "skins": [
    {
      "inverseBindMatrices": 35,
      "joints": [
        5,
        16,
        17,
        18,
        19,
        20,
        21,
        22,
        23,
        24,
        25,
        26,
        27,
        28,
        29,
        30,
        31,
        32,
        33,
        34,
        35,
        36,
        37,
        38,
        39,
        40,
        41,
        42,
        43,
        44,
        45,
        46,
        47,
        48,
        49,
        50,
        51,
        52,
        53,
        54,
        55,
        56,
        57,
        58,
        59,
        60,
        61,
        62,
        63,
        64,
        65,
        66,
        67,
        68,
        69,
        70,
        71,
        72,
        73,
        74,
        75,
        76,
        77,
        78,
        79,
        80
      ],
      "skeleton": 5
    }
  ],
  "textures": [
    {
      "sampler": 0,
      "source": 0
    },
    {
      "sampler": 0,
      "source": 1
    },
    {
      "sampler": 0,
      "source": 2
    },
    {
      "sampler": 0,
      "source": 3
    },
    {
      "sampler": 0,
      "source": 4
    },
    {
      "sampler": 0,
      "source": 5
    }
  ]
}
