{
  "asset": {
    "version": "2.0",
    "generator": "MAIRA Vegetation Generator"
  },
  "scene": 0,
  "scenes": [
    {
      "name": "Grass Scene",
      "nodes": [0]
    }
  ],
  "nodes": [
    {
      "name": "Grass_01",
      "mesh": 0,
      "scale": [0.5, 0.5, 0.5]
    }
  ],
  "meshes": [
    {
      "name": "Grass_Mesh",
      "primitives": [
        {
          "attributes": {
            "POSITION": 0,
            "NORMAL": 1,
            "TEXCOORD_0": 2
          },
          "indices": 3,
          "material": 0
        }
      ]
    }
  ],
  "materials": [
    {
      "name": "Grass_Material",
      "pbrMetallicRoughness": {
        "baseColorFactor": [0.2, 0.8, 0.2, 1.0],
        "metallicFactor": 0.0,
        "roughnessFactor": 0.8
      }
    }
  ],
  "accessors": [
    {
      "bufferView": 0,
      "componentType": 5126,
      "count": 24,
      "type": "VEC3",
      "max": [0.5, 0.5, 0.5],
      "min": [-0.5, -0.5, -0.5]
    }
  ],
  "bufferViews": [
    {
      "buffer": 0,
      "byteLength": 288,
      "byteOffset": 0
    }
  ],
  "buffers": [
    {
      "byteLength": 288,
      "uri": "data:application/octet-stream;base64,..."
    }
  ]
}