{
  "accessors": [
    {
      "bufferView": 2,
      "componentType": 5126,
      "count": 31338,
      "max": [
        14.089136123657227,
        29.302146911621094,
        10.186691284179688
      ],
      "min": [
        -17.352294921875,
        0.0,
        -7.221950531005859
      ],
      "type": "VEC3"
    },
    {
      "bufferView": 2,
      "byteOffset": 376056,
      "componentType": 5126,
      "count": 31338,
      "max": [
        0.9999937415122986,
        0.999884843826294,
        0.9999745488166809
      ],
      "min": [
        -0.9999860525131226,
        -0.9998570084571838,
        -0.9999305605888367
      ],
      "type": "VEC3"
    },
    {
      "bufferView": 3,
      "componentType": 5126,
      "count": 31338,
      "max": [
        0.9998116493225098,
        0.9997467398643494,
        0.9999982118606567,
        1.0
      ],
      "min": [
        -0.999847948551178,
        -0.9988738298416138,
        -0.9999883770942688,
        -1.0
      ],
      "type": "VEC4"
    },
    {
      "bufferView": 1,
      "componentType": 5126,
      "count": 31338,
      "max": [
        2.844696044921875,
        151.81251525878906
      ],
      "min": [
        -0.9485896229743958,
        -1.190325140953064
      ],
      "type": "VEC2"
    },
    {
      "bufferView": 1,
      "byteOffset": 250704,
      "componentType": 5126,
      "count": 31338,
      "max": [
        2.844696044921875,
        151.81251525878906
      ],
      "min": [
        -0.9485896229743958,
        -1.190325140953064
      ],
      "type": "VEC2"
    },
    {
      "bufferView": 1,
      "byteOffset": 501408,
      "componentType": 5126,
      "count": 31338,
      "max": [
        1.0,
        0.9996291399002075
      ],
      "min": [
        0.0,
        0.8503709435462952
      ],
      "type": "VEC2"
    },
    {
      "bufferView": 1,
      "byteOffset": 752112,
      "componentType": 5126,
      "count": 31338,
      "max": [
        2.844696044921875,
        151.81251525878906
      ],
      "min": [
        -0.9485896229743958,
        -1.190325140953064
      ],
      "type": "VEC2"
    },
    {
      "bufferView": 0,
      "componentType": 5125,
      "count": 150063,
      "type": "SCALAR"
    },
    {
      "bufferView": 2,
      "byteOffset": 752112,
      "componentType": 5126,
      "count": 65532,
      "max": [
        14.744057655334473,
        27.649404525756836,
        10.77649974822998
      ],
      "min": [
        -18.168655395507813,
        7.7283148765563965,
        -5.733907699584961
      ],
      "type": "VEC3"
    },
    {
      "bufferView": 2,
      "byteOffset": 1538496,
      "componentType": 5126,
      "count": 65532,
      "max": [
        0.9998818039894104,
        0.9999996423721313,
        0.9999176263809204
      ],
      "min": [
        -0.9999252557754517,
        -0.9719865918159485,
        -0.9998151063919067
      ],
      "type": "VEC3"
    },
    {
      "bufferView": 1,
      "byteOffset": 1002816,
      "componentType": 5126,
      "count": 65532,
      "max": [
        1.951043963432312,
        167.22232055664063
      ],
      "min": [
        -0.974164605140686,
        -1.20028817653656
      ],
      "type": "VEC2"
    },
    {
      "bufferView": 1,
      "byteOffset": 1527072,
      "componentType": 5126,
      "count": 65532,
      "max": [
        1.951043963432312,
        167.22232055664063
      ],
      "min": [
        -0.974164605140686,
        -1.20028817653656
      ],
      "type": "VEC2"
    },
    {
      "bufferView": 1,
      "byteOffset": 2051328,
      "componentType": 5126,
      "count": 65532,
      "max": [
        1.0,
        0.9996291399002075
      ],
      "min": [
        1.0,
        0.9996291399002075
      ],
      "type": "VEC2"
    },
    {
      "bufferView": 1,
      "byteOffset": 2575584,
      "componentType": 5126,
      "count": 65532,
      "max": [
        1.951043963432312,
        167.22232055664063
      ],
      "min": [
        -0.974164605140686,
        -1.20028817653656
      ],
      "type": "VEC2"
    },
    {
      "bufferView": 0,
      "byteOffset": 600252,
      "componentType": 5125,
      "count": 292455,
      "type": "SCALAR"
    },
    {
      "bufferView": 2,
      "byteOffset": 2324880,
      "componentType": 5126,
      "count": 65532,
      "max": [
        17.73247528076172,
        31.779172897338867,
        12.178739547729492
      ],
      "min": [
        -8.003582954406738,
        14.104464530944824,
        -9.134163856506348
      ],
      "type": "VEC3"
    },
    {
      "bufferView": 2,
      "byteOffset": 3111264,
      "componentType": 5126,
      "count": 65532,
      "max": [
        0.9999988675117493,
        0.9999999403953552,
        0.9999048113822937
      ],
      "min": [
        -0.999950110912323,
        -0.9492828845977783,
        -0.9999825358390808
      ],
      "type": "VEC3"
    },
    {
      "bufferView": 1,
      "byteOffset": 3099840,
      "componentType": 5126,
      "count": 65532,
      "max": [
        1.9851720333099365,
        144.76901245117188
      ],
      "min": [
        -0.9893798828125,
        -1.207248330116272
      ],
      "type": "VEC2"
    },
    {
      "bufferView": 1,
      "byteOffset": 3624096,
      "componentType": 5126,
      "count": 65532,
      "max": [
        1.9851720333099365,
        144.76901245117188
      ],
      "min": [
        -0.9893798828125,
        -1.207248330116272
      ],
      "type": "VEC2"
    },
    {
      "bufferView": 1,
      "byteOffset": 4148352,
      "componentType": 5126,
      "count": 65532,
      "max": [
        1.0,
        0.9996291399002075
      ],
      "min": [
        1.0,
        0.9996291399002075
      ],
      "type": "VEC2"
    },
    {
      "bufferView": 1,
      "byteOffset": 4672608,
      "componentType": 5126,
      "count": 65532,
      "max": [
        1.9851720333099365,
        144.76901245117188
      ],
      "min": [
        -0.9893798828125,
        -1.207248330116272
      ],
      "type": "VEC2"
    },
    {
      "bufferView": 0,
      "byteOffset": 1770072,
      "componentType": 5125,
      "count": 291747,
      "type": "SCALAR"
    },
    {
      "bufferView": 2,
      "byteOffset": 3897648,
      "componentType": 5126,
      "count": 65534,
      "max": [
        4.903214454650879,
        29.44752311706543,
        10.410419464111328
      ],
      "min": [
        -10.494924545288086,
        3.5755560398101807,
        -9.383779525756836
      ],
      "type": "VEC3"
    },
    {
      "bufferView": 2,
      "byteOffset": 4684056,
      "componentType": 5126,
      "count": 65534,
      "max": [
        0.9994363784790039,
        0.9999998211860657,
        0.9999786019325256
      ],
      "min": [
        -0.9998081922531128,
        -0.9730281829833984,
        -0.9999889135360718
      ],
      "type": "VEC3"
    },
    {
      "bufferView": 1,
      "byteOffset": 5196864,
      "componentType": 5126,
      "count": 65534,
      "max": [
        1.9686039686203003,
        163.5387725830078
      ],
      "min": [
        -0.985425591468811,
        -1.192585825920105
      ],
      "type": "VEC2"
    },
    {
      "bufferView": 1,
      "byteOffset": 5721136,
      "componentType": 5126,
      "count": 65534,
      "max": [
        1.9686039686203003,
        163.5387725830078
      ],
      "min": [
        -0.985425591468811,
        -1.192585825920105
      ],
      "type": "VEC2"
    },
    {
      "bufferView": 1,
      "byteOffset": 6245408,
      "componentType": 5126,
      "count": 65534,
      "max": [
        1.0,
        0.9996291399002075
      ],
      "min": [
        1.0,
        0.9980965256690979
      ],
      "type": "VEC2"
    },
    {
      "bufferView": 1,
      "byteOffset": 6769680,
      "componentType": 5126,
      "count": 65534,
      "max": [
        1.9686039686203003,
        163.5387725830078
      ],
      "min": [
        -0.985425591468811,
        -1.192585825920105
      ],
      "type": "VEC2"
    },
    {
      "bufferView": 0,
      "byteOffset": 2937060,
      "componentType": 5125,
      "count": 291987,
      "type": "SCALAR"
    },
    {
      "bufferView": 2,
      "byteOffset": 5470464,
      "componentType": 5126,
      "count": 65532,
      "max": [
        14.364350318908691,
        30.017196655273438,
        12.701298713684082
      ],
      "min": [
        -6.861685276031494,
        9.619332313537598,
        -9.94192123413086
      ],
      "type": "VEC3"
    },
    {
      "bufferView": 2,
      "byteOffset": 6256848,
      "componentType": 5126,
      "count": 65532,
      "max": [
        0.9999507665634155,
        0.9999997615814209,
        0.9999802112579346
      ],
      "min": [
        -0.9999432563781738,
        -0.9306820631027222,
        -0.9999739527702332
      ],
      "type": "VEC3"
    },
    {
      "bufferView": 1,
      "byteOffset": 7293952,
      "componentType": 5126,
      "count": 65532,
      "max": [
        1.9844859838485718,
        174.37002563476563
      ],
      "min": [
        -0.9977676272392273,
        -1.1997120380401611
      ],
      "type": "VEC2"
    },
    {
      "bufferView": 1,
      "byteOffset": 7818208,
      "componentType": 5126,
      "count": 65532,
      "max": [
        1.9844859838485718,
        174.37002563476563
      ],
      "min": [
        -0.9977676272392273,
        -1.1997120380401611
      ],
      "type": "VEC2"
    },
    {
      "bufferView": 1,
      "byteOffset": 8342464,
      "componentType": 5126,
      "count": 65532,
      "max": [
        1.0,
        0.9996291399002075
      ],
      "min": [
        1.0,
        0.9996291399002075
      ],
      "type": "VEC2"
    },
    {
      "bufferView": 1,
      "byteOffset": 8866720,
      "componentType": 5126,
      "count": 65532,
      "max": [
        1.9844859838485718,
        174.37002563476563
      ],
      "min": [
        -0.9977676272392273,
        -1.1997120380401611
      ],
      "type": "VEC2"
    },
    {
      "bufferView": 0,
      "byteOffset": 4105008,
      "componentType": 5125,
      "count": 292080,
      "type": "SCALAR"
    },
    {
      "bufferView": 2,
      "byteOffset": 7043232,
      "componentType": 5126,
      "count": 1625,
      "max": [
        10.066320419311523,
        28.489578247070313,
        4.387856960296631
      ],
      "min": [
        4.343667030334473,
        21.62469482421875,
        -0.4556753635406494
      ],
      "type": "VEC3"
    },
    {
      "bufferView": 2,
      "byteOffset": 7062732,
      "componentType": 5126,
      "count": 1625,
      "max": [
        0.9801451563835144,
        0.9999950528144836,
        0.9313244819641113
      ],
      "min": [
        -0.9601012468338013,
        -0.770713746547699,
        -0.9629926681518555
      ],
      "type": "VEC3"
    },
    {
      "bufferView": 1,
      "byteOffset": 9390976,
      "componentType": 5126,
      "count": 1625,
      "max": [
        1.4252779483795166,
        150.3887176513672
      ],
      "min": [
        -0.8440144062042236,
        -0.48022526502609253
      ],
      "type": "VEC2"
    },
    {
      "bufferView": 1,
      "byteOffset": 9403976,
      "componentType": 5126,
      "count": 1625,
      "max": [
        1.4252779483795166,
        150.3887176513672
      ],
      "min": [
        -0.8440144062042236,
        -0.48022526502609253
      ],
      "type": "VEC2"
    },
    {
      "bufferView": 1,
      "byteOffset": 9416976,
      "componentType": 5126,
      "count": 1625,
      "max": [
        1.0,
        0.9996291399002075
      ],
      "min": [
        1.0,
        0.9996291399002075
      ],
      "type": "VEC2"
    },
    {
      "bufferView": 1,
      "byteOffset": 9429976,
      "componentType": 5126,
      "count": 1625,
      "max": [
        1.4252779483795166,
        150.3887176513672
      ],
      "min": [
        -0.8440144062042236,
        -0.48022526502609253
      ],
      "type": "VEC2"
    },
    {
      "bufferView": 0,
      "byteOffset": 5273328,
      "componentType": 5125,
      "count": 6771,
      "type": "SCALAR"
    },
    {
      "bufferView": 2,
      "byteOffset": 7082232,
      "componentType": 5126,
      "count": 65532,
      "max": [
        18.01923179626465,
        32.093746185302734,
        12.753843307495117
      ],
      "min": [
        -18.637165069580078,
        3.343749761581421,
        -10.421149253845215
      ],
      "type": "VEC3"
    },
    {
      "bufferView": 2,
      "byteOffset": 7868616,
      "componentType": 5126,
      "count": 65532,
      "max": [
        0.9999170899391174,
        0.9999954104423523,
        0.9999866485595703
      ],
      "min": [
        -0.999705970287323,
        -0.9986451864242554,
        -0.9999144673347473
      ],
      "type": "VEC3"
    },
    {
      "bufferView": 3,
      "byteOffset": 501408,
      "componentType": 5126,
      "count": 65532,
      "max": [
        0.9999569654464722,
        0.9999610185623169,
        0.9999613761901855,
        1.0
      ],
      "min": [
        -0.9999653100967407,
        -0.999745786190033,
        -0.9999819993972778,
        -1.0
      ],
      "type": "VEC4"
    },
    {
      "bufferView": 1,
      "byteOffset": 9442976,
      "componentType": 5126,
      "count": 65532,
      "max": [
        1.0,
        1.0
      ],
      "min": [
        0.0,
        0.0
      ],
      "type": "VEC2"
    },
    {
      "bufferView": 1,
      "byteOffset": 9967232,
      "componentType": 5126,
      "count": 65532,
      "max": [
        1.0,
        1.0
      ],
      "min": [
        0.0,
        0.0
      ],
      "type": "VEC2"
    },
    {
      "bufferView": 1,
      "byteOffset": 10491488,
      "componentType": 5126,
      "count": 65532,
      "max": [
        1.0,
        0.9996291399002075
      ],
      "min": [
        1.0,
        0.9955534338951111
      ],
      "type": "VEC2"
    },
    {
      "bufferView": 1,
      "byteOffset": 11015744,
      "componentType": 5126,
      "count": 65532,
      "max": [
        1.0,
        1.0
      ],
      "min": [
        0.0,
        0.0
      ],
      "type": "VEC2"
    },
    {
      "bufferView": 0,
      "byteOffset": 5300412,
      "componentType": 5125,
      "count": 98298,
      "type": "SCALAR"
    },
    {
      "bufferView": 2,
      "byteOffset": 8655000,
      "componentType": 5126,
      "count": 44628,
      "max": [
        18.128021240234375,
        30.886228561401367,
        12.958208084106445
      ],
      "min": [
        -16.154129028320313,
        9.50637149810791,
        -9.687357902526855
      ],
      "type": "VEC3"
    },
    {
      "bufferView": 2,
      "byteOffset": 9190536,
      "componentType": 5126,
      "count": 44628,
      "max": [
        0.9995908737182617,
        0.9999825954437256,
        0.9998911619186401
      ],
      "min": [
        -0.9999613761901855,
        -0.99516761302948,
        -0.9996596574783325
      ],
      "type": "VEC3"
    },
    {
      "bufferView": 3,
      "byteOffset": 1549920,
      "componentType": 5126,
      "count": 44628,
      "max": [
        0.999957799911499,
        0.9999439716339111,
        0.9999052286148071,
        1.0
      ],
      "min": [
        -0.9999803900718689,
        -0.9999629855155945,
        -0.999991238117218,
        -1.0
      ],
      "type": "VEC4"
    },
    {
      "bufferView": 1,
      "byteOffset": 11540000,
      "componentType": 5126,
      "count": 44628,
      "max": [
        1.0,
        1.0
      ],
      "min": [
        0.0,
        0.0
      ],
      "type": "VEC2"
    },
    {
      "bufferView": 1,
      "byteOffset": 11897024,
      "componentType": 5126,
      "count": 44628,
      "max": [
        1.0,
        1.0
      ],
      "min": [
        0.0,
        0.0
      ],
      "type": "VEC2"
    },
    {
      "bufferView": 1,
      "byteOffset": 12254048,
      "componentType": 5126,
      "count": 44628,
      "max": [
        1.0,
        0.9996291399002075
      ],
      "min": [
        1.0,
        0.9996291399002075
      ],
      "type": "VEC2"
    },
    {
      "bufferView": 1,
      "byteOffset": 12611072,
      "componentType": 5126,
      "count": 44628,
      "max": [
        1.0,
        1.0
      ],
      "min": [
        0.0,
        0.0
      ],
      "type": "VEC2"
    },
    {
      "bufferView": 0,
      "byteOffset": 5693604,
      "componentType": 5125,
      "count": 66942,
      "type": "SCALAR"
    }
  ],
  "asset": {
    "extras": {
      "author": "hanandess (https://sketchfab.com/hanandess)",
      "license": "CC-BY-4.0 (http://creativecommons.org/licenses/by/4.0/)",
      "source": "https://sketchfab.com/3d-models/lloque-2d231d56b67941c8bfafcdb0bd57ae4c",
      "title": "Lloque"
    },
    "generator": "Sketchfab-14.64.0",
    "version": "2.0"
  },
  "bufferViews": [
    {
      "buffer": 0,
      "byteLength": 5961372,
      "name": "floatBufferViews",
      "target": 34963
    },
    {
      "buffer": 0,
      "byteLength": 12968096,
      "byteOffset": 5961372,
      "byteStride": 8,
      "name": "floatBufferViews",
      "target": 34962
    },
    {
      "buffer": 0,
      "byteLength": 9726072,
      "byteOffset": 18929468,
      "byteStride": 12,
      "name": "floatBufferViews",
      "target": 34962
    },
    {
      "buffer": 0,
      "byteLength": 2263968,
      "byteOffset": 28655540,
      "byteStride": 16,
      "name": "floatBufferViews",
      "target": 34962
    }
  ],
  "buffers": [
    {
      "byteLength": 30919508,
      "uri": "scene.bin"
    }
  ],
  "images": [
    {
      "uri": "textures/Tronco_Mat_baseColor.png"
    },
    {
      "uri": "textures/Tronco_Mat_metallicRoughness.png"
    },
    {
      "uri": "textures/Tronco_Mat_normal.png"
    },
    {
      "uri": "textures/Ultima_rama_Mat_baseColor.png"
    },
    {
      "uri": "textures/Hojas_Mat_baseColor.png"
    },
    {
      "uri": "textures/Hojas_Mat_metallicRoughness.png"
    },
    {
      "uri": "textures/Hojas_Mat_normal.png"
    }
  ],
  "materials": [
    {
      "doubleSided": true,
      "name": "Tronco_Mat",
      "normalTexture": {
        "index": 2
      },
      "pbrMetallicRoughness": {
        "baseColorTexture": {
          "index": 0
        },
        "metallicFactor": 0.0,
        "metallicRoughnessTexture": {
          "index": 1
        }
      }
    },
    {
      "doubleSided": true,
      "name": "Ultima_rama_Mat",
      "pbrMetallicRoughness": {
        "baseColorTexture": {
          "index": 3
        },
        "metallicFactor": 0.0,
        "roughnessFactor": 0.18475942021918546
      }
    },
    {
      "alphaMode": "BLEND",
      "doubleSided": true,
      "name": "Hojas_Mat",
      "normalTexture": {
        "index": 6
      },
      "pbrMetallicRoughness": {
        "baseColorTexture": {
          "index": 4
        },
        "metallicFactor": 0.0,
        "metallicRoughnessTexture": {
          "index": 5
        }
      }
    }
  ],
  "meshes": [
    {
      "name": "Tronco_Tronco_Mat_0",
      "primitives": [
        {
          "attributes": {
            "NORMAL": 1,
            "POSITION": 0,
            "TANGENT": 2,
            "TEXCOORD_0": 3,
            "TEXCOORD_1": 4,
            "TEXCOORD_2": 5,
            "TEXCOORD_3": 6
          },
          "indices": 7,
          "material": 0,
          "mode": 4
        }
      ]
    },
    {
      "name": "Ultima_rama_Ultima_rama_Mat_0",
      "primitives": [
        {
          "attributes": {
            "NORMAL": 9,
            "POSITION": 8,
            "TEXCOORD_0": 10,
            "TEXCOORD_1": 11,
            "TEXCOORD_2": 12,
            "TEXCOORD_3": 13
          },
          "indices": 14,
          "material": 1,
          "mode": 4
        }
      ]
    },
    {
      "name": "Ultima_rama_Ultima_rama_Mat_0",
      "primitives": [
        {
          "attributes": {
            "NORMAL": 16,
            "POSITION": 15,
            "TEXCOORD_0": 17,
            "TEXCOORD_1": 18,
            "TEXCOORD_2": 19,
            "TEXCOORD_3": 20
          },
          "indices": 21,
          "material": 1,
          "mode": 4
        }
      ]
    },
    {
      "name": "Ultima_rama_Ultima_rama_Mat_0",
      "primitives": [
        {
          "attributes": {
            "NORMAL": 23,
            "POSITION": 22,
            "TEXCOORD_0": 24,
            "TEXCOORD_1": 25,
            "TEXCOORD_2": 26,
            "TEXCOORD_3": 27
          },
          "indices": 28,
          "material": 1,
          "mode": 4
        }
      ]
    },
    {
      "name": "Ultima_rama_Ultima_rama_Mat_0",
      "primitives": [
        {
          "attributes": {
            "NORMAL": 30,
            "POSITION": 29,
            "TEXCOORD_0": 31,
            "TEXCOORD_1": 32,
            "TEXCOORD_2": 33,
            "TEXCOORD_3": 34
          },
          "indices": 35,
          "material": 1,
          "mode": 4
        }
      ]
    },
    {
      "name": "Ultima_rama_Ultima_rama_Mat_0",
      "primitives": [
        {
          "attributes": {
            "NORMAL": 37,
            "POSITION": 36,
            "TEXCOORD_0": 38,
            "TEXCOORD_1": 39,
            "TEXCOORD_2": 40,
            "TEXCOORD_3": 41
          },
          "indices": 42,
          "material": 1,
          "mode": 4
        }
      ]
    },
    {
      "name": "Hojas_Hojas_Mat_0",
      "primitives": [
        {
          "attributes": {
            "NORMAL": 44,
            "POSITION": 43,
            "TANGENT": 45,
            "TEXCOORD_0": 46,
            "TEXCOORD_1": 47,
            "TEXCOORD_2": 48,
            "TEXCOORD_3": 49
          },
          "indices": 50,
          "material": 2,
          "mode": 4
        }
      ]
    },
    {
      "name": "Hojas_Hojas_Mat_0",
      "primitives": [
        {
          "attributes": {
            "NORMAL": 52,
            "POSITION": 51,
            "TANGENT": 53,
            "TEXCOORD_0": 54,
            "TEXCOORD_1": 55,
            "TEXCOORD_2": 56,
            "TEXCOORD_3": 57
          },
          "indices": 58,
          "material": 2,
          "mode": 4
        }
      ]
    }
  ],
  "nodes": [
    {
      "children": [
        1
      ],
      "matrix": [
        1.0,
        0.0,
        0.0,
        0.0,
        0.0,
        2.220446049250313e-16,
        -1.0,
        0.0,
        0.0,
        1.0,
        2.220446049250313e-16,
        0.0,
        0.0,
        0.0,
        0.0,
        1.0
      ],
      "name": "Sketchfab_model"
    },
    {
      "children": [
        2
      ],
      "matrix": [
        0.30480000376701355,
        0.0,
        0.0,
        0.0,
        0.0,
        0.0,
        0.30480000376701355,
        0.0,
        0.0,
        -0.30480000376701355,
        0.0,
        0.0,
        0.0,
        0.0,
        0.0,
        1.0
      ],
      "name": "d6e21f0802bf421faded4569d16d8182.fbx"
    },
    {
      "children": [
        3
      ],
      "name": "RootNode"
    },
    {
      "children": [
        4,
        6,
        12
      ],
      "name": "Lloque_Pro_10m"
    },
    {
      "children": [
        5
      ],
      "name": "Tronco"
    },
    {
      "mesh": 0,
      "name": "Tronco_Tronco_Mat_0"
    },
    {
      "children": [
        7,
        8,
        9,
        10,
        11
      ],
      "name": "Ultima_rama"
    },
    {
      "mesh": 1,
      "name": "Ultima_rama_Ultima_rama_Mat_0"
    },
    {
      "mesh": 2,
      "name": "Ultima_rama_Ultima_rama_Mat_0"
    },
    {
      "mesh": 3,
      "name": "Ultima_rama_Ultima_rama_Mat_0"
    },
    {
      "mesh": 4,
      "name": "Ultima_rama_Ultima_rama_Mat_0"
    },
    {
      "mesh": 5,
      "name": "Ultima_rama_Ultima_rama_Mat_0"
    },
    {
      "children": [
        13,
        14
      ],
      "name": "Hojas"
    },
    {
      "mesh": 6,
      "name": "Hojas_Hojas_Mat_0"
    },
    {
      "mesh": 7,
      "name": "Hojas_Hojas_Mat_0"
    }
  ],
  "samplers": [
    {
      "magFilter": 9729,
      "minFilter": 9987,
      "wrapS": 10497,
      "wrapT": 10497
    }
  ],
  "scene": 0,
  "scenes": [
    {
      "name": "Sketchfab_Scene",
      "nodes": [
        0
      ]
    }
  ],
  "textures": [
    {
      "sampler": 0,
      "source": 0
    },
    {
      "sampler": 0,
      "source": 1
    },
    {
      "sampler": 0,
      "source": 2
    },
    {
      "sampler": 0,
      "source": 3
    },
    {
      "sampler": 0,
      "source": 4
    },
    {
      "sampler": 0,
      "source": 5
    },
    {
      "sampler": 0,
      "source": 6
    }
  ]
}
