{
  "accessors": [
    {
      "bufferView": 2,
      "componentType": 5126,
      "count": 65532,
      "max": [
        32.290504455566406,
        -79.64967346191406,
        40.9189453125
      ],
      "min": [
        -32.29059982299805,
        -164.2599639892578,
        -43.064632415771484
      ],
      "type": "VEC3"
    },
    {
      "bufferView": 2,
      "byteOffset": 786384,
      "componentType": 5126,
      "count": 65532,
      "max": [
        0.9998142719268799,
        1.0,
        0.9998850226402283
      ],
      "min": [
        -0.9999731779098511,
        -0.9999989867210388,
        -0.9999418258666992
      ],
      "type": "VEC3"
    },
    {
      "bufferView": 3,
      "componentType": 5126,
      "count": 65532,
      "max": [
        0.9999987483024597,
        0.9999477863311768,
        0.9999953508377075,
        1.0
      ],
      "min": [
        -0.9999983906745911,
        -0.9999442100524902,
        -0.9999731779098511,
        -1.0
      ],
      "type": "VEC4"
    },
    {
      "bufferView": 1,
      "componentType": 5126,
      "count": 65532,
      "max": [
        0.5881335139274597,
        0.9774705767631531
      ],
      "min": [
        0.010583763010799885,
        0.014360583387315273
      ],
      "type": "VEC2"
    },
    {
      "bufferView": 0,
      "componentType": 5125,
      "count": 307650,
      "type": "SCALAR"
    },
    {
      "bufferView": 2,
      "byteOffset": 1572768,
      "componentType": 5126,
      "count": 65532,
      "max": [
        31.715499877929688,
        -2.7422332763671875,
        42.562721252441406
      ],
      "min": [
        -31.81895637512207,
        -82.16377258300781,
        -42.55189514160156
      ],
      "type": "VEC3"
    },
    {
      "bufferView": 2,
      "byteOffset": 2359152,
      "componentType": 5126,
      "count": 65532,
      "max": [
        0.9993700385093689,
        1.0,
        0.9998989701271057
      ],
      "min": [
        -1.0,
        -0.9999997615814209,
        -0.9999287724494934
      ],
      "type": "VEC3"
    },
    {
      "bufferView": 3,
      "byteOffset": 1048512,
      "componentType": 5126,
      "count": 65532,
      "max": [
        0.9999985694885254,
        0.9999808073043823,
        0.9999938607215881,
        1.0
      ],
      "min": [
        -0.9999998807907104,
        -0.9999824166297913,
        -0.9999773502349854,
        -1.0
      ],
      "type": "VEC4"
    },
    {
      "bufferView": 1,
      "byteOffset": 524256,
      "componentType": 5126,
      "count": 65532,
      "max": [
        0.5881335139274597,
        0.9774705767631531
      ],
      "min": [
        0.010583763010799885,
        0.014360583387315273
      ],
      "type": "VEC2"
    },
    {
      "bufferView": 0,
      "byteOffset": 1230600,
      "componentType": 5125,
      "count": 307650,
      "type": "SCALAR"
    },
    {
      "bufferView": 2,
      "byteOffset": 3145536,
      "componentType": 5126,
      "count": 65532,
      "max": [
        31.324636459350586,
        194.0048828125,
        43.035980224609375
      ],
      "min": [
        -30.986783981323242,
        -194.0048370361328,
        -41.95665740966797
      ],
      "type": "VEC3"
    },
    {
      "bufferView": 2,
      "byteOffset": 3931920,
      "componentType": 5126,
      "count": 65532,
      "max": [
        0.9997702240943909,
        0.9999992251396179,
        0.999944806098938
      ],
      "min": [
        -0.9995498061180115,
        -0.9999986290931702,
        -0.9999458193778992
      ],
      "type": "VEC3"
    },
    {
      "bufferView": 3,
      "byteOffset": 2097024,
      "componentType": 5126,
      "count": 65532,
      "max": [
        0.9999969005584717,
        0.9999459385871887,
        0.9999997019767761,
        1.0
      ],
      "min": [
        -0.9999985098838806,
        -0.9999948740005493,
        -0.9999886751174927,
        -1.0
      ],
      "type": "VEC4"
    },
    {
      "bufferView": 1,
      "byteOffset": 1048512,
      "componentType": 5126,
      "count": 65532,
      "max": [
        0.9717247486114502,
        0.9774705767631531
      ],
      "min": [
        0.010583763010799885,
        0.014360583387315273
      ],
      "type": "VEC2"
    },
    {
      "bufferView": 0,
      "byteOffset": 2461200,
      "componentType": 5125,
      "count": 312513,
      "type": "SCALAR"
    },
    {
      "bufferView": 2,
      "byteOffset": 4718304,
      "componentType": 5126,
      "count": 65532,
      "max": [
        32.100284576416016,
        176.05274963378906,
        43.0645866394043
      ],
      "min": [
        -32.169864654541016,
        -124.96400451660156,
        -42.83348083496094
      ],
      "type": "VEC3"
    },
    {
      "bufferView": 2,
      "byteOffset": 5504688,
      "componentType": 5126,
      "count": 65532,
      "max": [
        0.9999793767929077,
        0.999997079372406,
        0.9999225735664368
      ],
      "min": [
        -0.9988740086555481,
        -1.0,
        -0.9999872446060181
      ],
      "type": "VEC3"
    },
    {
      "bufferView": 3,
      "byteOffset": 3145536,
      "componentType": 5126,
      "count": 65532,
      "max": [
        0.999996542930603,
        0.9999960660934448,
        0.9999955892562866,
        1.0
      ],
      "min": [
        -0.9999929666519165,
        -0.9999974966049194,
        -0.9999997019767761,
        -1.0
      ],
      "type": "VEC4"
    },
    {
      "bufferView": 1,
      "byteOffset": 1572768,
      "componentType": 5126,
      "count": 65532,
      "max": [
        0.946977972984314,
        0.9774705767631531
      ],
      "min": [
        0.010583763010799885,
        0.014360583387315273
      ],
      "type": "VEC2"
    },
    {
      "bufferView": 0,
      "byteOffset": 3711252,
      "componentType": 5125,
      "count": 309867,
      "type": "SCALAR"
    },
    {
      "bufferView": 2,
      "byteOffset": 6291072,
      "componentType": 5126,
      "count": 39388,
      "max": [
        32.15239334106445,
        54.74705505371094,
        43.018245697021484
      ],
      "min": [
        -32.17768478393555,
        5.9187774658203125,
        -42.56480026245117
      ],
      "type": "VEC3"
    },
    {
      "bufferView": 2,
      "byteOffset": 6763728,
      "componentType": 5126,
      "count": 39388,
      "max": [
        0.9991998672485352,
        0.9999980330467224,
        0.9995815753936768
      ],
      "min": [
        -0.996846616268158,
        -0.9999985098838806,
        -0.9998491406440735
      ],
      "type": "VEC3"
    },
    {
      "bufferView": 3,
      "byteOffset": 4194048,
      "componentType": 5126,
      "count": 39388,
      "max": [
        0.9999954104423523,
        0.9991105198860168,
        0.9999956488609314,
        1.0
      ],
      "min": [
        -0.9999997615814209,
        -0.9994611144065857,
        -0.9999942183494568,
        -1.0
      ],
      "type": "VEC4"
    },
    {
      "bufferView": 1,
      "byteOffset": 2097024,
      "componentType": 5126,
      "count": 39388,
      "max": [
        0.5881335139274597,
        0.9774705767631531
      ],
      "min": [
        0.010583763010799885,
        0.014360583387315273
      ],
      "type": "VEC2"
    },
    {
      "bufferView": 0,
      "byteOffset": 4950720,
      "componentType": 5125,
      "count": 184284,
      "type": "SCALAR"
    },
    {
      "bufferView": 2,
      "byteOffset": 7236384,
      "componentType": 5126,
      "count": 65532,
      "max": [
        48.73418045043945,
        -46.24224090576172,
        45.85988235473633
      ],
      "min": [
        -30.615978240966797,
        -95.36444854736328,
        -62.17169189453125
      ],
      "type": "VEC3"
    },
    {
      "bufferView": 2,
      "byteOffset": 8022768,
      "componentType": 5126,
      "count": 65532,
      "max": [
        0.9996536374092102,
        0.9999997615814209,
        0.9999879002571106
      ],
      "min": [
        -0.9999698400497437,
        -0.9999715685844421,
        -0.9999879002571106
      ],
      "type": "VEC3"
    },
    {
      "bufferView": 3,
      "byteOffset": 4824256,
      "componentType": 5126,
      "count": 65532,
      "max": [
        0.9999839663505554,
        0.9999884366989136,
        0.9999454617500305,
        1.0
      ],
      "min": [
        -0.9999935626983643,
        -0.9999906420707703,
        -0.9999971389770508,
        -1.0
      ],
      "type": "VEC4"
    },
    {
      "bufferView": 1,
      "byteOffset": 2412128,
      "componentType": 5126,
      "count": 65532,
      "max": [
        0.26396602392196655,
        0.9866827726364136
      ],
      "min": [
        0.017339546233415604,
        0.5754135847091675
      ],
      "type": "VEC2"
    },
    {
      "bufferView": 0,
      "byteOffset": 5687856,
      "componentType": 5125,
      "count": 307650,
      "type": "SCALAR"
    },
    {
      "bufferView": 2,
      "byteOffset": 8809152,
      "componentType": 5126,
      "count": 65532,
      "max": [
        48.28593063354492,
        -1.59210205078125,
        49.41878128051758
      ],
      "min": [
        -33.111961364746094,
        -47.701866149902344,
        -63.738624572753906
      ],
      "type": "VEC3"
    },
    {
      "bufferView": 2,
      "byteOffset": 9595536,
      "componentType": 5126,
      "count": 65532,
      "max": [
        0.9999536871910095,
        1.0,
        0.9999792575836182
      ],
      "min": [
        -0.9999927282333374,
        -0.9999977350234985,
        -0.9999715089797974
      ],
      "type": "VEC3"
    },
    {
      "bufferView": 3,
      "byteOffset": 5872768,
      "componentType": 5126,
      "count": 65532,
      "max": [
        0.9999859929084778,
        0.9999547004699707,
        0.9999861717224121,
        1.0
      ],
      "min": [
        -0.9999927282333374,
        -0.9999638795852661,
        -0.9999276995658875,
        -1.0
      ],
      "type": "VEC4"
    },
    {
      "bufferView": 1,
      "byteOffset": 2936384,
      "componentType": 5126,
      "count": 65532,
      "max": [
        0.26396602392196655,
        0.9866827726364136
      ],
      "min": [
        0.017339546233415604,
        0.5754135847091675
      ],
      "type": "VEC2"
    },
    {
      "bufferView": 0,
      "byteOffset": 6918456,
      "componentType": 5125,
      "count": 307650,
      "type": "SCALAR"
    },
    {
      "bufferView": 2,
      "byteOffset": 10381920,
      "componentType": 5126,
      "count": 65532,
      "max": [
        49.06222152709961,
        112.6333999633789,
        48.66209030151367
      ],
      "min": [
        -31.61864471435547,
        -112.63343048095703,
        -62.85615158081055
      ],
      "type": "VEC3"
    },
    {
      "bufferView": 2,
      "byteOffset": 11168304,
      "componentType": 5126,
      "count": 65532,
      "max": [
        0.99992436170578,
        0.9999991655349731,
        0.9999421834945679
      ],
      "min": [
        -0.999992847442627,
        -0.99994295835495,
        -0.9999644160270691
      ],
      "type": "VEC3"
    },
    {
      "bufferView": 3,
      "byteOffset": 6921280,
      "componentType": 5126,
      "count": 65532,
      "max": [
        0.9999735951423645,
        0.9999983310699463,
        0.9999939799308777,
        1.0
      ],
      "min": [
        -0.9999855160713196,
        -0.9999529123306274,
        -0.9999405145645142,
        -1.0
      ],
      "type": "VEC4"
    },
    {
      "bufferView": 1,
      "byteOffset": 3460640,
      "componentType": 5126,
      "count": 65532,
      "max": [
        0.9717247486114502,
        0.9866827726364136
      ],
      "min": [
        0.017339546233415604,
        0.03399529680609703
      ],
      "type": "VEC2"
    },
    {
      "bufferView": 0,
      "byteOffset": 8149056,
      "componentType": 5125,
      "count": 312561,
      "type": "SCALAR"
    },
    {
      "bufferView": 2,
      "byteOffset": 11954688,
      "componentType": 5126,
      "count": 65532,
      "max": [
        66.05255126953125,
        114.65087127685547,
        57.99453353881836
      ],
      "min": [
        -66.43244934082031,
        -114.65088653564453,
        -63.816287994384766
      ],
      "type": "VEC3"
    },
    {
      "bufferView": 2,
      "byteOffset": 12741072,
      "componentType": 5126,
      "count": 65532,
      "max": [
        0.9998992085456848,
        0.9999598264694214,
        0.9998571872711182
      ],
      "min": [
        -0.9999986290931702,
        -1.0,
        -0.9998342990875244
      ],
      "type": "VEC3"
    },
    {
      "bufferView": 3,
      "byteOffset": 7969792,
      "componentType": 5126,
      "count": 65532,
      "max": [
        0.9999890327453613,
        0.9999617338180542,
        0.9999646544456482,
        1.0
      ],
      "min": [
        -0.9998998045921326,
        -0.9999866485595703,
        -0.9998998641967773,
        -1.0
      ],
      "type": "VEC4"
    },
    {
      "bufferView": 1,
      "byteOffset": 3984896,
      "componentType": 5126,
      "count": 65532,
      "max": [
        0.9246140718460083,
        1.0052821636199951
      ],
      "min": [
        0.016762293875217438,
        0.014883752912282944
      ],
      "type": "VEC2"
    },
    {
      "bufferView": 0,
      "byteOffset": 9399300,
      "componentType": 5125,
      "count": 308784,
      "type": "SCALAR"
    },
    {
      "bufferView": 2,
      "byteOffset": 13527456,
      "componentType": 5126,
      "count": 40015,
      "max": [
        49.64699172973633,
        31.784469604492188,
        48.237117767333984
      ],
      "min": [
        -32.398258209228516,
        3.4362411499023438,
        -63.68785858154297
      ],
      "type": "VEC3"
    },
    {
      "bufferView": 2,
      "byteOffset": 14007636,
      "componentType": 5126,
      "count": 40015,
      "max": [
        0.9998021721839905,
        0.999990701675415,
        0.9998958110809326
      ],
      "min": [
        -0.9995151162147522,
        -0.9999541640281677,
        -0.9999629855155945
      ],
      "type": "VEC3"
    },
    {
      "bufferView": 3,
      "byteOffset": 9018304,
      "componentType": 5126,
      "count": 40015,
      "max": [
        0.9999966025352478,
        0.9996365904808044,
        0.9999875426292419,
        1.0
      ],
      "min": [
        -0.9999966621398926,
        -0.9996408224105835,
        -0.9999983906745911,
        -1.0
      ],
      "type": "VEC4"
    },
    {
      "bufferView": 1,
      "byteOffset": 4509152,
      "componentType": 5126,
      "count": 40015,
      "max": [
        0.26396602392196655,
        0.9866827726364136
      ],
      "min": [
        0.017339546233415604,
        0.5754135847091675
      ],
      "type": "VEC2"
    },
    {
      "bufferView": 0,
      "byteOffset": 10634436,
      "componentType": 5125,
      "count": 187515,
      "type": "SCALAR"
    },
    {
      "bufferView": 2,
      "byteOffset": 14487816,
      "componentType": 5126,
      "count": 65532,
      "max": [
        0.11090648174285889,
        72.76641082763672,
        95.99031066894531
      ],
      "min": [
        -1.641582727432251,
        -104.17448425292969,
        39.66455078125
      ],
      "type": "VEC3"
    },
    {
      "bufferView": 2,
      "byteOffset": 15274200,
      "componentType": 5126,
      "count": 65532,
      "max": [
        0.9993747472763062,
        0.9978302121162415,
        0.9992642402648926
      ],
      "min": [
        -0.9988963007926941,
        -0.997829794883728,
        -0.9992642402648926
      ],
      "type": "VEC3"
    },
    {
      "bufferView": 3,
      "byteOffset": 9658544,
      "componentType": 5126,
      "count": 65532,
      "max": [
        0.999774694442749,
        0.9961271286010742,
        0.9996837973594666,
        1.0
      ],
      "min": [
        -0.9997697472572327,
        -0.9961336851119995,
        -0.9996839761734009,
        -1.0
      ],
      "type": "VEC4"
    },
    {
      "bufferView": 1,
      "byteOffset": 4829272,
      "componentType": 5126,
      "count": 65532,
      "max": [
        0.5141026973724365,
        0.9908497929573059
      ],
      "min": [
        0.021150976419448853,
        0.14520925283432007
      ],
      "type": "VEC2"
    },
    {
      "bufferView": 0,
      "byteOffset": 11384496,
      "componentType": 5125,
      "count": 307662,
      "type": "SCALAR"
    },
    {
      "bufferView": 2,
      "byteOffset": 16060584,
      "componentType": 5126,
      "count": 65534,
      "max": [
        4.723618030548096,
        114.87603759765625,
        98.28042602539063
      ],
      "min": [
        -5.90978479385376,
        -108.80596160888672,
        68.167236328125
      ],
      "type": "VEC3"
    },
    {
      "bufferView": 2,
      "byteOffset": 16846992,
      "componentType": 5126,
      "count": 65534,
      "max": [
        0.999985933303833,
        0.9999991655349731,
        0.9999889135360718
      ],
      "min": [
        -0.9999858736991882,
        -0.9999938607215881,
        -0.9999890327453613
      ],
      "type": "VEC3"
    },
    {
      "bufferView": 3,
      "byteOffset": 10707056,
      "componentType": 5126,
      "count": 65534,
      "max": [
        0.9999887943267822,
        0.9999560713768005,
        0.9999952912330627,
        1.0
      ],
      "min": [
        -0.9998809695243835,
        -0.9998509883880615,
        -0.999999463558197,
        -1.0
      ],
      "type": "VEC4"
    },
    {
      "bufferView": 1,
      "byteOffset": 5353528,
      "componentType": 5126,
      "count": 65534,
      "max": [
        0.9210233688354492,
        0.9919775128364563
      ],
      "min": [
        0.021150976419448853,
        0.07276048511266708
      ],
      "type": "VEC2"
    },
    {
      "bufferView": 0,
      "byteOffset": 12615144,
      "componentType": 5125,
      "count": 318177,
      "type": "SCALAR"
    },
    {
      "bufferView": 2,
      "byteOffset": 17633400,
      "componentType": 5126,
      "count": 65532,
      "max": [
        4.975996971130371,
        114.87603759765625,
        106.12142181396484
      ],
      "min": [
        -4.838627338409424,
        -108.80596160888672,
        -0.0718129426240921
      ],
      "type": "VEC3"
    },
    {
      "bufferView": 2,
      "byteOffset": 18419784,
      "componentType": 5126,
      "count": 65532,
      "max": [
        0.9999920725822449,
        0.9999964237213135,
        1.0
      ],
      "min": [
        -0.9999920129776001,
        -0.9999964237213135,
        -1.0
      ],
      "type": "VEC3"
    },
    {
      "bufferView": 3,
      "byteOffset": 11755600,
      "componentType": 5126,
      "count": 65532,
      "max": [
        0.9999989867210388,
        0.9999997615814209,
        0.9999909400939941,
        1.0
      ],
      "min": [
        -0.9999390244483948,
        -0.9999663233757019,
        -0.9999922513961792,
        -1.0
      ],
      "type": "VEC4"
    },
    {
      "bufferView": 1,
      "byteOffset": 5877800,
      "componentType": 5126,
      "count": 65532,
      "max": [
        0.9210233688354492,
        0.9919775128364563
      ],
      "min": [
        0.021150976419448853,
        0.004903070628643036
      ],
      "type": "VEC2"
    },
    {
      "bufferView": 0,
      "byteOffset": 13887852,
      "componentType": 5125,
      "count": 307344,
      "type": "SCALAR"
    },
    {
      "bufferView": 2,
      "byteOffset": 19206168,
      "componentType": 5126,
      "count": 65532,
      "max": [
        5.205376148223877,
        7.7512640953063965,
        95.99031066894531
      ],
      "min": [
        -5.930578231811523,
        -104.17448425292969,
        61.67058181762695
      ],
      "type": "VEC3"
    },
    {
      "bufferView": 2,
      "byteOffset": 19992552,
      "componentType": 5126,
      "count": 65532,
      "max": [
        0.9999440312385559,
        0.9999980926513672,
        0.9999791979789734
      ],
      "min": [
        -0.9999504685401917,
        -0.9999934434890747,
        -0.999979555606842
      ],
      "type": "VEC3"
    },
    {
      "bufferView": 3,
      "byteOffset": 12804112,
      "componentType": 5126,
      "count": 65532,
      "max": [
        0.9999560117721558,
        0.9997221231460571,
        0.999997615814209,
        1.0
      ],
      "min": [
        -0.999904990196228,
        -0.9999306797981262,
        -0.9999982714653015,
        -1.0
      ],
      "type": "VEC4"
    },
    {
      "bufferView": 1,
      "byteOffset": 6402056,
      "componentType": 5126,
      "count": 65532,
      "max": [
        0.9210233688354492,
        0.9919775128364563
      ],
      "min": [
        0.021150976419448853,
        0.07276048511266708
      ],
      "type": "VEC2"
    },
    {
      "bufferView": 0,
      "byteOffset": 15117228,
      "componentType": 5125,
      "count": 316272,
      "type": "SCALAR"
    },
    {
      "bufferView": 2,
      "byteOffset": 20778936,
      "componentType": 5126,
      "count": 65532,
      "max": [
        5.205376148223877,
        6.646938323974609,
        76.28239440917969
      ],
      "min": [
        -6.152297019958496,
        -6.3563079833984375,
        35.99457550048828
      ],
      "type": "VEC3"
    },
    {
      "bufferView": 2,
      "byteOffset": 21565320,
      "componentType": 5126,
      "count": 65532,
      "max": [
        0.999972403049469,
        0.9999999403953552,
        0.9999786615371704
      ],
      "min": [
        -0.9999545812606812,
        -0.9999985098838806,
        -0.999979555606842
      ],
      "type": "VEC3"
    },
    {
      "bufferView": 3,
      "byteOffset": 13852624,
      "componentType": 5126,
      "count": 65532,
      "max": [
        0.9999955892562866,
        0.9999984502792358,
        0.9999962449073792,
        1.0
      ],
      "min": [
        -0.9999402165412903,
        -0.9997726082801819,
        -0.9999966025352478,
        -1.0
      ],
      "type": "VEC4"
    },
    {
      "bufferView": 1,
      "byteOffset": 6926312,
      "componentType": 5126,
      "count": 65532,
      "max": [
        0.9210233688354492,
        0.9919775128364563
      ],
      "min": [
        0.021150976419448853,
        0.07276048511266708
      ],
      "type": "VEC2"
    },
    {
      "bufferView": 0,
      "byteOffset": 16382316,
      "componentType": 5125,
      "count": 316596,
      "type": "SCALAR"
    },
    {
      "bufferView": 2,
      "byteOffset": 22351704,
      "componentType": 5126,
      "count": 36753,
      "max": [
        4.597570896148682,
        114.87603759765625,
        50.606388092041016
      ],
      "min": [
        -6.152297019958496,
        -108.80596160888672,
        37.58071517944336
      ],
      "type": "VEC3"
    },
    {
      "bufferView": 2,
      "byteOffset": 22792740,
      "componentType": 5126,
      "count": 36753,
      "max": [
        0.9999693632125854,
        0.9999999403953552,
        0.9999890327453613
      ],
      "min": [
        -0.9999421834945679,
        -0.9999985098838806,
        -0.9999890327453613
      ],
      "type": "VEC3"
    },
    {
      "bufferView": 3,
      "byteOffset": 14901136,
      "componentType": 5126,
      "count": 36753,
      "max": [
        0.9999957084655762,
        0.9999984502792358,
        0.9999770522117615,
        1.0
      ],
      "min": [
        -0.9999412298202515,
        -0.9991723895072937,
        -0.9999938607215881,
        -1.0
      ],
      "type": "VEC4"
    },
    {
      "bufferView": 1,
      "byteOffset": 7450568,
      "componentType": 5126,
      "count": 36753,
      "max": [
        0.9210233688354492,
        0.9919775128364563
      ],
      "min": [
        0.021150976419448853,
        0.07276048511266708
      ],
      "type": "VEC2"
    },
    {
      "bufferView": 0,
      "byteOffset": 17648700,
      "componentType": 5125,
      "count": 171903,
      "type": "SCALAR"
    },
    {
      "bufferView": 2,
      "byteOffset": 23233776,
      "componentType": 5126,
      "count": 65532,
      "max": [
        5.678836822509766,
        -109.93669128417969,
        11.044364929199219
      ],
      "min": [
        -5.678836345672607,
        -122.93994140625,
        -17.030227661132813
      ],
      "type": "VEC3"
    },
    {
      "bufferView": 2,
      "byteOffset": 24020160,
      "componentType": 5126,
      "count": 65532,
      "max": [
        0.99996018409729,
        0.9999999403953552,
        0.9999756217002869
      ],
      "min": [
        -0.9999563097953796,
        -0.9999985098838806,
        -0.9999796748161316
      ],
      "type": "VEC3"
    },
    {
      "bufferView": 3,
      "byteOffset": 15489184,
      "componentType": 5126,
      "count": 65532,
      "max": [
        0.999995768070221,
        0.9999979138374329,
        0.9999963045120239,
        1.0
      ],
      "min": [
        -0.9999412298202515,
        -0.9997745156288147,
        -0.9999966025352478,
        -1.0
      ],
      "type": "VEC4"
    },
    {
      "bufferView": 1,
      "byteOffset": 7744592,
      "componentType": 5126,
      "count": 65532,
      "max": [
        0.9210233688354492,
        0.9919775128364563
      ],
      "min": [
        0.021150976419448853,
        0.07276048511266708
      ],
      "type": "VEC2"
    },
    {
      "bufferView": 0,
      "byteOffset": 18336312,
      "componentType": 5125,
      "count": 317301,
      "type": "SCALAR"
    },
    {
      "bufferView": 2,
      "byteOffset": 24806544,
      "componentType": 5126,
      "count": 65532,
      "max": [
        5.410497188568115,
        122.31649017333984,
        23.257591247558594
      ],
      "min": [
        -5.678836345672607,
        -122.93994140625,
        -16.81009292602539
      ],
      "type": "VEC3"
    },
    {
      "bufferView": 2,
      "byteOffset": 25592928,
      "componentType": 5126,
      "count": 65532,
      "max": [
        0.9999630451202393,
        0.9999999403953552,
        0.999990701675415
      ],
      "min": [
        -0.9999409914016724,
        -0.9999985098838806,
        -0.9999796748161316
      ],
      "type": "VEC3"
    },
    {
      "bufferView": 3,
      "byteOffset": 16537696,
      "componentType": 5126,
      "count": 65532,
      "max": [
        0.9999955892562866,
        0.9999976754188538,
        0.9999963045120239,
        1.0
      ],
      "min": [
        -0.9999402165412903,
        -0.9997745156288147,
        -0.9999982118606567,
        -1.0
      ],
      "type": "VEC4"
    },
    {
      "bufferView": 1,
      "byteOffset": 8268848,
      "componentType": 5126,
      "count": 65532,
      "max": [
        0.9210233688354492,
        0.9919775128364563
      ],
      "min": [
        0.021150976419448853,
        0.07276048511266708
      ],
      "type": "VEC2"
    },
    {
      "bufferView": 0,
      "byteOffset": 19605516,
      "componentType": 5125,
      "count": 321300,
      "type": "SCALAR"
    },
    {
      "bufferView": 2,
      "byteOffset": 26379312,
      "componentType": 5126,
      "count": 65532,
      "max": [
        5.678836822509766,
        116.28813934326172,
        42.96549987792969
      ],
      "min": [
        -1.1681222915649414,
        -112.58625793457031,
        -17.030227661132813
      ],
      "type": "VEC3"
    },
    {
      "bufferView": 2,
      "byteOffset": 27165696,
      "componentType": 5126,
      "count": 65532,
      "max": [
        0.9998261332511902,
        0.9994343519210815,
        0.9999890327453613
      ],
      "min": [
        -0.9998251795768738,
        -0.999236524105072,
        -0.9999890327453613
      ],
      "type": "VEC3"
    },
    {
      "bufferView": 3,
      "byteOffset": 17586208,
      "componentType": 5126,
      "count": 65532,
      "max": [
        0.9999887347221375,
        0.9961932301521301,
        0.9999775886535645,
        1.0
      ],
      "min": [
        -0.9999040365219116,
        -0.9961323142051697,
        -0.9999962449073792,
        -1.0
      ],
      "type": "VEC4"
    },
    {
      "bufferView": 1,
      "byteOffset": 8793104,
      "componentType": 5126,
      "count": 65532,
      "max": [
        0.9210233688354492,
        0.9919775128364563
      ],
      "min": [
        0.021150976419448853,
        0.07276048511266708
      ],
      "type": "VEC2"
    },
    {
      "bufferView": 0,
      "byteOffset": 20890716,
      "componentType": 5125,
      "count": 307011,
      "type": "SCALAR"
    },
    {
      "bufferView": 2,
      "byteOffset": 27952080,
      "componentType": 5126,
      "count": 65532,
      "max": [
        0.5843669772148132,
        111.09574127197266,
        42.96550750732422
      ],
      "min": [
        -1.1681222915649414,
        -112.58625793457031,
        15.142433166503906
      ],
      "type": "VEC3"
    },
    {
      "bufferView": 2,
      "byteOffset": 28738464,
      "componentType": 5126,
      "count": 65532,
      "max": [
        0.9998405575752258,
        0.9978303909301758,
        0.9999889135360718
      ],
      "min": [
        -0.9998251795768738,
        -0.9978286623954773,
        -0.9999890327453613
      ],
      "type": "VEC3"
    },
    {
      "bufferView": 3,
      "byteOffset": 18634720,
      "componentType": 5126,
      "count": 65532,
      "max": [
        0.9999886751174927,
        0.9961887001991272,
        0.9999741911888123,
        1.0
      ],
      "min": [
        -0.99986732006073,
        -0.9961223602294922,
        -0.9999456405639648,
        -1.0
      ],
      "type": "VEC4"
    },
    {
      "bufferView": 1,
      "byteOffset": 9317360,
      "componentType": 5126,
      "count": 65532,
      "max": [
        0.9210233688354492,
        0.9919775128364563
      ],
      "min": [
        0.021150976419448853,
        0.07276048511266708
      ],
      "type": "VEC2"
    },
    {
      "bufferView": 0,
      "byteOffset": 22118760,
      "componentType": 5125,
      "count": 307659,
      "type": "SCALAR"
    },
    {
      "bufferView": 2,
      "byteOffset": 29524848,
      "componentType": 5126,
      "count": 65532,
      "max": [
        5.678836822509766,
        123.7011489868164,
        45.25562286376953
      ],
      "min": [
        -5.457117557525635,
        -55.91849899291992,
        8.64577865600586
      ],
      "type": "VEC3"
    },
    {
      "bufferView": 2,
      "byteOffset": 30311232,
      "componentType": 5126,
      "count": 65532,
      "max": [
        0.9999681115150452,
        0.9999991655349731,
        0.9999902248382568
      ],
      "min": [
        -0.9999834299087524,
        -0.9999946355819702,
        -0.9999927282333374
      ],
      "type": "VEC3"
    },
    {
      "bufferView": 3,
      "byteOffset": 19683232,
      "componentType": 5126,
      "count": 65532,
      "max": [
        0.9999508261680603,
        0.9999562501907349,
        0.9999968409538269,
        1.0
      ],
      "min": [
        -0.9999046921730042,
        -0.9998891353607178,
        -0.9999993443489075,
        -1.0
      ],
      "type": "VEC4"
    },
    {
      "bufferView": 1,
      "byteOffset": 9841616,
      "componentType": 5126,
      "count": 65532,
      "max": [
        0.9210233688354492,
        0.9919775128364563
      ],
      "min": [
        0.021150976419448853,
        0.07276048511266708
      ],
      "type": "VEC2"
    },
    {
      "bufferView": 0,
      "byteOffset": 23349396,
      "componentType": 5125,
      "count": 322455,
      "type": "SCALAR"
    },
    {
      "bufferView": 2,
      "byteOffset": 31097616,
      "componentType": 5126,
      "count": 65532,
      "max": [
        5.44945764541626,
        123.63408660888672,
        53.09661865234375
      ],
      "min": [
        -5.1563639640808105,
        -122.35453033447266,
        -53.096614837646484
      ],
      "type": "VEC3"
    },
    {
      "bufferView": 2,
      "byteOffset": 31884000,
      "componentType": 5126,
      "count": 65532,
      "max": [
        0.9999920725822449,
        0.9999988079071045,
        1.0
      ],
      "min": [
        -0.9999920129776001,
        -0.9999964833259583,
        -1.0
      ],
      "type": "VEC3"
    },
    {
      "bufferView": 3,
      "byteOffset": 20731744,
      "componentType": 5126,
      "count": 65532,
      "max": [
        0.9999989867210388,
        0.9999997615814209,
        0.9999975562095642,
        1.0
      ],
      "min": [
        -0.9999387264251709,
        -0.9999662637710571,
        -0.9999923706054688,
        -1.0
      ],
      "type": "VEC4"
    },
    {
      "bufferView": 1,
      "byteOffset": 10365872,
      "componentType": 5126,
      "count": 65532,
      "max": [
        0.8664869070053101,
        0.9919775128364563
      ],
      "min": [
        0.021150976419448853,
        0.0012299716472625732
      ],
      "type": "VEC2"
    },
    {
      "bufferView": 0,
      "byteOffset": 24639216,
      "componentType": 5125,
      "count": 306627,
      "type": "SCALAR"
    },
    {
      "bufferView": 2,
      "byteOffset": 32670384,
      "componentType": 5126,
      "count": 65532,
      "max": [
        5.402116298675537,
        122.24207305908203,
        23.257591247558594
      ],
      "min": [
        -5.678836345672607,
        -112.58625793457031,
        -10.711986541748047
      ],
      "type": "VEC3"
    },
    {
      "bufferView": 2,
      "byteOffset": 33456768,
      "componentType": 5126,
      "count": 65532,
      "max": [
        0.9999745488166809,
        0.9999999403953552,
        0.9999889135360718
      ],
      "min": [
        -0.9999512434005737,
        -0.9999983906745911,
        -0.9999890327453613
      ],
      "type": "VEC3"
    },
    {
      "bufferView": 3,
      "byteOffset": 21780256,
      "componentType": 5126,
      "count": 65532,
      "max": [
        0.9999958872795105,
        0.9999989867210388,
        0.9999853372573853,
        1.0
      ],
      "min": [
        -0.9999412894248962,
        -0.9991161823272705,
        -0.9999938011169434,
        -1.0
      ],
      "type": "VEC4"
    },
    {
      "bufferView": 1,
      "byteOffset": 10890128,
      "componentType": 5126,
      "count": 65532,
      "max": [
        0.9210233688354492,
        0.9919775128364563
      ],
      "min": [
        0.021150976419448853,
        0.07276048511266708
      ],
      "type": "VEC2"
    },
    {
      "bufferView": 0,
      "byteOffset": 25865724,
      "componentType": 5125,
      "count": 309399,
      "type": "SCALAR"
    },
    {
      "bufferView": 2,
      "byteOffset": 34243152,
      "componentType": 5126,
      "count": 65532,
      "max": [
        5.678836822509766,
        122.1503677368164,
        -2.9948158264160156
      ],
      "min": [
        -5.457117557525635,
        -10.13653564453125,
        -17.030227661132813
      ],
      "type": "VEC3"
    },
    {
      "bufferView": 2,
      "byteOffset": 35029536,
      "componentType": 5126,
      "count": 65532,
      "max": [
        0.9999716281890869,
        0.9999986290931702,
        0.9999760389328003
      ],
      "min": [
        -0.9999499320983887,
        -0.9999983906745911,
        -0.9999796748161316
      ],
      "type": "VEC3"
    },
    {
      "bufferView": 3,
      "byteOffset": 22828768,
      "componentType": 5126,
      "count": 65532,
      "max": [
        0.9999959468841553,
        0.9998809099197388,
        0.9999963045120239,
        1.0
      ],
      "min": [
        -0.9999411702156067,
        -0.9997745156288147,
        -0.9999967813491821,
        -1.0
      ],
      "type": "VEC4"
    },
    {
      "bufferView": 1,
      "byteOffset": 11414384,
      "componentType": 5126,
      "count": 65532,
      "max": [
        0.9210233688354492,
        0.9919775128364563
      ],
      "min": [
        0.021150976419448853,
        0.07276048511266708
      ],
      "type": "VEC2"
    },
    {
      "bufferView": 0,
      "byteOffset": 27103320,
      "componentType": 5125,
      "count": 319047,
      "type": "SCALAR"
    },
    {
      "bufferView": 2,
      "byteOffset": 35815920,
      "componentType": 5126,
      "count": 65532,
      "max": [
        5.678836822509766,
        2.8667144775390625,
        22.681198120117188
      ],
      "min": [
        -5.678836345672607,
        -10.13653564453125,
        -15.444087982177734
      ],
      "type": "VEC3"
    },
    {
      "bufferView": 2,
      "byteOffset": 36602304,
      "componentType": 5126,
      "count": 65532,
      "max": [
        0.9999745488166809,
        0.9999999403953552,
        0.999975323677063
      ],
      "min": [
        -0.999947726726532,
        -0.9999985098838806,
        -0.9999796748161316
      ],
      "type": "VEC3"
    },
    {
      "bufferView": 3,
      "byteOffset": 23877280,
      "componentType": 5126,
      "count": 65532,
      "max": [
        0.9999955892562866,
        0.9999991655349731,
        0.9999975562095642,
        1.0
      ],
      "min": [
        -0.9999402165412903,
        -0.9997745156288147,
        -0.9999982714653015,
        -1.0
      ],
      "type": "VEC4"
    },
    {
      "bufferView": 1,
      "byteOffset": 11938640,
      "componentType": 5126,
      "count": 65532,
      "max": [
        0.9210233688354492,
        0.9919775128364563
      ],
      "min": [
        0.021150976419448853,
        0.07276048511266708
      ],
      "type": "VEC2"
    },
    {
      "bufferView": 0,
      "byteOffset": 28379508,
      "componentType": 5125,
      "count": 315675,
      "type": "SCALAR"
    },
    {
      "bufferView": 2,
      "byteOffset": 37388688,
      "componentType": 5126,
      "count": 65532,
      "max": [
        5.44945764541626,
        4.251365661621094,
        44.66474914550781
      ],
      "min": [
        -5.678836345672607,
        -10.897720336914063,
        10.231922149658203
      ],
      "type": "VEC3"
    },
    {
      "bufferView": 2,
      "byteOffset": 38175072,
      "componentType": 5126,
      "count": 65532,
      "max": [
        0.999993622303009,
        0.9999999403953552,
        0.9998450875282288
      ],
      "min": [
        -0.9999873042106628,
        -0.9999985098838806,
        -0.9999884963035583
      ],
      "type": "VEC3"
    },
    {
      "bufferView": 3,
      "byteOffset": 24925792,
      "componentType": 5126,
      "count": 65532,
      "max": [
        0.9999954700469971,
        0.9999991059303284,
        0.9999946355819702,
        1.0
      ],
      "min": [
        -0.9999394416809082,
        -0.9999254941940308,
        -0.9999995231628418,
        -1.0
      ],
      "type": "VEC4"
    },
    {
      "bufferView": 1,
      "byteOffset": 12462896,
      "componentType": 5126,
      "count": 65532,
      "max": [
        0.9210233688354492,
        0.9919775128364563
      ],
      "min": [
        0.021150976419448853,
        0.07276048511266708
      ],
      "type": "VEC2"
    },
    {
      "bufferView": 0,
      "byteOffset": 29642208,
      "componentType": 5125,
      "count": 316008,
      "type": "SCALAR"
    },
    {
      "bufferView": 2,
      "byteOffset": 38961456,
      "componentType": 5126,
      "count": 65532,
      "max": [
        5.44945764541626,
        3.7673568725585938,
        45.25562286376953
      ],
      "min": [
        -5.436324119567871,
        -123.70111846923828,
        30.570755004882813
      ],
      "type": "VEC3"
    },
    {
      "bufferView": 2,
      "byteOffset": 39747840,
      "componentType": 5126,
      "count": 65532,
      "max": [
        0.9999872446060181,
        0.9999991655349731,
        0.9998425245285034
      ],
      "min": [
        -0.9999834299087524,
        -0.9999946355819702,
        -0.9999884963035583
      ],
      "type": "VEC3"
    },
    {
      "bufferView": 3,
      "byteOffset": 25974304,
      "componentType": 5126,
      "count": 65532,
      "max": [
        0.999941349029541,
        0.9999563097953796,
        0.9999956488609314,
        1.0
      ],
      "min": [
        -0.9999391436576843,
        -0.9999396204948425,
        -0.9999992847442627,
        -1.0
      ],
      "type": "VEC4"
    },
    {
      "bufferView": 1,
      "byteOffset": 12987152,
      "componentType": 5126,
      "count": 65532,
      "max": [
        0.9210233688354492,
        0.9919775128364563
      ],
      "min": [
        0.021150976419448853,
        0.07276048511266708
      ],
      "type": "VEC2"
    },
    {
      "bufferView": 0,
      "byteOffset": 30906240,
      "componentType": 5125,
      "count": 315540,
      "type": "SCALAR"
    },
    {
      "bufferView": 2,
      "byteOffset": 40534224,
      "componentType": 5126,
      "count": 39303,
      "max": [
        5.678836822509766,
        -109.03604888916016,
        45.25562286376953
      ],
      "min": [
        -5.436324119567871,
        -123.40550231933594,
        8.64577865600586
      ],
      "type": "VEC3"
    },
    {
      "bufferView": 2,
      "byteOffset": 41005860,
      "componentType": 5126,
      "count": 39303,
      "max": [
        0.999949038028717,
        0.9999991655349731,
        0.9996724724769592
      ],
      "min": [
        -0.999949038028717,
        -0.9999934434890747,
        -0.9999796748161316
      ],
      "type": "VEC3"
    },
    {
      "bufferView": 3,
      "byteOffset": 27022816,
      "componentType": 5126,
      "count": 39303,
      "max": [
        0.9999561309814453,
        0.9999563097953796,
        0.999997615814209,
        1.0
      ],
      "min": [
        -0.9999048709869385,
        -0.9997745156288147,
        -0.999997615814209,
        -1.0
      ],
      "type": "VEC4"
    },
    {
      "bufferView": 1,
      "byteOffset": 13511408,
      "componentType": 5126,
      "count": 39303,
      "max": [
        0.9128962755203247,
        0.9919775128364563
      ],
      "min": [
        0.021150976419448853,
        0.10389114171266556
      ],
      "type": "VEC2"
    },
    {
      "bufferView": 0,
      "byteOffset": 32168400,
      "componentType": 5125,
      "count": 183648,
      "type": "SCALAR"
    },
    {
      "bufferView": 2,
      "byteOffset": 41477496,
      "componentType": 5126,
      "count": 65532,
      "max": [
        48.73420333862305,
        -46.242210388183594,
        45.772369384765625
      ],
      "min": [
        -30.616012573242188,
        -95.36441802978516,
        -62.25926208496094
      ],
      "type": "VEC3"
    },
    {
      "bufferView": 2,
      "byteOffset": 42263880,
      "componentType": 5126,
      "count": 65532,
      "max": [
        0.9952387809753418,
        1.0,
        0.9999980330467224
      ],
      "min": [
        -0.9998564124107361,
        -0.9999967217445374,
        -0.9999847412109375
      ],
      "type": "VEC3"
    },
    {
      "bufferView": 3,
      "byteOffset": 27651664,
      "componentType": 5126,
      "count": 65532,
      "max": [
        0.9999989867210388,
        0.999966561794281,
        0.9999227523803711,
        1.0
      ],
      "min": [
        -0.9999943971633911,
        -0.9999837279319763,
        -0.9999920725822449,
        -1.0
      ],
      "type": "VEC4"
    },
    {
      "bufferView": 1,
      "byteOffset": 13825832,
      "componentType": 5126,
      "count": 65532,
      "max": [
        0.5881335139274597,
        0.9774705767631531
      ],
      "min": [
        0.010583763010799885,
        0.014360583387315273
      ],
      "type": "VEC2"
    },
    {
      "bufferView": 0,
      "byteOffset": 32902992,
      "componentType": 5125,
      "count": 307650,
      "type": "SCALAR"
    },
    {
      "bufferView": 2,
      "byteOffset": 43050264,
      "componentType": 5126,
      "count": 65532,
      "max": [
        48.28596496582031,
        -1.5920944213867188,
        49.33127975463867
      ],
      "min": [
        -33.11199951171875,
        -47.70183563232422,
        -63.8261833190918
      ],
      "type": "VEC3"
    },
    {
      "bufferView": 2,
      "byteOffset": 43836648,
      "componentType": 5126,
      "count": 65532,
      "max": [
        0.9967371225357056,
        1.0,
        0.9999964237213135
      ],
      "min": [
        -0.9998565912246704,
        -0.9999998211860657,
        -1.0
      ],
      "type": "VEC3"
    },
    {
      "bufferView": 3,
      "byteOffset": 28700176,
      "componentType": 5126,
      "count": 65532,
      "max": [
        0.999989926815033,
        0.9998911023139954,
        0.9999943375587463,
        1.0
      ],
      "min": [
        -0.9999983906745911,
        -0.9999916553497314,
        -0.999970555305481,
        -1.0
      ],
      "type": "VEC4"
    },
    {
      "bufferView": 1,
      "byteOffset": 14350088,
      "componentType": 5126,
      "count": 65532,
      "max": [
        0.5881335139274597,
        0.9774705767631531
      ],
      "min": [
        0.010583763010799885,
        0.014360583387315273
      ],
      "type": "VEC2"
    },
    {
      "bufferView": 0,
      "byteOffset": 34133592,
      "componentType": 5125,
      "count": 307650,
      "type": "SCALAR"
    },
    {
      "bufferView": 2,
      "byteOffset": 44623032,
      "componentType": 5126,
      "count": 65532,
      "max": [
        49.06224822998047,
        112.63338470458984,
        48.574588775634766
      ],
      "min": [
        -31.618677139282227,
        -112.6333999633789,
        -62.943702697753906
      ],
      "type": "VEC3"
    },
    {
      "bufferView": 2,
      "byteOffset": 45409416,
      "componentType": 5126,
      "count": 65532,
      "max": [
        0.9989773631095886,
        0.999998152256012,
        0.999984085559845
      ],
      "min": [
        -0.9998635053634644,
        -0.9999915361404419,
        -0.9999728202819824
      ],
      "type": "VEC3"
    },
    {
      "bufferView": 3,
      "byteOffset": 29748688,
      "componentType": 5126,
      "count": 65532,
      "max": [
        0.9999984502792358,
        0.9999986886978149,
        0.999991238117218,
        1.0
      ],
      "min": [
        -0.9999935030937195,
        -0.9999484419822693,
        -0.9999980330467224,
        -1.0
      ],
      "type": "VEC4"
    },
    {
      "bufferView": 1,
      "byteOffset": 14874344,
      "componentType": 5126,
      "count": 65532,
      "max": [
        0.9717247486114502,
        0.9774705767631531
      ],
      "min": [
        0.010583763010799885,
        0.014360583387315273
      ],
      "type": "VEC2"
    },
    {
      "bufferView": 0,
      "byteOffset": 35364192,
      "componentType": 5125,
      "count": 312513,
      "type": "SCALAR"
    },
    {
      "bufferView": 2,
      "byteOffset": 46195800,
      "componentType": 5126,
      "count": 65532,
      "max": [
        47.32508850097656,
        102.21090698242188,
        48.80247116088867
      ],
      "min": [
        -31.59467124938965,
        -72.5503921508789,
        -63.903839111328125
      ],
      "type": "VEC3"
    },
    {
      "bufferView": 2,
      "byteOffset": 46982184,
      "componentType": 5126,
      "count": 65532,
      "max": [
        0.9991989135742188,
        0.9999929070472717,
        0.9999940991401672
      ],
      "min": [
        -0.9999156594276428,
        -1.0,
        -0.9999899864196777
      ],
      "type": "VEC3"
    },
    {
      "bufferView": 3,
      "byteOffset": 30797200,
      "componentType": 5126,
      "count": 65532,
      "max": [
        0.9999988675117493,
        0.9999133348464966,
        0.999967634677887,
        1.0
      ],
      "min": [
        -0.9999931454658508,
        -0.9999993443489075,
        -0.9999909996986389,
        -1.0
      ],
      "type": "VEC4"
    },
    {
      "bufferView": 1,
      "byteOffset": 15398600,
      "componentType": 5126,
      "count": 65532,
      "max": [
        0.946977972984314,
        0.9774705767631531
      ],
      "min": [
        0.010583763010799885,
        0.014360583387315273
      ],
      "type": "VEC2"
    },
    {
      "bufferView": 0,
      "byteOffset": 36614244,
      "componentType": 5125,
      "count": 309867,
      "type": "SCALAR"
    },
    {
      "bufferView": 2,
      "byteOffset": 47768568,
      "componentType": 5126,
      "count": 39388,
      "max": [
        49.64701843261719,
        31.784469604492188,
        48.149620056152344
      ],
      "min": [
        -32.39829635620117,
        3.4362411499023438,
        -63.77540588378906
      ],
      "type": "VEC3"
    },
    {
      "bufferView": 2,
      "byteOffset": 48241224,
      "componentType": 5126,
      "count": 39388,
      "max": [
        0.9971345663070679,
        0.9999932646751404,
        0.9998331665992737
      ],
      "min": [
        -0.9969037175178528,
        -0.9999964237213135,
        -0.9999932646751404
      ],
      "type": "VEC3"
    },
    {
      "bufferView": 3,
      "byteOffset": 31845712,
      "componentType": 5126,
      "count": 39388,
      "max": [
        0.9999963045120239,
        0.9999917149543762,
        0.9999721050262451,
        1.0
      ],
      "min": [
        -0.9999988079071045,
        -0.9991917610168457,
        -0.999993622303009,
        -1.0
      ],
      "type": "VEC4"
    },
    {
      "bufferView": 1,
      "byteOffset": 15922856,
      "componentType": 5126,
      "count": 39388,
      "max": [
        0.5881335139274597,
        0.9774705767631531
      ],
      "min": [
        0.010583763010799885,
        0.014360583387315273
      ],
      "type": "VEC2"
    },
    {
      "bufferView": 0,
      "byteOffset": 37853712,
      "componentType": 5125,
      "count": 184284,
      "type": "SCALAR"
    }
  ],
  "asset": {
    "extras": {
      "author": "Richi_n12 (https://sketchfab.com/Richi11)",
      "license": "COPYRIGHT TO Richi_n12",
      "source": "https://sketchfab.com/3d-models/wire-obstacle-defence-set-a34fd8f3d45d4f19b6f8d341a02b58f8",
      "title": "Wire Obstacle/ Defence Set"
    },
    "generator": "Sketchfab-16.33.0",
    "version": "2.0"
  },
  "bufferViews": [
    {
      "buffer": 0,
      "byteLength": 38590848,
      "name": "floatBufferViews",
      "target": 34963
    },
    {
      "buffer": 0,
      "byteLength": 16237960,
      "byteOffset": 38590848,
      "byteStride": 8,
      "name": "floatBufferViews",
      "target": 34962
    },
    {
      "buffer": 0,
      "byteLength": 48713880,
      "byteOffset": 54828808,
      "byteStride": 12,
      "name": "floatBufferViews",
      "target": 34962
    },
    {
      "buffer": 0,
      "byteLength": 32475920,
      "byteOffset": 103542688,
      "byteStride": 16,
      "name": "floatBufferViews",
      "target": 34962
    }
  ],
  "buffers": [
    {
      "byteLength": 136018608,
      "uri": "scene.bin"
    }
  ],
  "images": [
    {
      "uri": "textures/Material_32_baseColor.png"
    },
    {
      "uri": "textures/Material_32_metallicRoughness.png"
    },
    {
      "uri": "textures/Material_32_normal.png"
    },
    {
      "uri": "textures/Material_33_baseColor.png"
    },
    {
      "uri": "textures/Material_33_metallicRoughness.png"
    },
    {
      "uri": "textures/Material_33_normal.png"
    },
    {
      "uri": "textures/Material_29_baseColor.png"
    },
    {
      "uri": "textures/Material_29_metallicRoughness.png"
    },
    {
      "uri": "textures/Material_29_normal.png"
    }
  ],
  "materials": [
    {
      "doubleSided": true,
      "name": "Material_32",
      "normalTexture": {
        "index": 2
      },
      "pbrMetallicRoughness": {
        "baseColorTexture": {
          "index": 0
        },
        "metallicFactor": 0.5470492862454438,
        "metallicRoughnessTexture": {
          "index": 1
        }
      }
    },
    {
      "doubleSided": true,
      "name": "Material_33",
      "normalTexture": {
        "index": 5
      },
      "pbrMetallicRoughness": {
        "baseColorTexture": {
          "index": 3
        },
        "metallicFactor": 0.1630481159561629,
        "metallicRoughnessTexture": {
          "index": 4
        },
        "roughnessFactor": 0.6
      }
    },
    {
      "doubleSided": true,
      "name": "Material_29",
      "normalTexture": {
        "index": 8
      },
      "pbrMetallicRoughness": {
        "baseColorTexture": {
          "index": 6
        },
        "metallicFactor": 0.09600029257232022,
        "metallicRoughnessTexture": {
          "index": 7
        }
      }
    },
    {
      "doubleSided": true,
      "name": "Material_31",
      "normalTexture": {
        "index": 2
      },
      "pbrMetallicRoughness": {
        "baseColorTexture": {
          "index": 0
        },
        "metallicFactor": 0.6750496763418707,
        "metallicRoughnessTexture": {
          "index": 1
        }
      }
    }
  ],
  "meshes": [
    {
      "name": "Helix045_Material #32_0",
      "primitives": [
        {
          "attributes": {
            "NORMAL": 1,
            "POSITION": 0,
            "TANGENT": 2,
            "TEXCOORD_0": 3
          },
          "indices": 4,
          "material": 0,
          "mode": 4
        }
      ]
    },
    {
      "name": "Helix045_Material #32_0",
      "primitives": [
        {
          "attributes": {
            "NORMAL": 6,
            "POSITION": 5,
            "TANGENT": 7,
            "TEXCOORD_0": 8
          },
          "indices": 9,
          "material": 0,
          "mode": 4
        }
      ]
    },
    {
      "name": "Helix045_Material #32_0",
      "primitives": [
        {
          "attributes": {
            "NORMAL": 11,
            "POSITION": 10,
            "TANGENT": 12,
            "TEXCOORD_0": 13
          },
          "indices": 14,
          "material": 0,
          "mode": 4
        }
      ]
    },
    {
      "name": "Helix045_Material #32_0",
      "primitives": [
        {
          "attributes": {
            "NORMAL": 16,
            "POSITION": 15,
            "TANGENT": 17,
            "TEXCOORD_0": 18
          },
          "indices": 19,
          "material": 0,
          "mode": 4
        }
      ]
    },
    {
      "name": "Helix045_Material #32_0",
      "primitives": [
        {
          "attributes": {
            "NORMAL": 21,
            "POSITION": 20,
            "TANGENT": 22,
            "TEXCOORD_0": 23
          },
          "indices": 24,
          "material": 0,
          "mode": 4
        }
      ]
    },
    {
      "name": "Box003_Material #33_0",
      "primitives": [
        {
          "attributes": {
            "NORMAL": 26,
            "POSITION": 25,
            "TANGENT": 27,
            "TEXCOORD_0": 28
          },
          "indices": 29,
          "material": 1,
          "mode": 4
        }
      ]
    },
    {
      "name": "Box003_Material #33_0",
      "primitives": [
        {
          "attributes": {
            "NORMAL": 31,
            "POSITION": 30,
            "TANGENT": 32,
            "TEXCOORD_0": 33
          },
          "indices": 34,
          "material": 1,
          "mode": 4
        }
      ]
    },
    {
      "name": "Box003_Material #33_0",
      "primitives": [
        {
          "attributes": {
            "NORMAL": 36,
            "POSITION": 35,
            "TANGENT": 37,
            "TEXCOORD_0": 38
          },
          "indices": 39,
          "material": 1,
          "mode": 4
        }
      ]
    },
    {
      "name": "Box003_Material #33_0",
      "primitives": [
        {
          "attributes": {
            "NORMAL": 41,
            "POSITION": 40,
            "TANGENT": 42,
            "TEXCOORD_0": 43
          },
          "indices": 44,
          "material": 1,
          "mode": 4
        }
      ]
    },
    {
      "name": "Box003_Material #33_0",
      "primitives": [
        {
          "attributes": {
            "NORMAL": 46,
            "POSITION": 45,
            "TANGENT": 47,
            "TEXCOORD_0": 48
          },
          "indices": 49,
          "material": 1,
          "mode": 4
        }
      ]
    },
    {
      "name": "Capsule004_Material #29_0",
      "primitives": [
        {
          "attributes": {
            "NORMAL": 51,
            "POSITION": 50,
            "TANGENT": 52,
            "TEXCOORD_0": 53
          },
          "indices": 54,
          "material": 2,
          "mode": 4
        }
      ]
    },
    {
      "name": "Capsule004_Material #29_0",
      "primitives": [
        {
          "attributes": {
            "NORMAL": 56,
            "POSITION": 55,
            "TANGENT": 57,
            "TEXCOORD_0": 58
          },
          "indices": 59,
          "material": 2,
          "mode": 4
        }
      ]
    },
    {
      "name": "Capsule004_Material #29_0",
      "primitives": [
        {
          "attributes": {
            "NORMAL": 61,
            "POSITION": 60,
            "TANGENT": 62,
            "TEXCOORD_0": 63
          },
          "indices": 64,
          "material": 2,
          "mode": 4
        }
      ]
    },
    {
      "name": "Capsule004_Material #29_0",
      "primitives": [
        {
          "attributes": {
            "NORMAL": 66,
            "POSITION": 65,
            "TANGENT": 67,
            "TEXCOORD_0": 68
          },
          "indices": 69,
          "material": 2,
          "mode": 4
        }
      ]
    },
    {
      "name": "Capsule004_Material #29_0",
      "primitives": [
        {
          "attributes": {
            "NORMAL": 71,
            "POSITION": 70,
            "TANGENT": 72,
            "TEXCOORD_0": 73
          },
          "indices": 74,
          "material": 2,
          "mode": 4
        }
      ]
    },
    {
      "name": "Capsule004_Material #29_0",
      "primitives": [
        {
          "attributes": {
            "NORMAL": 76,
            "POSITION": 75,
            "TANGENT": 77,
            "TEXCOORD_0": 78
          },
          "indices": 79,
          "material": 2,
          "mode": 4
        }
      ]
    },
    {
      "name": "Capsule003_Material #29_0",
      "primitives": [
        {
          "attributes": {
            "NORMAL": 81,
            "POSITION": 80,
            "TANGENT": 82,
            "TEXCOORD_0": 83
          },
          "indices": 84,
          "material": 2,
          "mode": 4
        }
      ]
    },
    {
      "name": "Capsule003_Material #29_0",
      "primitives": [
        {
          "attributes": {
            "NORMAL": 86,
            "POSITION": 85,
            "TANGENT": 87,
            "TEXCOORD_0": 88
          },
          "indices": 89,
          "material": 2,
          "mode": 4
        }
      ]
    },
    {
      "name": "Capsule003_Material #29_0",
      "primitives": [
        {
          "attributes": {
            "NORMAL": 91,
            "POSITION": 90,
            "TANGENT": 92,
            "TEXCOORD_0": 93
          },
          "indices": 94,
          "material": 2,
          "mode": 4
        }
      ]
    },
    {
      "name": "Capsule003_Material #29_0",
      "primitives": [
        {
          "attributes": {
            "NORMAL": 96,
            "POSITION": 95,
            "TANGENT": 97,
            "TEXCOORD_0": 98
          },
          "indices": 99,
          "material": 2,
          "mode": 4
        }
      ]
    },
    {
      "name": "Capsule003_Material #29_0",
      "primitives": [
        {
          "attributes": {
            "NORMAL": 101,
            "POSITION": 100,
            "TANGENT": 102,
            "TEXCOORD_0": 103
          },
          "indices": 104,
          "material": 2,
          "mode": 4
        }
      ]
    },
    {
      "name": "Capsule003_Material #29_0",
      "primitives": [
        {
          "attributes": {
            "NORMAL": 106,
            "POSITION": 105,
            "TANGENT": 107,
            "TEXCOORD_0": 108
          },
          "indices": 109,
          "material": 2,
          "mode": 4
        }
      ]
    },
    {
      "name": "Capsule003_Material #29_0",
      "primitives": [
        {
          "attributes": {
            "NORMAL": 111,
            "POSITION": 110,
            "TANGENT": 112,
            "TEXCOORD_0": 113
          },
          "indices": 114,
          "material": 2,
          "mode": 4
        }
      ]
    },
    {
      "name": "Capsule003_Material #29_0",
      "primitives": [
        {
          "attributes": {
            "NORMAL": 116,
            "POSITION": 115,
            "TANGENT": 117,
            "TEXCOORD_0": 118
          },
          "indices": 119,
          "material": 2,
          "mode": 4
        }
      ]
    },
    {
      "name": "Capsule003_Material #29_0",
      "primitives": [
        {
          "attributes": {
            "NORMAL": 121,
            "POSITION": 120,
            "TANGENT": 122,
            "TEXCOORD_0": 123
          },
          "indices": 124,
          "material": 2,
          "mode": 4
        }
      ]
    },
    {
      "name": "Capsule003_Material #29_0",
      "primitives": [
        {
          "attributes": {
            "NORMAL": 126,
            "POSITION": 125,
            "TANGENT": 127,
            "TEXCOORD_0": 128
          },
          "indices": 129,
          "material": 2,
          "mode": 4
        }
      ]
    },
    {
      "name": "Capsule003_Material #29_0",
      "primitives": [
        {
          "attributes": {
            "NORMAL": 131,
            "POSITION": 130,
            "TANGENT": 132,
            "TEXCOORD_0": 133
          },
          "indices": 134,
          "material": 2,
          "mode": 4
        }
      ]
    },
    {
      "name": "Capsule003_Material #29_0",
      "primitives": [
        {
          "attributes": {
            "NORMAL": 136,
            "POSITION": 135,
            "TANGENT": 137,
            "TEXCOORD_0": 138
          },
          "indices": 139,
          "material": 2,
          "mode": 4
        }
      ]
    },
    {
      "name": "Helix044_Material #31_0",
      "primitives": [
        {
          "attributes": {
            "NORMAL": 141,
            "POSITION": 140,
            "TANGENT": 142,
            "TEXCOORD_0": 143
          },
          "indices": 144,
          "material": 3,
          "mode": 4
        }
      ]
    },
    {
      "name": "Helix044_Material #31_0",
      "primitives": [
        {
          "attributes": {
            "NORMAL": 146,
            "POSITION": 145,
            "TANGENT": 147,
            "TEXCOORD_0": 148
          },
          "indices": 149,
          "material": 3,
          "mode": 4
        }
      ]
    },
    {
      "name": "Helix044_Material #31_0",
      "primitives": [
        {
          "attributes": {
            "NORMAL": 151,
            "POSITION": 150,
            "TANGENT": 152,
            "TEXCOORD_0": 153
          },
          "indices": 154,
          "material": 3,
          "mode": 4
        }
      ]
    },
    {
      "name": "Helix044_Material #31_0",
      "primitives": [
        {
          "attributes": {
            "NORMAL": 156,
            "POSITION": 155,
            "TANGENT": 157,
            "TEXCOORD_0": 158
          },
          "indices": 159,
          "material": 3,
          "mode": 4
        }
      ]
    },
    {
      "name": "Helix044_Material #31_0",
      "primitives": [
        {
          "attributes": {
            "NORMAL": 161,
            "POSITION": 160,
            "TANGENT": 162,
            "TEXCOORD_0": 163
          },
          "indices": 164,
          "material": 3,
          "mode": 4
        }
      ]
    }
  ],
  "nodes": [
    {
      "children": [
        1
      ],
      "matrix": [
        1.0,
        0.0,
        0.0,
        0.0,
        0.0,
        2.220446049250313e-16,
        -1.0,
        0.0,
        0.0,
        1.0,
        2.220446049250313e-16,
        0.0,
        0.0,
        0.0,
        0.0,
        1.0
      ],
      "name": "Sketchfab_model"
    },
    {
      "children": [
        2
      ],
      "matrix": [
        0.009999999776482582,
        0.0,
        0.0,
        0.0,
        0.0,
        0.0,
        0.009999999776482582,
        0.0,
        0.0,
        -0.009999999776482582,
        0.0,
        0.0,
        0.0,
        0.0,
        0.0,
        1.0
      ],
      "name": "49a54013f0474ef8b0494016f92dbb83.fbx"
    },
    {
      "children": [
        3,
        9,
        15,
        22,
        35
      ],
      "name": "RootNode"
    },
    {
      "children": [
        4,
        5,
        6,
        7,
        8
      ],
      "matrix": [
        1.0,
        0.0,
        0.0,
        0.0,
        0.0,
        2.220446049250313e-16,
        -1.0,
        0.0,
        0.0,
        1.0,
        2.220446049250313e-16,
        0.0,
        -140.427978515625,
        35.22450256347656,
        91.41375732421875,
        1.0
      ],
      "name": "Helix045"
    },
    {
      "mesh": 0,
      "name": "Helix045_Material #32_0"
    },
    {
      "mesh": 1,
      "name": "Helix045_Material #32_0"
    },
    {
      "mesh": 2,
      "name": "Helix045_Material #32_0"
    },
    {
      "mesh": 3,
      "name": "Helix045_Material #32_0"
    },
    {
      "mesh": 4,
      "name": "Helix045_Material #32_0"
    },
    {
      "children": [
        10,
        11,
        12,
        13,
        14
      ],
      "matrix": [
        1.0,
        0.0,
        0.0,
        0.0,
        0.0,
        2.220446049250313e-16,
        -1.0,
        0.0,
        0.0,
        1.0,
        2.220446049250313e-16,
        0.0,
        134.6278076171875,
        56.98771667480469,
        -21.1239013671875,
        1.0
      ],
      "name": "Box003"
    },
    {
      "mesh": 5,
      "name": "Box003_Material #33_0"
    },
    {
      "mesh": 6,
      "name": "Box003_Material #33_0"
    },
    {
      "mesh": 7,
      "name": "Box003_Material #33_0"
    },
    {
      "mesh": 8,
      "name": "Box003_Material #33_0"
    },
    {
      "mesh": 9,
      "name": "Box003_Material #33_0"
    },
    {
      "children": [
        16,
        17,
        18,
        19,
        20,
        21
      ],
      "matrix": [
        1.0,
        0.0,
        0.0,
        0.0,
        0.0,
        2.220446049250313e-16,
        -1.0,
        0.0,
        0.0,
        1.0,
        2.220446049250313e-16,
        0.0,
        12.124923706054688,
        -13.732730865478516,
        -133.03012084960938,
        1.0
      ],
      "name": "Capsule004"
    },
    {
      "mesh": 10,
      "name": "Capsule004_Material #29_0"
    },
    {
      "mesh": 11,
      "name": "Capsule004_Material #29_0"
    },
    {
      "mesh": 12,
      "name": "Capsule004_Material #29_0"
    },
    {
      "mesh": 13,
      "name": "Capsule004_Material #29_0"
    },
    {
      "mesh": 14,
      "name": "Capsule004_Material #29_0"
    },
    {
      "mesh": 15,
      "name": "Capsule004_Material #29_0"
    },
    {
      "children": [
        23,
        24,
        25,
        26,
        27,
        28,
        29,
        30,
        31,
        32,
        33,
        34
      ],
      "matrix": [
        1.0,
        0.0,
        0.0,
        0.0,
        0.0,
        2.220446049250313e-16,
        -1.0,
        0.0,
        0.0,
        1.0,
        2.220446049250313e-16,
        0.0,
        4.95928955078125,
        39.29209899902344,
        129.19705200195313,
        1.0
      ],
      "name": "Capsule003"
    },
    {
      "mesh": 16,
      "name": "Capsule003_Material #29_0"
    },
    {
      "mesh": 17,
      "name": "Capsule003_Material #29_0"
    },
    {
      "mesh": 18,
      "name": "Capsule003_Material #29_0"
    },
    {
      "mesh": 19,
      "name": "Capsule003_Material #29_0"
    },
    {
      "mesh": 20,
      "name": "Capsule003_Material #29_0"
    },
    {
      "mesh": 21,
      "name": "Capsule003_Material #29_0"
    },
    {
      "mesh": 22,
      "name": "Capsule003_Material #29_0"
    },
    {
      "mesh": 23,
      "name": "Capsule003_Material #29_0"
    },
    {
      "mesh": 24,
      "name": "Capsule003_Material #29_0"
    },
    {
      "mesh": 25,
      "name": "Capsule003_Material #29_0"
    },
    {
      "mesh": 26,
      "name": "Capsule003_Material #29_0"
    },
    {
      "mesh": 27,
      "name": "Capsule003_Material #29_0"
    },
    {
      "children": [
        36,
        37,
        38,
        39,
        40
      ],
      "matrix": [
        1.0,
        0.0,
        0.0,
        0.0,
        0.0,
        2.220446049250313e-16,
        -1.0,
        0.0,
        0.0,
        1.0,
        2.220446049250313e-16,
        0.0,
        -139.73831176757813,
        57.075225830078125,
        -260.3576354980469,
        1.0
      ],
      "name": "Helix044"
    },
    {
      "mesh": 28,
      "name": "Helix044_Material #31_0"
    },
    {
      "mesh": 29,
      "name": "Helix044_Material #31_0"
    },
    {
      "mesh": 30,
      "name": "Helix044_Material #31_0"
    },
    {
      "mesh": 31,
      "name": "Helix044_Material #31_0"
    },
    {
      "mesh": 32,
      "name": "Helix044_Material #31_0"
    }
  ],
  "samplers": [
    {
      "magFilter": 9729,
      "minFilter": 9987,
      "wrapS": 10497,
      "wrapT": 10497
    }
  ],
  "scene": 0,
  "scenes": [
    {
      "name": "Sketchfab_Scene",
      "nodes": [
        0
      ]
    }
  ],
  "textures": [
    {
      "sampler": 0,
      "source": 0
    },
    {
      "sampler": 0,
      "source": 1
    },
    {
      "sampler": 0,
      "source": 2
    },
    {
      "sampler": 0,
      "source": 3
    },
    {
      "sampler": 0,
      "source": 4
    },
    {
      "sampler": 0,
      "source": 5
    },
    {
      "sampler": 0,
      "source": 6
    },
    {
      "sampler": 0,
      "source": 7
    },
    {
      "sampler": 0,
      "source": 8
    }
  ]
}
